<svg fill="none" viewBox="0 0 2844 1146" xmlns="http://www.w3.org/2000/svg">
<path d="m56.418 958 549.53-63.408 120.5 52.068 219-20.564m0 0 219-20.565 35.11-29.396-8.73-93.012-245.02 23.007-25.035 58.899 24.671 61.067z" stroke="#FCFCFC" stroke-width="44"/>
<path d="m1230.4 743.99-41.49 39.316-198.25 18.617-42.816-31.4-7.693-81.925 36.858-32.046 198.25-18.616 47.45 24.129 7.69 81.925z" stroke="#FCFCFC" stroke-width="44"/>
<path d="m13.99 534.46 575.66-54.055 84.741-66.991 234.25-81.03 70.27 19.5 94.665 229.73-26.78 61.548-75.088 7.051-34.957-18.467-43.9-120.78-71.326 47.089-65.196 112.38-123.18 32.694" stroke="#FCFCFC" stroke-width="44"/>
<path d="m1203.3 647.11 52.26-37.842-7.93-84.389-57.52-18.212-139.63 13.112" stroke="#FCFCFC" stroke-width="44"/>
<path d="m1184.9 507.16 21.85-36.229-6.42-68.373-27.58-24.753-173.22 16.266" stroke="#FCFCFC" stroke-width="44"/>
<path d="m1542.1 264.57c7.51 27.345 6.51 50.226-3.01 68.643s-26.94 31.104-52.25 38.061c-25.31 6.958-46.76 4.956-64.36-6.007-17.6-10.962-30.18-30.191-37.74-57.687-7.55-27.496-6.54-50.339 3.04-68.53 9.64-18.286 27.15-30.919 52.54-37.897s46.79-5.003 64.22 5.925c17.5 10.908 30.02 30.072 37.56 57.492zm-120.57 33.142c5.07 18.456 12.4 31.391 21.97 38.807 9.57 7.415 21.33 9.207 35.27 5.376 27.94-7.682 36.81-30.092 26.6-67.23-10.23-37.214-29.24-52-57.04-44.359-13.93 3.831-23.15 11.427-27.64 22.79-4.51 11.288-4.23 26.159 0.84 44.616zm324.13-0.012-44.52 12.238-106.22-105.22-1.02 0.28c7.5 21.678 12.54 37.226 15.13 46.642l21.37 77.741-31.3 8.604-45.41-165.2 44.18-12.144 105.77 104.01 0.79-0.217c-7.03-21.159-11.77-36.183-14.21-45.072l-21.5-78.193 31.53-8.666 45.41 165.2zm136.84-37.614-95.15 26.152-45.41-165.2 95.15-26.153 7.89 28.701-60.12 16.524 9.97 36.272 55.94-15.375 7.89 28.701-55.94 15.375 11.71 42.6 60.12-16.525 7.95 28.928z" fill="#FCFCFC"/>
<path d="m1713.2 463.04 11.83-1.674c11.06-1.565 19.03-4.902 23.91-10.011 4.87-5.186 6.72-11.956 5.53-20.311-1.19-8.431-4.39-14.33-9.6-17.696-5.13-3.376-12.61-4.37-22.44-2.98l-16.36 2.315 7.13 50.357zm77.41-38.41c2.58 18.256-1.17 33.028-11.25 44.317-10 11.278-25.52 18.406-46.56 21.382l-15.43 2.184 8.53 60.336-35.97 5.089-24-169.64 54.19-7.666c20.58-2.911 36.83-0.674 48.76 6.712 12 7.297 19.25 19.725 21.73 37.285zm162.62-76.976 15.53 109.77c1.77 12.531 0.5 23.915-3.81 34.151-4.24 10.226-11.3 18.602-21.18 25.129-9.89 6.528-22.06 10.815-36.53 12.861-21.81 3.086-39.54-0.087-53.18-9.518-13.66-9.51-21.86-23.972-24.61-43.388l-15.46-109.3 35.85-5.073 14.7 103.85c1.85 13.073 5.83 22.293 11.96 27.66 6.12 5.366 15.26 7.191 27.4 5.472 11.76-1.663 19.84-5.922 24.23-12.778 4.46-6.943 5.76-16.99 3.9-30.14l-14.66-103.62 35.86-5.072zm216.03 142.47-45.72 6.468-91.95-117.89-1.04 0.148c4.67 22.457 7.7 38.52 9.06 48.189l11.3 79.83-32.14 4.548-24-169.64 45.37-6.419 91.65 116.63 0.81-0.115c-4.28-21.882-7.06-37.387-8.35-46.515l-11.36-80.294 32.37-4.58 24 169.64zm94.76-158.39c-13.53 1.915-23.29 8.504-29.27 19.765-6 11.184-7.71 25.865-5.14 44.044 5.36 37.826 22.23 54.731 50.62 50.715 11.91-1.686 25.91-6.705 42.01-15.058l4.27 30.168c-13.1 7.772-28.24 12.873-45.41 15.302-24.68 3.491-44.61-1.303-59.8-14.383-15.19-13.157-24.77-33.737-28.73-61.74-2.5-17.637-1.47-33.523 3.08-47.659 4.54-14.213 12.3-25.688 23.3-34.423 11.06-8.824 24.67-14.38 40.84-16.667 16.47-2.331 33.59-0.689 51.35 4.925l-7.47 30.882c-6.77-2.12-13.52-3.847-20.26-5.182s-13.2-1.564-19.39-0.689zm238.6 111.23-35.85 5.073-10.36-73.216-67.18 9.504 10.35 73.217-35.97 5.088-24-169.64 35.97-5.089 9.41 66.486 67.18-9.505-9.4-66.486 35.85-5.073 24 169.64z" fill="#FCFCFC"/>
<path d="m2329.6 728.52-49.46-131.62-1.05 0.065c3.17 27.2 5.03 45.362 5.6 54.485l4.91 79.536-32.4 2.001-10.56-171 49.36-3.047 48.54 128.27 0.71-0.043 34.85-133.42 49.36-3.048 10.55 171-33.8 2.087-5-80.94c-0.23-3.82-0.46-8.229-0.69-13.224-0.16-5-0.43-18.29-0.82-39.869l-1.06 0.065-35.82 136.65-33.22 2.051zm258.26-15.946-14.91-39.938-62.35 3.849-9.88 41.47-39.07 2.412 49.76-175.43 44.32-2.737 71.19 167.96-39.06 2.412zm-25.45-69.814c-13.74-36.176-21.5-56.635-23.28-61.378-1.7-4.748-2.95-8.506-3.75-11.274-1.95 10.139-7.8 35.274-17.53 75.403l44.56-2.751zm237.86 56.699-46.09 2.845-82.38-124.77-1.05 0.065c2.89 22.755 4.64 39.007 5.24 48.754l4.97 80.471-32.4 2.001-10.56-171 45.74-2.824 82.18 123.49 0.82-0.05c-2.54-22.152-4.1-37.828-4.67-47.029l-5-80.94 32.64-2.014 10.56 171z" fill="#FCFCFC"/>
<path d="m1604.3 921.7-41.32-1.908-19.03-90.974c-0.71-3.239-1.89-9.902-3.54-19.989-1.56-10.161-2.42-16.966-2.58-20.414-0.66 4.193-2.14 10.928-4.45 20.207-2.3 9.2-4.05 15.767-5.25 19.701l-27.2 88.605-41.2-1.902-35.77-173.16 35.71 1.649 17.57 94.426c3.03 17.424 5.11 32.497 6.25 45.219 0.67-4.427 2.04-11.246 4.11-20.457 2.15-9.286 4.08-16.47 5.8-21.552l29.36-94.724 34.3 1.584 20.51 97.025c0.9 4.343 1.96 10.962 3.19 19.856s2.13 16.522 2.7 22.883c1.06-6.051 2.66-13.564 4.79-22.537 2.14-9.052 4.04-16.355 5.71-21.909l26.08-92.411 35.71 1.648-51.45 169.14zm224.39-75.632c-1.31 28.33-9.34 49.779-24.09 64.349s-35.23 21.249-61.46 20.039c-26.22-1.211-46-9.749-59.35-25.616-13.34-15.867-19.36-38.043-18.04-66.528 1.31-28.485 9.34-49.896 24.08-64.231 14.82-14.41 35.38-21.008 61.68-19.794s46.05 9.712 59.24 25.493c13.27 15.785 19.25 37.881 17.94 66.288zm-124.91-5.766c-0.88 19.121 2.08 33.687 8.9 43.699 6.81 10.012 17.43 15.352 31.87 16.018 28.95 1.337 44.32-17.232 46.09-55.707 1.78-38.552-11.73-58.494-40.52-59.823-14.44-0.666-25.55 3.709-33.34 13.125-7.78 9.339-12.11 23.568-13 42.688zm197.1-0.286 11.71 0.54c11.47 0.53 20.02-0.991 25.66-4.563s8.65-9.455 9.03-17.649c0.38-8.117-2.17-14.021-7.63-17.715-5.38-3.689-13.92-5.804-25.63-6.345l-11-0.508-2.14 46.24zm-1.36 29.5-3.03 65.672-36.29-1.675 7.9-171.15 49.87 2.302c23.25 1.074 40.27 6.121 51.03 15.143 10.77 8.944 15.76 22.039 14.96 39.287-0.46 10.067-3.64 18.914-9.55 26.54-5.9 7.549-14.03 13.313-24.38 17.293 23.98 39.664 39.61 65.294 46.9 76.893l-40.27-1.859-37.83-67.558-19.31-0.892zm256.61 77.658-41.2-1.902-41.51-74.18-15.84 10.296-2.82 61.106-36.29-1.675 7.9-171.15 36.29 1.675-3.62 78.316 15.21-19.476 49.05-56.04 40.26 1.859-63.19 72.983 55.76 98.184zm180.85-77.641c-1.31 28.329-9.34 49.778-24.09 64.348s-35.24 21.249-61.46 20.039c-26.22-1.211-46-9.749-59.35-25.616-13.34-15.867-19.36-38.043-18.05-66.528 1.32-28.485 9.35-49.896 24.09-64.231 14.82-14.41 35.38-21.008 61.68-19.794s46.04 9.712 59.24 25.493c13.27 15.785 19.25 37.881 17.94 66.289zm-124.91-5.767c-0.88 19.121 2.08 33.687 8.89 43.699s17.44 15.352 31.88 16.018c28.95 1.337 44.31-17.232 46.09-55.707 1.78-38.552-11.73-58.494-40.53-59.823-14.43-0.666-25.55 3.709-33.33 13.125-7.79 9.339-12.12 23.568-13 42.688zm303.62-71.504-5.11 110.74c-0.59 12.643-3.95 23.594-10.08 32.852-6.06 9.261-14.55 16.182-25.48 20.761s-23.68 6.532-38.28 5.858c-22.01-1.016-38.84-7.424-50.49-19.224-11.66-11.878-17.03-27.611-16.13-47.2l5.09-110.27 36.18 1.67-4.84 104.77c-0.61 13.189 1.6 22.989 6.62 29.399s13.66 9.898 25.91 10.464c11.87 0.548 20.59-2.139 26.18-8.059 5.68-5.995 8.82-15.626 9.43-28.893l4.83-104.54 36.17 1.67zm100.03 176.13-36.29-1.675 6.51-140.94-46.48-2.145 1.4-30.202 129.24 5.966-1.4 30.202-46.47-2.146-6.51 140.94z" fill="#FCFCFC"/>
<path d="m1074 261.29 256-213" stroke="#FCFCFC" stroke-width="24"/>
<path d="m1275 213.29 267-165" stroke="#FCFCFC" stroke-width="24"/>
<path d="m1330.7 955.7 375.15 106.34" stroke="#FCFCFC" stroke-width="24"/>
<path d="m1156.4 1019.6 255.12 114.96" stroke="#FCFCFC" stroke-width="24"/>
</svg>
