<svg width="360" height="240" viewBox="0 0 360 240" fill="none" xmlns="http://www.w3.org/2000/svg">
<g clip-path="url(#clip0)">
<rect width="360" height="240" fill="#193549"/>
<path d="M0.425386 238.366C4.5589 223.634 9.02665 212.252 13.681 204.597C14.3089 203.565 14.9367 202.214 15.3809 200.939C16.9084 196.556 19.2082 193.116 23.0059 189.535C24.9568 187.695 27.1727 185.972 28.3759 185.359C29.0624 185.01 29.4061 184.95 30.7223 184.95C31.5704 184.95 32.5118 185.003 32.8142 185.068C33.3498 185.182 33.3786 185.159 33.9279 184.171C34.6942 182.794 36.2198 181.269 37.3697 180.731C39.1485 179.899 40.6822 179.768 42.7157 180.274L43.9146 180.572L45.4572 179.076C48.9755 175.664 53.645 173.118 57.9518 172.264C58.8697 172.082 58.9168 172.046 59.4243 171.136C61.2635 167.839 64.1451 165.696 67.0935 165.433L68.169 165.337L68.0713 162.7C67.9385 159.117 67.677 155.285 67.3781 152.542L67.1295 150.259L65.1918 148.448C60.1393 143.728 56.5739 138.324 52.4158 129.085C51.8401 127.806 51.369 126.729 51.369 126.69C51.369 126.652 51.2557 126.362 51.1171 126.045L50.8653 125.469L49.7951 125.882C48.8945 126.23 48.546 126.281 47.5962 126.205C43.0398 125.84 36.9504 120.544 33.6264 114.056C31.7012 110.298 31.1618 107.799 31.0274 102.013C30.9282 97.7432 31.1573 95.2342 31.9384 92.0349C32.9555 87.8691 34.9345 84.45 37.0527 83.1991C37.6075 82.8714 37.6147 82.8522 37.4642 82.0882C37.38 81.6606 37.1075 79.9846 36.8588 78.3637C36.2714 74.5359 36.1989 69.3265 36.69 66.2479C38.1207 57.279 40.9145 49.3443 45.1642 42.18C46.4153 40.0709 49.3367 35.9395 50.953 33.9936C52.7361 31.8468 57.8262 26.9631 60.1075 25.2101C67.2665 19.7092 75.8317 16.0839 84.6431 14.8253C87.1347 14.4694 93.1455 14.338 95.8554 14.5801C105.174 15.4126 113.766 18.7334 121.277 24.4054C123.647 26.1954 128.003 30.4132 129.914 32.7676C138.453 43.2922 143.392 56.1977 144.921 71.9783C145.264 75.5205 145.949 95.203 145.947 101.449C145.945 107.794 145.812 110.74 145.339 114.957C143.676 129.797 137.992 141.332 127.505 151.152C124.979 153.518 122.591 155.405 120.269 156.871L118.843 157.771L118.945 158.59C119.001 159.04 119.047 160.256 119.048 161.292L119.05 163.174L120.806 163.183C122.91 163.194 124.171 163.595 126.232 164.909L127.531 165.738L128.816 165.32C130.628 164.731 132.248 164.506 133.86 164.619C137.329 164.862 138.67 165.784 140.569 169.232C141.015 170.043 141.394 170.725 141.411 170.749C141.428 170.772 141.813 170.635 142.265 170.444C144.275 169.595 146.464 170.577 149.022 173.476C149.544 174.067 149.617 174.099 149.954 173.892C151.3 173.061 153.781 171.868 154.903 171.511C156.584 170.976 157.824 170.951 158.864 171.432C159.959 171.939 160.618 172.732 161.585 174.706C163.046 177.688 163.837 178.341 167.946 179.951C171.161 181.211 173 182.192 173.633 182.985C174.218 183.718 174.736 185.326 174.736 186.413C174.736 187.253 174.35 188.589 173.828 189.552C173.599 189.976 173.598 190.099 173.82 190.602C174.972 193.215 176.372 198.809 177.385 204.843C178.491 211.433 179.073 217.013 179.59 225.964C179.643 226.897 179.753 227.188 180.481 228.325C182.286 231.146 183.827 235.414 184.401 239.185L184.506 239.881H0L0.425386 238.366Z" fill="#FCFCFC"/>
<path d="M0.42598 238.122C4.57058 223.376 9.05033 211.983 13.7172 204.321C14.3467 203.288 14.9762 201.935 15.4215 200.659C16.9531 196.272 19.2592 192.829 23.067 189.244C25.0232 187.402 27.2449 185.678 28.4514 185.065C29.1397 184.715 29.4843 184.655 30.804 184.655C31.6544 184.655 32.5983 184.708 32.9015 184.773C33.4386 184.887 33.4675 184.864 34.0182 183.876C34.7866 182.497 36.3163 180.971 37.4692 180.432C39.2528 179.599 40.7906 179.468 42.8296 179.974L44.0317 180.273L45.5784 178.776C49.1062 175.36 53.7881 172.812 58.1065 171.957C59.0268 171.775 59.0741 171.739 59.583 170.828C61.4271 167.528 64.3164 165.382 67.2726 165.119L68.351 165.023L68.253 162.384C68.1198 158.798 67.8577 154.962 67.558 152.216L67.3087 149.931L65.3659 148.119C60.2998 143.394 56.7248 137.985 52.5557 128.738C51.9784 127.457 51.5061 126.378 51.5061 126.34C51.5061 126.302 51.3924 126.012 51.2535 125.695L51.001 125.118L49.9279 125.531C49.0249 125.879 48.6755 125.931 47.7232 125.854C43.1545 125.489 37.0487 120.188 33.7159 113.694C31.7855 109.933 31.2447 107.431 31.11 101.64C31.0105 97.3655 31.2402 94.8542 32.0234 91.6518C33.0432 87.4821 35.0275 84.0597 37.1513 82.8076C37.7077 82.4796 37.7148 82.4604 37.564 81.6957C37.4795 81.2677 37.2064 79.59 36.957 77.9676C36.3681 74.1362 36.2953 68.9218 36.7877 65.8403C38.2222 56.8628 41.0235 48.9206 45.2846 41.7495C46.539 39.6384 49.4682 35.5031 51.0889 33.5554C52.8768 31.4066 57.9805 26.5182 60.2679 24.7636C67.4461 19.2574 76.0342 15.6287 84.8693 14.3689C87.3675 14.0127 93.3944 13.8811 96.1116 14.1234C105.455 14.9568 114.07 18.2807 121.601 23.9581C123.978 25.7498 128.346 29.9716 130.261 32.3282C138.823 42.8628 143.775 55.7806 145.308 71.5762C145.652 75.1217 146.34 94.8229 146.337 101.075C146.335 107.426 146.202 110.375 145.728 114.595C144.06 129.449 138.361 140.996 127.846 150.825C125.313 153.193 122.919 155.082 120.591 156.549L119.161 157.451L119.263 158.27C119.319 158.721 119.365 159.938 119.366 160.974L119.368 162.859L121.129 162.868C123.239 162.878 124.503 163.28 126.569 164.595L127.872 165.425L129.16 165.006C130.977 164.417 132.601 164.191 134.218 164.304C137.696 164.548 139.041 165.471 140.945 168.922C141.392 169.734 141.772 170.417 141.789 170.44C141.807 170.464 142.192 170.327 142.646 170.135C144.661 169.285 146.855 170.268 149.421 173.17C149.944 173.761 150.017 173.794 150.355 173.586C151.705 172.755 154.192 171.561 155.317 171.203C157.003 170.668 158.246 170.643 159.289 171.125C160.386 171.631 161.047 172.425 162.017 174.402C163.482 177.387 164.275 178.039 168.396 179.651C171.619 180.912 173.463 181.894 174.098 182.688C174.684 183.422 175.203 185.032 175.203 186.119C175.203 186.96 174.816 188.297 174.293 189.261C174.063 189.686 174.062 189.808 174.285 190.312C175.44 192.927 176.844 198.527 177.859 204.567C178.968 211.163 179.552 216.749 180.07 225.708C180.124 226.642 180.234 226.933 180.964 228.071C182.774 230.895 184.318 235.167 184.894 238.941L185 239.638H183.881C183.266 239.638 182.763 239.609 182.763 239.574C182.763 239.228 182.133 236.469 181.801 235.363C181 232.689 179.967 230.437 178.582 228.345C177.916 227.339 177.881 227.219 177.828 225.802C177.415 214.607 175.387 200.71 173.127 193.587C172.811 192.591 171.947 190.295 171.841 190.172C171.815 190.141 171.503 190.436 171.148 190.827C166.75 195.67 161.467 198.768 155.79 199.833C153.122 200.333 149.377 200.333 146.444 199.833C142.707 199.195 139.209 197.841 136.495 195.981C135.757 195.476 135.12 195.062 135.08 195.062C135.04 195.062 134.764 195.523 134.467 196.086C133.079 198.719 130.461 201.476 127.75 203.159C126.233 204.1 122.916 205.708 122.481 205.712C122.219 205.715 122.211 205.634 122.789 208.869C124.136 216.406 124.252 229.474 123.044 237.426C122.692 239.743 122.753 239.638 121.75 239.638C121.012 239.638 120.904 239.598 120.982 239.351C121.18 238.73 121.77 234.345 121.97 232.018C122.237 228.909 122.234 219.892 121.966 216.449C121.669 212.637 121.123 208.683 120.646 206.889C120.14 204.984 120.209 204.826 121.795 204.256C127.069 202.363 131.619 198.571 133.266 194.696L133.665 193.756L132.568 192.627C131.965 192.005 130.731 190.51 129.826 189.305C126.515 184.894 124.672 182.524 124.513 182.47C124.423 182.44 124.35 182.52 124.35 182.646C124.35 183.111 122.286 185.835 121.059 186.99C118.891 189.031 116.535 190.488 113.425 191.711C112.583 192.042 111.872 192.332 111.844 192.356C111.816 192.38 112.208 192.624 112.716 192.897C114.45 193.831 115.734 195.566 116.406 197.882C116.645 198.707 116.705 199.585 116.705 202.269V205.625L117.331 206.272C118.166 207.135 118.948 208.39 119.39 209.577C120.753 213.24 119.055 216.704 114.967 218.601C114.058 219.023 113.404 219.423 113.443 219.533C113.611 220.007 114.048 224.974 114.226 228.433C114.411 232.029 114.246 238.145 113.933 239.269C113.772 239.847 112.457 239.771 110.384 239.064C108.427 238.397 108.373 238.39 108.373 238.805C108.373 239.486 108.189 239.638 107.366 239.638H106.569L106.626 235.828C106.686 231.85 106.466 226.964 106.044 222.922C105.908 221.615 105.796 220.499 105.796 220.442C105.796 220.384 105.351 220.288 104.808 220.228C102.587 219.981 100.805 219.27 99.6514 218.169C97.1548 215.788 97.0614 210.77 99.4508 207.393L99.9878 206.634L99.6395 205.477C98.0511 200.204 98.3205 196.567 100.464 194.35L101.176 193.613L100.264 193.527C99.7631 193.48 98.4178 193.364 97.2747 193.27C93.1993 192.934 88.9621 192.073 85.0883 190.796C82.4941 189.94 78.0252 187.869 75.9205 186.546L74.3068 185.532L74.4172 186.159C74.9422 189.138 75.0757 190.9 75.0014 193.874L74.9225 197.028H76.0667C76.821 197.028 77.3245 197.112 77.5444 197.274C77.8745 197.518 77.8745 197.523 77.5444 197.766C77.3179 197.933 76.809 198.012 75.9585 198.012C74.7758 198.012 74.7002 198.034 74.6014 198.41C74.4249 199.08 74.6572 199.416 76.36 200.954L78.0026 202.437H79.9261C81.373 202.437 81.9321 202.497 82.183 202.682C82.5131 202.926 82.5131 202.931 82.183 203.174C81.9589 203.339 81.4523 203.42 80.639 203.42H79.4285L80.3712 204.071C81.7365 205.013 85.1541 206.597 87.241 207.254C89.5645 207.986 91.1324 208.292 93.6836 208.512C96.1454 208.724 96.5467 208.875 96.711 209.65C97.2332 212.112 98.2844 221.24 98.5737 225.824C98.7675 228.896 98.8175 238.3 98.6443 239.126C98.5413 239.617 98.5022 239.638 97.681 239.638C96.9513 239.638 96.8414 239.597 96.9355 239.364C97.1224 238.899 97.0721 228.576 96.8685 225.626C96.5502 221.013 95.3201 210.58 95.066 210.338C95.0345 210.308 94.208 210.209 93.2294 210.119C87.5637 209.595 82.0866 207.519 77.6668 204.219L76.5967 203.42H75.2515C74.3184 203.42 73.804 203.344 73.5727 203.174C73.2426 202.931 73.2426 202.926 73.5727 202.682C73.7569 202.547 74.2557 202.437 74.6869 202.437H75.4676L74.7556 201.757L74.0436 201.078L73.5964 201.414C71.3954 203.065 52.0934 208.992 48.9162 208.992C48.5122 208.992 47.7895 208.67 46.4638 207.899C45.43 207.298 43.2617 206.173 41.6455 205.4L38.7069 203.993L29.4088 203.948L20.1107 203.903L19.745 205.294C19.5438 206.059 19.3792 206.762 19.3792 206.855C19.3792 206.971 22.712 207.025 29.7591 207.025C35.4681 207.025 40.2614 207.07 40.4108 207.125C40.7623 207.253 40.7623 207.78 40.4108 207.909C40.2614 207.964 35.4014 208.008 29.6109 208.008H19.0826L18.7889 209.442C18.6274 210.231 18.4538 211.042 18.4032 211.245L18.3111 211.614H29.7405C36.0267 211.614 41.2922 211.659 41.4416 211.713C41.5911 211.768 41.7134 211.944 41.7134 212.105C41.7134 212.266 41.5911 212.443 41.4416 212.498C41.2922 212.552 35.9964 212.597 29.6732 212.597C23.3501 212.597 18.1765 212.615 18.1764 212.638C18.1762 212.661 18.0604 213.306 17.9189 214.072C17.7774 214.838 17.6616 215.668 17.6614 215.916L17.6613 216.366H29.7592C36.4131 216.366 41.9794 216.411 42.1289 216.466C42.2784 216.521 42.4007 216.697 42.4007 216.858C42.4007 217.019 42.2784 217.195 42.1289 217.25C41.9794 217.305 36.379 217.35 29.6834 217.35C22.9879 217.35 17.4753 217.405 17.4332 217.473C17.3912 217.54 17.3018 218.056 17.2346 218.618L17.1125 219.641L24.7314 219.683L32.3503 219.726V220.136V220.545L24.6622 220.588C20.4337 220.612 16.9718 220.685 16.969 220.752C16.9662 220.819 16.8518 221.906 16.7148 223.167C16.5779 224.429 16.4642 225.553 16.4622 225.665C16.4594 225.825 18.6995 225.878 26.8097 225.911L37.1607 225.953V226.363V226.773L26.8038 226.815C18.7361 226.848 16.4316 226.902 16.3781 227.061C16.3403 227.173 16.2813 227.762 16.2471 228.369L16.1849 229.474L25.3843 229.517L34.5837 229.559V229.969V230.378L25.3741 230.421L16.1645 230.463L16.0551 231.568C15.9949 232.176 15.9451 232.839 15.9445 233.041L15.9433 233.41H27.7835C34.2956 233.41 39.746 233.455 39.8955 233.51C40.045 233.564 40.1672 233.741 40.1672 233.902C40.1672 234.063 40.045 234.239 39.8955 234.294C39.746 234.349 34.2956 234.393 27.7835 234.393H15.9433V235.028C15.9433 235.378 15.8951 235.893 15.8362 236.174L15.7291 236.685L24.3833 236.727L33.0375 236.77V237.179V237.589L24.4045 237.632L15.7715 237.674V238.656V239.638H14.5688H13.3662V238.654V237.671L8.34105 237.674C5.57719 237.675 3.23045 237.73 3.12605 237.796C3.02166 237.863 2.84 238.304 2.72237 238.777L2.50848 239.638H1.25424H0L0.42598 238.122ZM112.455 236.686L112.5 235.623L110.737 234.933C109.767 234.554 108.838 234.196 108.673 234.137C108.402 234.041 108.372 234.162 108.372 235.346V236.661L110.133 237.237C111.102 237.554 112.01 237.799 112.152 237.781C112.346 237.758 112.421 237.486 112.455 236.686ZM13.538 235.541V234.394H8.73414H3.93033L3.75433 235.017C3.65753 235.36 3.52892 235.876 3.46853 236.164L3.35874 236.688H8.44835H13.538V235.541ZM112.667 232.95V231.998L110.567 231.16C109.412 230.7 108.427 230.346 108.377 230.376C108.327 230.405 108.312 230.828 108.343 231.315L108.4 232.202L110.405 233.036C111.508 233.494 112.468 233.877 112.539 233.886C112.609 233.895 112.667 233.474 112.667 232.95ZM13.5995 232.796C13.6581 232.458 13.7068 231.794 13.7079 231.321L13.7098 230.46H9.43146H5.15316L4.78277 231.649C4.57905 232.302 4.37303 232.966 4.32495 233.124C4.24322 233.392 4.53913 233.41 8.86527 233.41H13.493L13.5995 232.796ZM112.561 228.699C112.502 227.91 112.366 227.183 112.26 227.083C112.086 226.921 108.342 225.38 108.12 225.38C107.997 225.38 108.007 226.577 108.138 227.617L108.244 228.461L110.241 229.285C111.339 229.738 112.335 230.114 112.454 230.121C112.619 230.13 112.644 229.798 112.561 228.699ZM13.7898 229.272C13.8279 229.16 13.8871 228.57 13.9214 227.961L13.9838 226.855H10.1686H6.35336L5.92437 228.072C5.68843 228.742 5.5397 229.332 5.59387 229.383C5.64805 229.435 7.4987 229.477 9.70645 229.477C12.7662 229.477 13.737 229.428 13.7898 229.272ZM14.0569 225.831C14.0589 225.808 14.1726 224.757 14.3096 223.495C14.4465 222.234 14.5609 221.07 14.5637 220.91C14.5684 220.641 14.3443 220.623 11.5417 220.665L8.51456 220.709L7.59208 223.25C7.08471 224.647 6.66876 225.808 6.66775 225.831C6.66672 225.853 8.32809 225.872 10.3596 225.872C12.3912 225.872 14.055 225.853 14.0569 225.831ZM112.198 223.501L112.066 222.523L109.919 221.905C108.737 221.564 107.752 221.285 107.728 221.284C107.573 221.279 107.726 223.076 107.9 223.299C108.018 223.45 109.042 223.94 110.176 224.387C112.537 225.317 112.449 225.355 112.198 223.501ZM112.01 220.464C111.974 220.103 111.856 219.813 111.747 219.818C111.639 219.824 111.009 219.92 110.348 220.031L109.145 220.235L110.434 220.664C111.143 220.9 111.802 221.099 111.899 221.106C112.002 221.114 112.048 220.848 112.01 220.464ZM14.8021 219.03C14.8607 218.692 14.9094 218.178 14.9105 217.889L14.9124 217.364L13.5809 217.316C12.2886 217.269 12.2494 217.256 12.2494 216.858C12.2494 216.46 12.2902 216.446 13.7 216.367L15.1505 216.285L15.4517 214.482C15.6412 213.348 15.6927 212.621 15.5904 212.523C15.3451 212.289 15.3952 211.811 15.6811 211.659C15.8814 211.552 16.6199 208.803 16.6288 208.131C16.6296 208.064 16.0968 208.009 15.4447 208.009C14.289 208.009 14.2508 208.022 13.9308 208.541C13.098 209.892 10.6641 215.204 9.35058 218.538L8.91472 219.644H11.8052H14.6956L14.8021 219.03ZM109.335 218.495C113.415 218.007 116.503 216.389 117.67 214.126C118.004 213.48 118.079 213.078 118.079 211.933C118.079 210.641 118.029 210.436 117.437 209.311C117.084 208.64 116.415 207.694 115.95 207.21C115.485 206.726 115.065 206.136 115.016 205.899C114.967 205.662 115 204.664 115.089 203.681C115.237 202.048 115.072 198.955 114.801 198.281C114.727 198.099 114.478 198.1 113.303 198.285C111.065 198.639 111.179 198.586 111.053 199.335C110.71 201.379 109.104 202.674 106.912 202.674C105.187 202.674 103.943 201.972 103.19 200.577C102.88 200.001 102.803 199.954 102.304 200.04C102.004 200.091 101.426 200.182 101.021 200.242L100.284 200.35L100.388 201.106C100.575 202.459 100.835 203.638 101.274 205.111C101.517 205.931 101.658 206.728 101.599 206.953C101.541 207.172 101.191 207.798 100.82 208.345C99.7534 209.92 99.5257 210.74 99.5257 213.007C99.5257 214.655 99.5838 215.093 99.8838 215.713C100.554 217.096 101.894 218.043 103.734 218.433C104.915 218.684 107.519 218.713 109.335 218.495ZM106.826 213.877C106.421 213.615 106.15 213.264 105.995 212.8C105.789 212.185 105.799 212.045 106.08 211.504C106.509 210.682 107.162 210.258 107.999 210.258C109.849 210.258 110.754 212.428 109.414 213.652C108.701 214.304 107.632 214.397 106.826 213.877ZM17.1977 205.837C17.3592 205.184 17.5385 204.483 17.5963 204.28C17.6882 203.957 17.637 203.911 17.184 203.911C16.7181 203.911 16.5798 204.05 15.7896 205.307C15.3071 206.074 14.9124 206.775 14.9124 206.864C14.9124 206.952 15.3605 207.025 15.9082 207.025H16.9041L17.1977 205.837ZM50.7749 206.517C56.176 205.4 66.5027 202.235 70.9299 200.339L72.0568 199.856L72.2321 198.934L72.4073 198.012H71.2668C70.5158 198.012 70.0124 197.928 69.7928 197.766C69.4627 197.523 69.4627 197.518 69.7928 197.274C70.0185 197.108 70.5268 197.028 71.3659 197.028H72.6056L72.7315 195.431C72.9875 192.181 72.648 188.172 71.8502 185.024L71.5698 183.918H67.8087H64.0476V185.147V186.376H65.6656C67.4952 186.376 67.8272 186.452 67.8272 186.868C67.8272 187.281 67.4947 187.359 65.7266 187.359H64.1695L65.0187 188.22C66.9821 190.209 67.6554 191.639 67.6554 193.821C67.6554 195.588 67.4083 196.704 66.7558 197.885C66.1079 199.058 65.4092 199.501 62.4192 200.635C58.0639 202.287 55.4888 202.68 53.0523 202.063C51.4813 201.665 48.6489 200.244 47.7205 199.386L46.9415 198.667L38.7869 198.673L30.6322 198.679L33.1233 199.551C35.6201 200.425 39.671 202.025 40.8819 202.614C41.4754 202.903 41.9389 202.928 46.5888 202.928C49.3723 202.928 51.772 202.973 51.9215 203.028C52.273 203.156 52.273 203.683 51.9215 203.812C51.772 203.867 49.8604 203.911 47.6734 203.911H43.697L45.497 204.869C46.4869 205.396 47.6793 206.06 48.1466 206.344C48.6139 206.629 49.0212 206.861 49.0516 206.861C49.082 206.861 49.8575 206.706 50.7749 206.517ZM18.1869 202.314C18.4414 201.564 19.3058 199.891 19.7446 199.297C20.1843 198.703 20.1638 198.667 19.3836 198.667C18.5843 198.667 18.5092 198.771 17.6802 201.016C17.0338 202.766 17.0237 202.928 17.562 202.928C17.8912 202.928 18.0217 202.8 18.1869 202.314ZM35.023 202.591C33.7292 202.031 28.8464 200.473 26.798 199.967C25.7286 199.703 24.4126 199.487 23.8736 199.487C23.0371 199.487 22.8015 199.559 22.2652 199.981C21.6776 200.443 20.5818 202.218 20.5818 202.709C20.5818 202.889 21.9418 202.928 28.184 202.925L35.7862 202.921L35.023 202.591ZM108.159 200.799C108.467 200.619 108.873 200.233 109.06 199.939C109.75 198.86 109.339 197.386 108.159 196.7C107.029 196.042 105.483 196.434 104.764 197.56C104.074 198.638 104.485 200.112 105.665 200.799C105.977 200.98 106.529 201.124 106.912 201.124C107.295 201.124 107.847 200.98 108.159 200.799ZM102.318 198.391C102.556 198.337 102.748 198.136 102.814 197.871C103.101 196.73 103.913 195.738 105.022 195.175C105.987 194.685 107.84 194.687 108.818 195.18C109.492 195.519 110.488 196.446 110.637 196.871C110.692 197.03 110.963 197.033 111.902 196.883C114.199 196.517 114.07 196.572 113.796 196.074C113.014 194.653 111.051 193.624 108.839 193.475C104.073 193.154 100.98 194.868 100.396 198.153L100.298 198.704L101.114 198.592C101.563 198.53 102.104 198.44 102.318 198.391ZM155.3 197.782C161.482 196.653 167.353 192.704 171.441 186.925C172.046 186.07 172.357 185.45 172.411 184.991C172.484 184.368 172.436 184.268 171.79 183.712C170.973 183.007 169.827 182.442 167.214 181.454C163.139 179.914 161.298 178.364 160.079 175.448C159.525 174.122 158.808 173.166 158.224 172.972C157.252 172.649 155.504 173.202 152.741 174.706C151.961 175.131 151.324 175.532 151.323 175.598C151.323 175.663 151.582 176.106 151.9 176.581C152.742 177.84 153.212 178.774 153.212 179.187C153.212 180.082 152.025 180.466 151.38 179.78C151.189 179.577 150.756 178.929 150.417 178.339C149.093 176.038 146.921 173.46 145.452 172.445C144.555 171.824 143.649 171.782 143.105 172.335L142.73 172.715L143.967 176.022L145.203 179.329H145.901C146.818 179.329 149.509 180.024 150.982 180.641C151.626 180.911 152.202 181.131 152.262 181.131C152.503 181.131 154.372 182.351 154.987 182.91C155.499 183.376 156.333 184.362 156.922 185.199C156.942 185.227 157.575 184.815 158.329 184.281C160.109 183.022 161.852 182.099 162.638 181.999C163.414 181.899 163.919 182.338 163.834 183.037C163.775 183.521 163.545 183.698 161.66 184.712C161.099 185.014 160.109 185.642 159.46 186.108L158.281 186.954L158.339 188.181C158.492 191.366 157.308 193.619 154.965 194.608C154.014 195.009 151.392 195.382 149.487 195.386C148.073 195.389 145.929 195.05 145.284 194.721C145.016 194.584 144.869 194.602 144.638 194.802C144.236 195.149 143.538 195.13 143.191 194.764C143.036 194.601 142.569 193.661 142.153 192.675C139.585 186.588 138.788 184.882 136.514 180.601C132.231 172.543 127.671 167.142 123.728 165.46C122.592 164.976 120.759 164.774 120.012 165.051L119.539 165.227V169.221V173.216L120.743 174.413C122.772 176.431 124.054 178.042 131.345 187.732C134.44 191.845 136.817 193.981 140.098 195.598C142.771 196.914 145.406 197.627 149.261 198.076C150.349 198.202 153.96 198.027 155.3 197.782ZM22.2139 197.443C23.1 197.138 24.5208 197.135 25.8218 197.435C26.6586 197.628 28.7075 197.673 36.7082 197.678L46.5639 197.684L46.4603 197.315C46.4033 197.112 46.3557 196.522 46.3544 196.004L46.352 195.062H33.5653H20.7785L20.1863 196.004C19.0416 197.826 19.0268 197.684 20.361 197.681C21.0021 197.68 21.836 197.573 22.2139 197.443ZM46.6097 193.694C46.6097 193.483 46.0146 193.046 44.6551 192.26L42.7006 191.129H33.4628H24.225L23.1423 192.317C22.5468 192.97 21.9466 193.634 21.8085 193.793C21.5693 194.067 22.1524 194.079 34.0835 194.039C46.1385 193.998 46.6097 193.985 46.6097 193.694ZM108.544 191.486C110.635 191.018 111.97 190.561 114.192 189.555C118.262 187.712 121.277 185.032 122.82 181.887L123.357 180.792L122.912 180.179C122.113 179.08 119.87 176.543 119.697 176.543C119.591 176.543 119.546 177.457 119.577 178.975C119.63 181.648 119.539 181.951 118.68 181.951C117.71 181.951 117.745 182.333 117.616 170.338C117.551 164.248 117.454 159.103 117.401 158.903C117.307 158.546 117.27 158.555 115.495 159.354C110.112 161.776 105.237 162.494 100.052 161.628C94.6054 160.718 88.6569 159.402 84.5358 158.195L82.2747 157.533H76.1594H70.0442L70.0954 158.557L70.1465 159.581L76.7095 159.663C81.8209 159.727 83.3219 159.793 83.4957 159.961C83.679 160.138 83.6593 160.219 83.3853 160.412C83.1099 160.606 81.9361 160.646 76.6421 160.646H70.2324V161.466V162.285H80.3358C89.0539 162.285 90.485 162.319 90.7728 162.531C91.1029 162.774 91.1029 162.779 90.7728 163.023C90.485 163.235 89.0539 163.269 80.3358 163.269H70.2324V164.334V165.399H83.4283C94.8952 165.399 96.6678 165.431 96.9576 165.645C97.2877 165.888 97.2877 165.893 96.9576 166.136C96.6679 166.35 94.9047 166.382 83.5142 166.382H70.4042V167.448V168.513H78.7896C85.9806 168.513 87.2226 168.548 87.5086 168.759C87.8387 169.002 87.8387 169.007 87.5086 169.25C87.2226 169.461 85.9806 169.496 78.7896 169.496H70.4042L70.4023 169.947C70.4006 170.195 70.3525 170.674 70.2939 171.012L70.1875 171.627H73.2695C75.7464 171.627 76.4171 171.675 76.6851 171.872C77.0152 172.116 77.0152 172.121 76.6851 172.364C76.4165 172.562 75.7393 172.61 73.2061 172.61H70.0606V173.593V174.576H74.4087C78.0109 174.576 78.814 174.619 79.0903 174.822C79.4204 175.066 79.4204 175.071 79.0903 175.314C78.8153 175.517 78.0396 175.56 74.6664 175.56C72.4167 175.56 70.576 175.591 70.576 175.63C70.576 175.668 70.9202 176.424 71.3409 177.31L72.1059 178.919L74.6831 179.001C77.4265 179.088 78.0608 179.265 77.3723 179.75C77.1237 179.925 76.4786 179.985 74.8382 179.985C73.1865 179.985 72.6403 180.036 72.6484 180.189C72.6543 180.302 72.8669 180.947 73.1209 181.623L73.5826 182.853L74.6134 182.935C76.1513 183.058 76.5338 183.421 75.5442 183.818L75.0147 184.031L76.7038 185.077C82.1633 188.461 88.8794 190.695 96.0885 191.526C99.394 191.907 99.5611 191.914 103.476 191.861C106.343 191.822 107.384 191.745 108.544 191.486ZM48.4995 191.456C48.8065 191.133 48.7996 191.129 47.9678 191.13L47.1251 191.131L47.6405 191.457C47.924 191.636 48.1633 191.783 48.1723 191.784C48.1812 191.784 48.3285 191.637 48.4995 191.456ZM39.3941 189.454C38.6381 189.082 37.2079 188.46 36.2157 188.07L34.4118 187.362L31.5961 187.361L28.7804 187.359L27.6447 188.253C27.02 188.745 26.2384 189.37 25.9077 189.642L25.3064 190.136L33.0374 190.132L40.7685 190.129L39.3941 189.454ZM50.19 189.695C50.5316 189.447 50.9802 189.128 51.187 188.987L51.563 188.73L51.1593 188.044L50.7556 187.359H45.5065H40.2574L42.8323 188.745L45.4071 190.13L47.4881 190.138C49.499 190.145 49.5899 190.13 50.19 189.695ZM54.3408 187.523C54.6164 187.41 54.5569 187.38 54.0401 187.371C53.6858 187.364 53.3959 187.433 53.3959 187.523C53.3959 187.719 53.8634 187.719 54.3408 187.523ZM49.7469 185.913C49.486 185.254 49.7013 184.6 50.2202 184.476C50.9765 184.295 51.439 184.538 52.1133 185.472L52.7658 186.376H55.4936H58.2214L58.1709 185.188L58.1204 184L47.3479 183.958L36.5753 183.915L36.117 184.661C35.8649 185.072 35.6873 185.434 35.7224 185.467C35.7575 185.499 36.2501 185.711 36.817 185.937L37.8479 186.347L43.8889 186.362L49.93 186.376L49.7469 185.913ZM61.8141 185.065V183.918H61.1269H60.4397V184.956C60.4397 185.527 60.4913 186.043 60.5543 186.103C60.6173 186.163 60.9265 186.212 61.2415 186.212H61.8141V185.065ZM44.2904 182.86C44.2904 182.677 42.5639 182.085 41.5469 181.92C40.6093 181.767 40.2659 181.782 39.4575 182.007C38.9254 182.155 38.3069 182.422 38.083 182.6L37.6761 182.924L40.9832 182.929C42.8022 182.932 44.2904 182.901 44.2904 182.86ZM57.862 182.566C57.8617 182.363 57.7194 181.718 57.5458 181.132L57.2302 180.067L52.3439 180.023L47.4576 179.98L46.8013 180.621L46.1449 181.262L46.5062 181.607C46.7128 181.804 46.8674 182.162 46.8674 182.443V182.934H52.3651H57.8627L57.862 182.566ZM61.5655 181.91C61.3306 179.926 61.366 179.985 60.4067 179.985C59.6778 179.985 59.5705 180.025 59.6487 180.271C59.6989 180.429 59.8207 180.927 59.9193 181.378C60.2842 183.044 60.2095 182.934 60.9806 182.934H61.6867L61.5655 181.91ZM71.096 182.484C71.0172 182.236 70.7753 181.572 70.5583 181.009L70.1639 179.985H66.8294H63.4949L63.5911 180.353C63.6439 180.556 63.7403 181.22 63.8052 181.828L63.9232 182.934H67.5812H71.2392L71.096 182.484ZM139.906 180.983C139.996 180.902 140.707 180.596 141.487 180.305C142.267 180.013 142.904 179.7 142.904 179.61C142.904 179.384 141.005 174.338 140.239 172.53C139.24 170.172 138.25 168.494 137.324 167.59C136.538 166.823 136.361 166.732 135.331 166.565C134.709 166.465 133.797 166.382 133.303 166.382C132.3 166.382 130.075 166.82 129.928 167.046C129.876 167.126 130.362 167.776 131.009 168.49C133.264 170.979 135.795 174.695 138.103 178.902C139.266 181.021 139.53 181.326 139.906 180.983ZM60.9551 178.839C60.9551 178.75 60.7196 177.976 60.4317 177.119L59.9082 175.56H56.9899C54.1873 175.56 54.0361 175.577 53.1754 175.988C52.2076 176.45 49.8498 177.924 49.0149 178.589L48.4995 179H54.7273C58.715 179 60.9551 178.943 60.9551 178.839ZM69.2126 177.977C68.9431 177.414 68.5404 176.64 68.3178 176.258L67.9131 175.562L65.1029 175.561C62.4966 175.559 62.3012 175.58 62.4088 175.846C62.4726 176.004 62.6789 176.686 62.8672 177.362C63.0556 178.038 63.2411 178.683 63.2796 178.796C63.3322 178.95 64.1367 179.001 66.5261 179.001H69.7026L69.2126 177.977ZM59.2398 174.253C59.043 173.903 58.5547 173.926 57.3473 174.345C56.7679 174.546 56.7946 174.554 58.0835 174.565C59.3629 174.576 59.4131 174.562 59.2398 174.253ZM67.14 174.492C67.14 174.446 66.9007 174.003 66.6082 173.509L66.0764 172.61H63.6017C61.8144 172.61 61.1269 172.664 61.1269 172.803C61.1269 172.91 61.2953 173.352 61.5012 173.787L61.8754 174.576H64.5077C65.9555 174.576 67.14 174.538 67.14 174.492ZM67.2511 171.042C67.8245 170.594 67.999 170.345 67.999 169.977C67.999 169.539 67.9467 169.496 67.4117 169.496C66.6121 169.496 66.281 169.352 66.281 169.004C66.281 168.657 66.6121 168.513 67.4117 168.513C67.9855 168.513 67.999 168.497 67.999 167.835V167.157L67.1829 167.263C65.8364 167.438 64.693 168.086 63.4128 169.401C62.7698 170.061 62.104 170.832 61.9333 171.114L61.6229 171.627H64.0631H66.5033L67.2511 171.042ZM107.685 159.979C110.62 159.568 115.706 157.496 119.196 155.29C124.354 152.029 129.901 146.785 133.689 141.59C139.386 133.775 142.621 125.221 143.836 114.759C144.549 108.624 144.675 99.4095 144.205 87.9644C144.061 84.4492 143.899 80.3931 143.847 78.9509C143.374 65.9989 141.501 56.828 137.458 47.6684C129.54 29.7283 115.632 18.5992 97.9783 16.077C95.5357 15.728 87.3588 15.7813 84.7496 16.1632C81.9743 16.5694 78.6924 17.3745 75.9878 18.3125C72.2608 19.6052 72.0635 19.5294 79.1762 19.5368C84.489 19.5424 85.5084 19.5813 85.7905 19.7892C86.1207 20.0326 86.1207 20.0375 85.7905 20.2809C85.5058 20.4907 84.364 20.5267 77.9845 20.5267H70.512L68.783 21.4555C67.8321 21.9664 66.7849 22.5564 66.4559 22.7666L65.8576 23.1488H76.1728C85.079 23.1488 86.5334 23.1824 86.8213 23.3947C87.1515 23.638 87.1515 23.643 86.8213 23.8863C86.5328 24.099 84.9891 24.1321 75.3642 24.1321H64.2405L62.8985 25.1108C62.1604 25.649 61.3632 26.2374 61.1269 26.4182L60.6974 26.747L72.1323 26.7506C82.0299 26.7537 83.6121 26.7873 83.9007 27.0001C84.2308 27.2434 84.2308 27.2484 83.9007 27.4917C83.6116 27.7048 81.966 27.7377 71.531 27.7385L59.4948 27.7395L57.7768 29.2873L56.0588 30.8351L68.8681 30.8432C79.9826 30.8502 81.7215 30.8838 82.0109 31.0971C82.341 31.3404 82.341 31.3454 82.0109 31.5888C81.7211 31.8024 79.9399 31.8346 68.4047 31.8346H55.1319L53.9031 33.1866C53.2273 33.9302 52.5222 34.7414 52.3362 34.9893L51.9981 35.44H67.9545C81.8752 35.44 83.9534 35.4714 84.2443 35.6858C84.5744 35.9292 84.5744 35.9341 84.2443 36.1775C83.9532 36.392 81.8293 36.4233 67.5421 36.4233H51.1733L50.4998 37.293C50.1293 37.7713 49.5447 38.5826 49.2005 39.0957L48.5749 40.0287H65.1262C79.5757 40.0287 81.7198 40.06 82.0109 40.2746C82.341 40.5179 82.341 40.5229 82.0109 40.7662C81.7197 40.9809 79.5391 41.012 64.7976 41.012H47.9177L46.963 42.6203C46.438 43.5049 46.0084 44.2792 46.0084 44.3411C46.0084 44.403 53.8407 44.4536 63.4134 44.4536C78.6218 44.4536 80.8605 44.4846 81.1519 44.6994C81.482 44.9427 81.482 44.9477 81.1519 45.1911C80.8604 45.4059 78.5865 45.4369 63.0956 45.4369H45.3727L44.4021 47.3941C43.8682 48.4705 43.4314 49.4293 43.4314 49.5246C43.4314 49.6454 49.9187 49.6978 64.8737 49.6978C83.2161 49.6978 86.3643 49.7318 86.6496 49.9326C87.5905 50.5951 87.5862 50.5952 64.6965 50.6811L42.8566 50.7631L42.1202 52.6477C41.7152 53.6843 41.3806 54.5877 41.3768 54.6553C41.3729 54.7229 51.8306 54.7782 64.616 54.7782C85.0166 54.7782 87.9031 54.8083 88.1958 55.024C88.5259 55.2674 88.5259 55.2723 88.1958 55.5157C87.9031 55.7314 84.9983 55.7615 64.4515 55.7615H41.0407L40.7026 56.8677C40.2531 58.3385 39.9975 59.2577 39.9963 59.4079C39.9958 59.4755 50.7268 59.5308 63.8429 59.5308C84.778 59.5308 87.7312 59.5608 88.024 59.7766C88.3541 60.02 88.3541 60.0249 88.024 60.2683C87.7312 60.4841 84.7614 60.5141 63.6935 60.5141H39.6965L39.49 61.5384C39.3764 62.1017 39.242 62.7286 39.1913 62.9314L39.0991 63.3001H63.4807C84.8905 63.3001 87.9029 63.3301 88.1958 63.5459C88.5259 63.7893 88.5259 63.7942 88.1958 64.0376C87.9029 64.2534 84.8851 64.2834 63.432 64.2834H39.0018L38.9078 64.6521C38.8561 64.8549 38.7604 65.4818 38.6952 66.0451L38.5766 67.0694H59.8693C78.5334 67.0694 81.2032 67.0997 81.4955 67.3152C81.8256 67.5586 81.8256 67.5635 81.4955 67.8069C81.2032 68.0224 78.5287 68.0527 59.8271 68.0527H38.4921L38.3847 68.5648C38.3257 68.8465 38.2774 69.3259 38.2774 69.6301V70.1832H55.5965C70.7285 70.1832 72.9577 70.2142 73.249 70.429C73.5792 70.6723 73.5792 70.6773 73.249 70.9206C72.9577 71.1354 70.7285 71.1665 55.5965 71.1665H38.2774L38.2786 71.9449C38.2792 72.373 38.3291 73.2211 38.3893 73.8296L38.4988 74.9358H55.5354C70.4163 74.9358 72.6141 74.9669 72.9054 75.1816C73.2355 75.4249 73.2355 75.4299 72.9054 75.6732C72.6142 75.8879 70.423 75.9191 55.5964 75.9191C45.2768 75.9191 38.621 75.9787 38.621 76.0711C38.621 76.3225 38.9659 78.7593 39.0576 79.1557L39.1429 79.5245L54.8165 79.5267C63.437 79.528 70.6641 79.5734 70.8767 79.6278C71.3213 79.7414 71.3975 80.2597 70.9915 80.4083C70.842 80.463 63.6424 80.5078 54.9925 80.5078H39.2652L39.3726 81.0199C39.4317 81.3016 39.48 81.6251 39.48 81.7388C39.48 81.8595 39.8166 81.9937 40.2893 82.0613C41.6 82.2488 42.8264 82.7655 44.2132 83.7146L45.5139 84.6048H58.957C70.6437 84.6048 72.4437 84.637 72.7336 84.8507C73.0638 85.094 73.0638 85.099 72.7336 85.3423C72.444 85.5558 70.699 85.5881 59.4546 85.5881H46.509L47.4341 86.6943C47.9429 87.3028 48.6071 88.1509 48.9101 88.579L49.461 89.3574H64.2807C77.191 89.3574 79.1434 89.3891 79.4339 89.6033C79.764 89.8466 79.764 89.8516 79.4339 90.0949C79.1435 90.309 77.2283 90.3407 64.616 90.3407C56.6496 90.3407 50.1317 90.3813 50.1317 90.4308C50.1317 90.4804 50.2546 90.7477 50.4049 91.025C50.572 91.3333 50.655 91.8077 50.6184 92.246L50.5587 92.9629H64.4859C76.603 92.9629 78.4566 92.9948 78.7467 93.2087C79.0768 93.452 79.0768 93.457 78.7467 93.7003C78.4553 93.9151 76.2166 93.9462 61.0082 93.9462C51.4354 93.9462 43.6032 93.9837 43.6032 94.0297C43.6032 94.0756 43.9581 94.7393 44.3919 95.5046L45.1806 96.896H63.429C79.3871 96.896 81.7193 96.9269 82.0109 97.1419C82.341 97.3852 82.341 97.3902 82.0109 97.6335C81.7193 97.8485 79.4124 97.8793 63.6568 97.8793C49.3103 97.8793 45.6532 97.9211 45.7197 98.0842C45.7657 98.1969 46.1394 99.2638 46.5501 100.455L47.2969 102.621L66.0334 102.627C82.4195 102.631 84.8117 102.663 85.1033 102.878C85.4335 103.121 85.4335 103.126 85.1033 103.369C84.8116 103.584 82.4396 103.615 66.1622 103.615L47.5546 103.615V104.372C47.5546 105.029 47.469 105.21 46.9056 105.748C46.2064 106.415 44.8933 106.893 43.7606 106.893C43.1981 106.893 43.0988 106.955 42.9328 107.409C42.8291 107.693 42.7442 107.951 42.7442 107.983C42.7442 108.014 51.6974 108.04 62.6403 108.04C80.063 108.04 82.5779 108.071 82.8699 108.286C83.2 108.529 83.2 108.534 82.8699 108.778C82.5779 108.993 80.0439 109.023 62.4685 109.023H42.4006V110.31C42.4006 111.748 42.5958 112.459 43.2063 113.244C43.8101 114.019 44.4761 114.292 45.6252 114.235C46.8213 114.175 47.0587 113.871 46.8487 112.67C46.4605 110.448 46.4609 110.231 46.8551 109.855C47.2596 109.469 47.8176 109.511 48.1857 109.955C48.4735 110.303 48.9902 113.197 48.8683 113.779L48.7658 114.268H69.6885C88.0236 114.268 90.6523 114.298 90.9446 114.513C91.2747 114.757 91.2747 114.762 90.9446 115.005C90.6523 115.221 88.0028 115.251 69.5009 115.251H48.3907L47.8438 115.645C46.5764 116.557 45.1273 116.587 43.3642 115.738C42.3643 115.257 42.3183 115.251 39.5353 115.251H36.7183L37.4223 116.24C37.8095 116.784 38.3615 117.484 38.6491 117.797L39.172 118.365H62.9158C83.7587 118.365 86.7004 118.395 86.9932 118.61C87.3233 118.854 87.3233 118.859 86.9932 119.102C86.7005 119.318 83.8103 119.348 63.3797 119.348H40.0998L40.6918 119.941C41.0175 120.267 41.7324 120.894 42.2807 121.334L43.2774 122.134H64.4532C83.0133 122.134 85.67 122.164 85.9623 122.38C86.2925 122.623 86.2925 122.628 85.9623 122.871C85.6711 123.086 83.4997 123.117 68.831 123.117H52.0331L52.3497 123.65C52.5239 123.943 52.8814 124.717 53.1442 125.371L53.622 126.559H71.8588C87.4188 126.559 90.1446 126.593 90.4292 126.794C91.3596 127.449 91.1737 127.456 72.2067 127.542L54.0973 127.624L54.7405 129.017L55.3838 130.41L69.7575 130.492C81.3325 130.558 84.1747 130.616 84.3545 130.79C84.538 130.967 84.5184 131.048 84.2443 131.241C83.9613 131.44 81.7973 131.475 69.9419 131.475C62.2589 131.475 55.9729 131.514 55.9729 131.561C55.9729 131.608 56.283 132.235 56.662 132.954L57.3511 134.261H72.6067C85.5789 134.261 87.9122 134.296 88.1958 134.496C88.4698 134.689 88.4894 134.769 88.3059 134.947C88.1259 135.121 85.1572 135.179 72.9747 135.245L57.8667 135.327L58.7017 136.72L59.5366 138.113L72.3493 138.194C82.6327 138.26 85.2061 138.319 85.3854 138.492C85.5688 138.67 85.5492 138.75 85.2751 138.943C84.993 139.142 83.0423 139.178 72.5951 139.178H60.2485L60.5438 139.655C60.7063 139.917 61.2725 140.71 61.8022 141.416L62.7652 142.701L72.8469 142.783C83.1992 142.867 83.7463 142.904 83.1434 143.48C82.9789 143.637 80.6789 143.704 73.2973 143.766L63.6659 143.848L65.505 145.692L67.3441 147.536H78.0327C87.2709 147.536 88.7665 147.569 89.0548 147.782C89.3849 148.025 89.3849 148.03 89.0548 148.273C88.7671 148.485 87.3398 148.519 78.6608 148.52L68.6003 148.521L69.1157 148.93C69.3992 149.155 70.3656 149.818 71.2632 150.405L72.8953 151.471L82.6122 151.47C90.9876 151.469 92.3751 151.503 92.6626 151.715C92.9927 151.958 92.9927 151.963 92.6626 152.206C92.3767 152.417 91.0767 152.454 83.5571 152.466L74.7852 152.479L76.5032 153.284C78.4115 154.178 81.7971 155.485 83.8696 156.129C85.2164 156.547 85.2521 156.549 91.1813 156.549C96.2148 156.549 97.1913 156.588 97.473 156.795C97.8032 157.039 97.8032 157.044 97.473 157.287C97.2 157.488 96.4061 157.536 93.0921 157.551L89.0447 157.569L91.6795 158.194C94.5562 158.877 100.358 159.955 102.271 160.162C103.587 160.304 105.931 160.225 107.685 159.979ZM107.014 125.574C105.694 125.306 105.035 124.343 105.752 123.731C105.918 123.59 106.517 123.34 107.084 123.176C108.568 122.747 113.321 122.75 114.85 123.183C117.179 123.841 116.88 124.822 114.195 125.333C112.635 125.63 108.046 125.783 107.014 125.574ZM114.729 109.843C114.266 109.401 114.293 109.208 114.933 108.377L115.481 107.667L114.164 103.879C113.44 101.796 112.656 99.3174 112.421 98.371C111.606 95.0876 111.124 90.2646 111.125 85.4243C111.127 82.4125 111.248 81.935 112.037 81.848C112.955 81.7468 113.011 81.9267 113.014 84.9936C113.018 89.8909 113.486 94.862 114.225 97.8674C114.412 98.627 115.182 101.053 115.936 103.258C116.689 105.463 117.306 107.463 117.306 107.703C117.306 108.515 115.954 110.171 115.292 110.171C115.171 110.171 114.918 110.023 114.729 109.843ZM109.975 108.139C109.554 107.794 109.517 107.69 109.667 107.282C109.772 106.999 110.03 106.753 110.326 106.653C110.754 106.51 110.863 106.545 111.225 106.946C111.739 107.516 111.738 107.631 111.215 108.129C110.692 108.628 110.572 108.629 109.975 108.139ZM123.513 89.7604C121.335 89.3096 118.736 87.8392 117.228 86.2048C116.25 85.1452 115.17 83.1382 114.893 81.8671C114.645 80.7249 114.767 79.0311 115.167 78.0778C116.09 75.8759 123.911 73.2891 129.612 73.2998C131.67 73.3036 133.267 73.6483 134.935 74.4493C136.885 75.3849 138.144 76.493 138.614 77.6847C139.761 80.5985 138.916 83.2041 135.951 85.8908C132.481 89.0345 127.497 90.5851 123.513 89.7604ZM128.285 88.1219C129.624 87.8209 131.851 86.8437 133.22 85.9571C134.543 85.0999 136.385 83.2263 136.9 82.2131C137.385 81.2583 137.53 79.7526 137.236 78.7025C136.832 77.2558 134.21 75.5005 131.823 75.0797C130.508 74.8478 126.964 74.9873 125.037 75.3467C122.329 75.852 119.297 76.9262 117.365 78.0655C116.634 78.4964 116.384 79.2613 116.485 80.7604C116.698 83.9294 119.784 87.159 123.512 88.1156C124.728 88.4275 126.913 88.4304 128.285 88.1219ZM125.604 80.4256C124.874 79.938 125.015 78.4453 125.818 78.1513C127.086 77.6873 128.317 78.8788 127.715 79.9881C127.322 80.713 126.339 80.9167 125.604 80.4256ZM85.9668 89.0122C79.9783 88.179 75.1533 84.5067 74.7593 80.482C74.6314 79.1754 74.9519 77.6298 75.4489 77.1556C75.9549 76.673 78.1959 75.8048 80.1669 75.3278C82.3936 74.789 84.933 74.4951 89.3394 74.2663C95.1185 73.9661 98.0344 74.3165 100.84 75.6483C102.585 76.4765 102.775 76.7687 102.775 78.6231C102.775 80.2177 102.384 81.3287 101.245 82.962C98.6764 86.6482 93.2983 89.2397 88.3575 89.1723C87.6015 89.162 86.5257 89.09 85.9668 89.0122ZM90.7627 87.392C95.8155 86.6038 100.721 82.6831 101.106 79.1253C101.26 77.7047 101.147 77.5137 99.8037 76.9232C97.4406 75.8842 94.3668 75.5961 88.9588 75.9069C83.1365 76.2415 80.5588 76.6676 77.8514 77.7427C76.6941 78.2023 76.5909 78.2835 76.486 78.8165C76.3001 79.7619 76.52 81.2082 76.9815 82.0749C78.9681 85.8062 85.2907 88.2456 90.7627 87.392ZM91.6217 80.9741C90.3019 80.2855 90.7503 78.5412 92.247 78.5412C93.6593 78.5412 94.1425 80.3096 92.8979 80.9235C92.3246 81.2064 92.0851 81.2158 91.6217 80.9741ZM119.071 71.3791C118.578 71.2881 117.189 70.0467 117.049 69.5713C116.971 69.307 117.064 69.0879 117.384 68.7827C117.908 68.2826 118.302 68.3449 119.167 69.0649C119.499 69.3415 119.859 69.5061 120.026 69.4574C120.184 69.4113 121.472 69.1529 122.89 68.8831C126.742 68.1499 128.838 67.9972 133.284 68.1261C137.559 68.2501 137.922 68.3337 137.922 69.1944C137.922 70.0987 137.677 70.1421 133.059 70.0543C128.332 69.9645 126.923 70.0807 122.485 70.9262C120.845 71.2386 119.492 71.4842 119.478 71.4719C119.465 71.4596 119.281 71.4179 119.071 71.3791ZM77.6259 70.8495C77.3602 70.3758 77.4101 69.939 77.765 69.6326C78.1183 69.3276 81.6221 68.783 86.8112 68.2265C91.4807 67.7257 93.4188 67.6589 96.9706 67.8764C100.774 68.1092 103.191 67.9568 104.552 67.3983C105.496 67.011 105.958 67.0954 106.308 67.7193C106.749 68.5055 105.568 69.3365 103.489 69.7032C102.95 69.7982 99.8904 69.8471 96.1484 69.8207C89.3041 69.7723 89.026 69.7909 82.0114 70.7631C78.4232 71.2605 77.8627 71.2715 77.6259 70.8495ZM78.7366 156.254C77.509 155.782 73.3939 153.807 72.2101 153.121C71.312 152.6 70.8847 152.452 70.2824 152.452C69.7078 152.452 69.5311 152.509 69.5964 152.671C69.6448 152.791 69.7403 153.713 69.8087 154.719L69.933 156.549L74.6784 156.533C79.2197 156.518 79.3942 156.506 78.7366 156.254ZM49.4396 123.775C50.6511 123.186 50.4713 123.117 47.7079 123.117C46.2692 123.117 45.1365 123.16 45.1908 123.211C45.245 123.263 45.7411 123.483 46.2931 123.699C47.5206 124.181 48.5552 124.206 49.4396 123.775ZM41.1872 113.713C40.6937 112.916 40.2886 110.916 40.4114 109.884L40.5138 109.023H37.1622C35.3188 109.023 33.8105 109.059 33.8105 109.102C33.8105 109.318 34.7635 111.569 35.3902 112.834L36.1009 114.268H38.8155H41.53L41.1872 113.713ZM41.0064 107.036C41.2018 106.484 41.5615 105.783 41.8056 105.477C42.2397 104.935 42.2747 104.923 43.3988 104.963C44.8113 105.012 45.5789 104.71 45.5789 104.105V103.697L39.2614 103.654L32.9439 103.611L33.0239 103.982C33.0679 104.186 33.1513 104.906 33.2093 105.582C33.2672 106.258 33.3588 107.088 33.4128 107.426L33.5108 108.04H37.0809H40.651L41.0064 107.036ZM44.9502 101.559C44.7645 100.968 44.3635 99.9173 44.059 99.2232L43.5053 97.9613L40.3758 97.9166C37.713 97.8786 37.1823 97.912 36.8169 98.1403C36.4212 98.3876 36.3543 98.3879 35.9641 98.144C35.6689 97.9595 35.1484 97.8793 34.2461 97.8793H32.9515V100.256V102.632H39.1197H45.2878L44.9502 101.559ZM35.6499 95.7079C35.7592 95.0544 35.9008 94.3907 35.9647 94.233C36.0688 93.9755 35.949 93.9462 34.7924 93.9462C33.3179 93.9462 33.4007 93.8507 33.1939 95.7898L33.0759 96.896H34.2635H35.4511L35.6499 95.7079ZM42.4659 96.038C42.2152 95.566 41.8264 94.9023 41.6019 94.563L41.1937 93.9462H39.7565C38.7408 93.9462 38.2615 94.0128 38.1217 94.1734C37.9602 94.3591 37.4324 96.3182 37.4213 96.7731C37.4196 96.8407 38.6566 96.896 40.1701 96.896H42.9218L42.4659 96.038ZM37.3083 92.4153C38.1286 91.8181 40.1113 90.9963 40.7321 90.9963C41.2852 90.9963 41.7759 91.3705 42.3404 92.2229L42.8301 92.9623L46.0601 92.9626L49.29 92.9629L48.575 91.6519L47.8599 90.3408H41.0977H34.3355L34.0803 91.2012C33.9399 91.6744 33.7747 92.2644 33.7132 92.5123L33.6015 92.9629H35.0789C36.4895 92.9629 36.5904 92.9381 37.3083 92.4153ZM47.0392 89.25C47.0392 89.0443 46.1053 87.9568 44.915 86.7763L43.7169 85.5881H40.2357H36.7545L36.421 86.0388C36.0659 86.5186 35.0988 88.3017 34.8359 88.9614L34.678 89.3574H40.8586C44.258 89.3574 47.0392 89.3091 47.0392 89.25ZM41.4557 84.2681C40.6166 83.8893 39.1375 83.8556 38.4406 84.1993C38.1618 84.3369 37.9338 84.4844 37.9338 84.5271C37.9338 84.5699 38.8808 84.5989 40.0383 84.5916L42.1429 84.5783L41.4557 84.2681ZM50.8892 239.269C53.174 231.636 53.4053 223.001 51.5632 214.111C51.1286 212.014 51.1237 211.926 51.422 211.612C51.8167 211.196 52.2281 211.198 52.6264 211.618C52.841 211.844 52.997 211.896 53.1169 211.782C53.2337 211.67 57.5153 211.614 65.853 211.614C76.7549 211.614 78.4572 211.646 78.7467 211.86C79.0767 212.103 79.0766 212.108 78.7438 212.353C78.4492 212.57 76.8284 212.596 65.721 212.558C53.2736 212.516 53.0363 212.521 53.1211 212.831C53.1687 213.004 53.3386 213.908 53.4987 214.838L53.7898 216.53H56.2464H58.703L59.2707 215.431C59.8981 214.216 60.2727 213.891 60.7289 214.166C61.336 214.531 61.3913 214.837 61.0072 215.704L60.6411 216.53H68.84C75.8651 216.53 77.0866 216.566 77.3723 216.776C77.7024 217.02 77.7024 217.025 77.3723 217.268C77.0863 217.479 75.8395 217.514 68.6092 217.514H60.1796L59.4507 219.231C59.0498 220.176 58.7218 221.024 58.7218 221.116C58.7218 221.227 61.1587 221.283 65.9905 221.283C72.1888 221.283 73.3083 221.319 73.5927 221.529C73.9228 221.772 73.9228 221.777 73.5927 222.02C73.3079 222.23 72.1622 222.266 65.7512 222.266C58.7613 222.266 58.2348 222.286 58.1221 222.553C58.0555 222.711 57.5844 223.967 57.0751 225.345L56.1492 227.851L57.636 227.804L59.1229 227.756L59.4807 226.752C60.0363 225.194 60.5462 224.841 61.2198 225.551C61.4972 225.844 61.513 225.974 61.344 226.576C61.2374 226.955 61.0981 227.394 61.0343 227.552C60.9251 227.822 61.3317 227.838 68.1196 227.838C74.1006 227.838 75.3773 227.878 75.6543 228.073C75.9283 228.266 75.948 228.346 75.7646 228.524C75.5894 228.693 73.9325 228.757 68.065 228.822L60.5885 228.904L59.9322 230.542C59.5712 231.444 59.2202 232.31 59.1522 232.468C59.0354 232.739 59.5208 232.755 67.9478 232.755C75.6133 232.755 76.9139 232.789 77.2005 233.001C77.5306 233.244 77.5306 233.249 77.2005 233.492C76.9137 233.704 75.5894 233.738 67.7332 233.738H58.5993L57.8219 235.336L57.0445 236.934L67.1519 237.016C74.9144 237.079 77.3091 237.145 77.474 237.303C78.0788 237.88 77.5417 237.915 66.8309 237.999L56.4024 238.081L55.9729 238.859L55.5434 239.637H54.5556C54.0122 239.637 53.5677 239.595 53.5677 239.544C53.5677 239.492 53.7683 239.123 54.0135 238.724L54.4594 237.999H53.7717C53.0904 237.999 53.082 238.006 52.8639 238.818L52.6437 239.637H51.7113C50.8261 239.637 50.7844 239.619 50.8892 239.269ZM55.8603 235.418L56.6691 233.82L55.696 233.77C55.1608 233.743 54.6287 233.755 54.5137 233.797C54.336 233.862 53.5677 236.338 53.5677 236.846C53.5677 236.939 53.9015 237.016 54.3096 237.016H55.0514L55.8603 235.418ZM57.8715 230.993C58.2687 230.024 58.6307 229.139 58.6761 229.026C58.738 228.873 58.3972 228.822 57.3048 228.822H55.8512L55.48 230.01C55.2759 230.663 54.9977 231.548 54.8619 231.976L54.6149 232.755H55.8822H57.1495L57.8715 230.993ZM56.3164 222.307C56.3164 222.285 55.8797 222.266 55.3459 222.266H54.3752L54.4869 223.766C54.5483 224.591 54.6024 225.642 54.6072 226.102C54.6158 226.917 54.6365 226.882 55.4661 224.643C55.9337 223.381 56.3163 222.33 56.3164 222.307ZM57.3943 219.673C57.7452 218.801 58.0797 217.958 58.1377 217.801C58.2345 217.537 58.065 217.514 56.0656 217.514C54.0733 217.514 53.8955 217.538 53.9749 217.801C54.0226 217.958 54.109 218.677 54.1668 219.398C54.3366 221.513 54.233 221.373 55.5837 221.312L56.7564 221.259L57.3943 219.673ZM158.467 239.269C158.112 237.597 158.28 232.011 158.802 228.084C159.288 224.432 160.5 218.878 161.646 215.055C162.537 212.085 163.549 209.249 163.824 208.951C164.174 208.572 164.598 208.588 164.983 208.994C165.288 209.315 165.273 209.395 164.415 211.985C163.325 215.273 162.649 217.617 161.994 220.382C161.345 223.115 160.733 226.335 160.816 226.573C160.958 226.98 163.664 223.018 165.884 219.151C167.107 217.021 167.445 216.658 167.933 216.952C168.643 217.379 168.624 217.616 167.751 219.252C165.767 222.966 162.912 227.128 161.186 228.822L160.268 229.723L160.066 232.755C159.932 234.774 159.917 236.43 160.02 237.712L160.176 239.638H159.36C158.652 239.638 158.535 239.589 158.467 239.269ZM59.9673 208.228C59.6615 208.11 59.7012 207.571 60.0243 207.452C60.1737 207.398 64.0632 207.353 68.6674 207.353C75.8459 207.353 77.0863 207.388 77.3723 207.599C77.7024 207.842 77.7024 207.847 77.3723 208.09C77.0857 208.302 75.8539 208.334 68.6104 208.323C63.9748 208.316 60.0854 208.273 59.9673 208.228Z" fill="#193549"/>
<path d="M221.838 69.832C221.838 63.1333 220.579 58.0133 218.062 54.472C215.587 50.9307 212.174 49.16 207.822 49.16C205.603 49.16 203.619 49.8853 201.87 51.336C200.12 52.744 198.734 54.4933 197.71 56.584C196.686 58.632 195.832 60.9787 195.15 63.624C193.998 68.0187 193.422 72.3707 193.422 76.68C193.422 83.3787 194.659 88.4987 197.134 92.04C199.651 95.5813 203.086 97.352 207.438 97.352C209.656 97.352 211.64 96.648 213.39 95.24C215.139 93.7893 216.526 92.04 217.55 89.992C218.574 87.9013 219.427 85.5547 220.11 82.952C221.262 78.5147 221.838 74.1413 221.838 69.832ZM203.534 102.344C198.2 102.344 194.019 100.189 190.99 95.88C188.003 91.5707 186.51 86.1093 186.51 79.496C186.51 70.9627 188.6 63.0693 192.782 55.816C194.787 52.36 197.432 49.544 200.718 47.368C204.046 45.192 207.715 44.104 211.726 44.104C217.059 44.104 221.219 46.28 224.206 50.632C227.235 54.9413 228.75 60.4027 228.75 67.016C228.75 73.8853 227.384 80.328 224.654 86.344C221.667 93 217.656 97.6293 212.622 100.232C209.806 101.64 206.776 102.344 203.534 102.344ZM271.516 57.224C271.516 59.9547 270.919 62.5147 269.724 64.904C268.53 67.2507 267.036 69.256 265.244 70.92C263.452 72.5413 261.34 74.0347 258.908 75.4C254.77 77.6613 250.311 79.3893 245.532 80.584C245.063 84.424 244.828 87.688 244.828 90.376C244.828 94.472 245.639 97.3947 247.26 99.144C245.938 100.68 244.466 101.448 242.844 101.448C239.516 101.448 237.852 98.632 237.852 93C237.852 90.6533 238.663 84.1893 240.284 73.608C241.906 63.0267 242.716 56.2427 242.716 53.256C242.716 50.2267 242.396 47.7093 241.756 45.704C247.516 44.6373 252.167 44.104 255.708 44.104C266.247 44.104 271.516 48.4773 271.516 57.224ZM264.796 58.568C264.796 51.528 261.298 48.008 254.3 48.008C252.935 48.008 251.484 48.136 249.948 48.392C249.948 51.0373 249.372 55.8587 248.22 62.856C247.111 69.8107 246.407 74.2693 246.108 76.232C251.058 75.208 255.324 73.352 258.908 70.664C260.743 69.256 262.172 67.528 263.196 65.48C264.263 63.3893 264.796 61.0853 264.796 58.568ZM322.025 50.76C322.025 53.1067 321.193 59.2293 319.529 69.128C317.907 78.984 317.097 86.0027 317.097 90.184C317.097 94.3227 317.907 97.3093 319.529 99.144C318.206 100.68 316.734 101.448 315.113 101.448C311.785 101.448 310.121 98.632 310.121 93C310.121 90.696 310.889 84.5947 312.425 74.696C313.961 64.7547 314.729 57.736 314.729 53.64C308.457 66.2267 304.787 74.184 303.721 77.512C302.654 80.7973 302.121 83.208 302.121 84.744C302.121 85.0853 302.163 85.5973 302.249 86.28C301.95 86.664 301.353 87.0053 300.457 87.304C299.603 87.6027 298.729 87.752 297.833 87.752C295.955 87.752 294.505 87.1547 293.481 85.96C292.499 84.7227 291.603 82.4613 290.793 79.176C289.982 75.848 289.043 71.8373 287.977 67.144C286.91 62.4507 285.929 58.4613 285.033 55.176C284.947 55.9867 284.137 61.064 282.601 70.408C281.107 79.7093 280.361 86.3653 280.361 90.376C280.361 94.3867 281.193 97.3093 282.857 99.144C282.259 100.68 281.086 101.448 279.337 101.448C276.222 101.448 274.665 98.632 274.665 93C274.665 90.6533 275.411 84.5733 276.905 74.76C278.441 64.904 279.209 58.0347 279.209 54.152C279.209 50.2267 278.761 47.368 277.865 45.576C278.846 44.5947 280.339 44.1253 282.345 44.168C284.35 44.168 286.057 44.744 287.465 45.896C288.915 47.0053 290.025 48.8613 290.793 51.464C291.603 54.024 292.649 58.376 293.929 64.52C295.251 70.664 296.553 75.784 297.833 79.88C298.771 77.32 300.478 73.4587 302.953 68.296C305.427 63.0907 307.518 58.504 309.225 54.536C310.931 50.5253 311.785 47.6453 311.785 45.896C313.15 44.7013 315.113 44.104 317.673 44.104C319.123 44.104 320.211 44.6373 320.937 45.704C321.662 46.728 322.025 48.4133 322.025 50.76Z" fill="#FCFCFC"/>
<path d="M183.714 158.839L183.756 159.385C182.832 159.721 182.048 159.889 181.404 159.889C180.256 159.889 179.542 159.287 179.262 158.083C176.966 148.311 175.174 141.969 173.886 139.057C172.934 136.845 172.164 135.473 171.576 134.941C171.016 134.381 170.526 134.101 170.106 134.101C170.414 133.149 170.904 132.449 171.576 132.001C172.248 131.553 172.906 131.329 173.55 131.329C175.258 131.329 176.686 132.771 177.834 135.655C178.338 136.999 179.22 140.387 180.48 145.819C181.768 151.223 182.44 154.387 182.496 155.311C185.184 148.451 186.822 143.313 187.41 139.897C186.598 137.853 185.758 136.607 184.89 136.159C185.198 135.571 185.66 135.081 186.276 134.689C186.92 134.297 187.578 134.101 188.25 134.101C189.538 134.101 190.448 134.745 190.98 136.033C191.484 137.377 192.338 140.695 193.542 145.987C194.746 151.279 195.376 154.387 195.432 155.311C196.888 151.979 198.12 148.255 199.128 144.139C200.136 140.023 200.64 136.985 200.64 135.025C200.64 134.213 200.472 133.541 200.136 133.009C200.808 131.973 201.816 131.455 203.16 131.455C204.42 131.455 205.05 132.211 205.05 133.723C205.05 135.235 204.238 138.553 202.614 143.677C201.018 148.773 199.268 153.169 197.364 156.865C196.888 157.789 196.65 158.405 196.65 158.713C196.65 159.021 196.664 159.245 196.692 159.385C195.712 159.721 194.928 159.889 194.34 159.889C193.192 159.889 192.464 159.287 192.156 158.083C190.588 151.559 189.552 147.331 189.048 145.399C187.592 149.907 186.052 153.729 184.428 156.865C183.98 157.789 183.742 158.447 183.714 158.839ZM220.315 133.891C218.999 133.891 217.851 134.395 216.871 135.403C215.919 136.383 215.205 137.629 214.729 139.141C213.833 141.941 213.385 144.783 213.385 147.667C213.385 150.523 213.973 152.805 215.149 154.513C216.325 156.221 217.963 157.075 220.063 157.075C221.407 157.075 222.569 156.585 223.549 155.605C224.529 154.597 225.257 153.337 225.733 151.825C226.629 148.941 227.077 146.085 227.077 143.257C227.077 140.401 226.475 138.133 225.271 136.453C224.095 134.745 222.443 133.891 220.315 133.891ZM218.005 160.183C215.093 160.183 212.839 159.091 211.243 156.907C209.647 154.723 208.849 151.951 208.849 148.591C208.849 146.547 209.171 144.489 209.815 142.417C210.459 140.317 211.341 138.399 212.461 136.663C213.581 134.899 215.023 133.471 216.787 132.379C218.551 131.287 220.455 130.741 222.499 130.741C225.411 130.741 227.651 131.833 229.219 134.017C230.815 136.201 231.613 138.973 231.613 142.333C231.613 145.777 230.829 149.039 229.261 152.119C227.553 155.451 225.355 157.789 222.667 159.133C221.211 159.833 219.657 160.183 218.005 160.183ZM241.85 159.763C239.666 159.763 238.574 157.915 238.574 154.219C238.574 152.679 238.868 150.075 239.456 146.407C240.044 142.739 240.338 139.729 240.338 137.377C240.338 135.025 240.044 133.289 239.456 132.169C240.156 131.525 241.01 131.203 242.018 131.203C244.062 131.203 245.084 132.267 245.084 134.395C245.084 135.151 244.902 136.705 244.538 139.057C244.202 141.409 243.978 143.019 243.866 143.887C245.378 139.911 247.072 136.733 248.948 134.353C250.852 131.945 252.42 130.741 253.652 130.741C254.352 130.741 254.87 131.077 255.206 131.749C255.57 132.421 255.752 133.107 255.752 133.807C255.752 134.507 255.668 135.221 255.5 135.949C255.08 135.865 254.688 135.823 254.324 135.823C252.532 135.823 250.726 136.873 248.906 138.973C247.114 141.073 245.7 143.383 244.664 145.903C243.656 148.423 243.152 150.509 243.152 152.161C243.152 155.073 243.684 157.103 244.748 158.251C243.88 159.259 242.914 159.763 241.85 159.763ZM263.204 152.497C263.204 155.129 263.736 157.047 264.8 158.251C263.932 159.259 262.966 159.763 261.902 159.763C259.718 159.763 258.626 157.915 258.626 154.219C258.626 152.847 259.13 148.759 260.138 141.955C261.146 135.151 261.65 130.265 261.65 127.297C261.65 124.301 261.356 122.215 260.768 121.039C261.44 120.423 262.308 120.115 263.372 120.115C264.464 120.115 265.248 120.451 265.724 121.123C266.2 121.795 266.438 122.803 266.438 124.147C266.438 125.463 266.298 127.157 266.018 129.229C265.738 131.301 265.36 133.835 264.884 136.831C264.436 139.827 264.1 142.249 263.876 144.097C266.564 141.521 268.888 139.029 270.848 136.621C272.808 134.185 273.914 132.449 274.166 131.413C275.314 131.413 276.224 131.595 276.896 131.959C277.596 132.323 277.946 132.785 277.946 133.345C277.946 134.269 274.74 137.713 268.328 143.677C271.044 148.269 273.004 151.293 274.208 152.749C275.888 154.793 277.582 155.941 279.29 156.193C279.262 157.565 278.898 158.531 278.198 159.091C277.526 159.623 276.854 159.889 276.182 159.889C274.446 159.889 272.528 158.265 270.428 155.017C269.448 153.477 268.454 151.839 267.446 150.103C266.438 148.367 265.724 147.149 265.304 146.449L263.414 148.129C263.274 149.893 263.204 151.349 263.204 152.497ZM294.225 133.891C292.909 133.891 291.761 134.395 290.781 135.403C289.829 136.383 289.115 137.629 288.639 139.141C287.743 141.941 287.295 144.783 287.295 147.667C287.295 150.523 287.883 152.805 289.059 154.513C290.235 156.221 291.873 157.075 293.973 157.075C295.317 157.075 296.479 156.585 297.459 155.605C298.439 154.597 299.167 153.337 299.643 151.825C300.539 148.941 300.987 146.085 300.987 143.257C300.987 140.401 300.385 138.133 299.181 136.453C298.005 134.745 296.353 133.891 294.225 133.891ZM291.915 160.183C289.003 160.183 286.749 159.091 285.153 156.907C283.557 154.723 282.759 151.951 282.759 148.591C282.759 146.547 283.081 144.489 283.725 142.417C284.369 140.317 285.251 138.399 286.371 136.663C287.491 134.899 288.933 133.471 290.697 132.379C292.461 131.287 294.365 130.741 296.409 130.741C299.321 130.741 301.561 131.833 303.129 134.017C304.725 136.201 305.523 138.973 305.523 142.333C305.523 145.777 304.739 149.039 303.171 152.119C301.463 155.451 299.265 157.789 296.577 159.133C295.121 159.833 293.567 160.183 291.915 160.183ZM312.148 153.043C312.148 151.503 312.4 149.095 312.904 145.819C313.436 142.543 313.702 139.729 313.702 137.377C313.702 135.025 313.408 133.289 312.82 132.169C313.52 131.525 314.36 131.203 315.34 131.203C317.412 131.203 318.448 132.267 318.448 134.395C318.448 135.095 318.112 137.783 317.44 142.459C316.796 147.135 316.474 150.579 316.474 152.791C316.474 155.003 317.146 156.109 318.49 156.109C319.61 156.109 320.968 154.793 322.564 152.161C324.16 149.529 325.518 146.575 326.638 143.299C327.758 139.995 328.318 137.559 328.318 135.991C328.318 134.395 328.108 133.121 327.688 132.169C328.416 131.525 329.27 131.203 330.25 131.203C332.322 131.203 333.358 132.267 333.358 134.395C333.358 135.935 333.092 138.301 332.56 141.493C332.028 144.685 331.762 147.191 331.762 149.011C331.762 152.987 332.42 156.053 333.736 158.209C332.896 159.245 331.944 159.763 330.88 159.763C328.472 159.763 327.268 156.809 327.268 150.901C327.268 150.341 327.436 148.507 327.772 145.399C325.392 151.027 323.404 154.877 321.808 156.949C321.136 157.845 320.38 158.601 319.54 159.217C318.728 159.833 317.93 160.141 317.146 160.141C313.814 160.141 312.148 157.775 312.148 153.043ZM344.352 133.009L344.436 131.077C344.436 128.473 344.142 126.583 343.554 125.407C343.834 125.155 344.254 124.931 344.814 124.735C345.402 124.539 345.92 124.441 346.368 124.441C347.348 124.441 348.076 124.777 348.552 125.449C349.028 126.121 349.266 127.255 349.266 128.851C349.266 129.467 349.098 130.853 348.762 133.009C352.206 132.953 354.488 132.547 355.608 131.791C355.384 133.611 354.754 134.829 353.718 135.445C352.682 136.061 350.834 136.397 348.174 136.453C346.886 144.377 346.242 150.327 346.242 154.303C346.242 155.227 346.438 155.913 346.83 156.361C347.25 156.809 347.782 157.033 348.426 157.033C349.098 157.033 349.812 156.753 350.568 156.193C351.324 155.605 351.926 154.877 352.374 154.009C352.878 154.625 353.13 155.283 353.13 155.983C353.13 157.075 352.584 158.041 351.492 158.881C350.428 159.693 349.042 160.099 347.334 160.099C345.626 160.099 344.268 159.651 343.26 158.755C342.28 157.831 341.79 156.389 341.79 154.429C341.79 152.665 342.112 149.571 342.756 145.147C343.4 140.695 343.806 137.811 343.974 136.495C341.482 136.495 339.634 136.873 338.43 137.629C338.43 136.341 338.556 135.431 338.808 134.899C339.06 134.367 339.396 133.989 339.816 133.765C340.852 133.261 342.364 133.009 344.352 133.009Z" fill="#FCFCFC"/>
</g>
<defs>
<clipPath id="clip0">
<rect width="360" height="240" fill="white"/>
</clipPath>
</defs>
</svg>
