<svg width="360" height="240" viewBox="0 0 360 240" fill="none" xmlns="http://www.w3.org/2000/svg">
<g clip-path="url(#clip0)">
<rect width="360" height="240" fill="#193549"/>
<path d="M35.3338 239.086C38.5779 227.524 42.0842 218.591 45.7371 212.584C46.2298 211.773 46.7226 210.713 47.0712 209.713C48.2699 206.273 50.0749 203.573 53.0554 200.762C54.5865 199.318 56.3255 197.966 57.2698 197.485C57.8086 197.211 58.0783 197.164 59.1113 197.164C59.7769 197.164 60.5157 197.206 60.7531 197.256C61.1734 197.346 61.196 197.328 61.6271 196.553C62.2285 195.472 63.4258 194.275 64.3282 193.853C65.7243 193.2 66.928 193.097 68.5239 193.494L69.4648 193.728L70.6755 192.554C73.4367 189.876 77.1014 187.878 80.4814 187.208C81.2018 187.065 81.2388 187.037 81.6371 186.323C83.0805 183.735 85.342 182.053 87.6559 181.847L88.5 181.771L88.4233 179.702C88.3191 176.89 88.1139 173.883 87.8793 171.729L87.6842 169.938L86.1635 168.517C82.1982 164.812 79.4 160.571 76.1367 153.321C75.6849 152.317 75.3152 151.471 75.3152 151.441C75.3152 151.411 75.2262 151.183 75.1175 150.935L74.9198 150.483L74.0799 150.807C73.3731 151.08 73.0996 151.12 72.3542 151.06C68.7782 150.774 63.9992 146.618 61.3905 141.526C59.8796 138.576 59.4562 136.615 59.3507 132.074C59.2729 128.723 59.4527 126.754 60.0657 124.243C60.8639 120.974 62.4171 118.29 64.0795 117.308C64.5149 117.051 64.5205 117.036 64.4024 116.437C64.3364 116.101 64.1225 114.786 63.9273 113.514C63.4664 110.509 63.4094 106.421 63.7948 104.005C64.9177 96.966 67.1103 90.7387 70.4455 85.1161C71.4274 83.4608 73.7201 80.2185 74.9886 78.6913C76.3881 77.0065 80.3828 73.1736 82.1732 71.7979C87.7918 67.4807 94.5138 64.6355 101.429 63.6478C103.385 63.3684 108.102 63.2653 110.229 63.4553C117.542 64.1087 124.285 66.7149 130.18 71.1663C132.04 72.5711 135.459 75.8813 136.958 77.7291C143.66 85.989 147.536 96.1174 148.736 108.502C149.005 111.282 149.543 126.729 149.541 131.631C149.54 136.611 149.436 138.923 149.065 142.232C147.759 153.879 143.298 162.932 135.068 170.639C133.085 172.496 131.211 173.977 129.389 175.127L128.27 175.834L128.349 176.476C128.393 176.83 128.43 177.784 128.43 178.597L128.432 180.074L129.81 180.081C131.462 180.09 132.451 180.404 134.069 181.436L135.088 182.086L136.097 181.758C137.519 181.296 138.79 181.119 140.055 181.208C142.777 181.398 143.83 182.122 145.32 184.829C145.671 185.465 145.968 186 145.982 186.019C145.995 186.037 146.297 185.93 146.652 185.78C148.229 185.113 149.947 185.884 151.955 188.159C152.364 188.623 152.422 188.648 152.686 188.485C153.743 187.834 155.689 186.897 156.57 186.617C157.89 186.197 158.863 186.178 159.679 186.555C160.538 186.952 161.055 187.575 161.814 189.125C162.961 191.465 163.582 191.977 166.807 193.241C169.329 194.229 170.773 195 171.27 195.622C171.729 196.197 172.135 197.46 172.135 198.312C172.135 198.971 171.832 200.02 171.423 200.776C171.243 201.109 171.242 201.205 171.416 201.6C172.32 203.65 173.419 208.041 174.214 212.776C175.082 217.948 175.539 222.328 175.944 229.352C175.987 230.085 176.073 230.313 176.644 231.205C178.061 233.419 179.27 236.769 179.72 239.728L179.803 240.274H35L35.3338 239.086Z" fill="#FCFCFC"/>
<path d="M35.3343 238.894C38.5871 227.321 42.1028 218.38 45.7655 212.367C46.2595 211.556 46.7535 210.494 47.1031 209.493C48.305 206.05 50.1149 203.348 53.1033 200.534C54.6386 199.089 56.3822 197.735 57.329 197.254C57.8692 196.98 58.1397 196.933 59.1754 196.933C59.8429 196.933 60.5836 196.974 60.8216 197.025C61.2431 197.115 61.2658 197.097 61.698 196.321C62.301 195.239 63.5016 194.041 64.4064 193.618C65.8062 192.965 67.0131 192.861 68.6133 193.259L69.5567 193.494L70.7706 192.318C73.5392 189.638 77.2137 187.638 80.6028 186.967C81.3251 186.824 81.3622 186.796 81.7616 186.081C83.2089 183.491 85.4765 181.807 87.7965 181.601L88.6429 181.525L88.5659 179.454C88.4614 176.639 88.2557 173.629 88.0205 171.474L87.8248 169.681L86.3001 168.258C82.3242 164.55 79.5185 160.305 76.2465 153.048C75.7934 152.043 75.4227 151.196 75.4227 151.166C75.4227 151.136 75.3335 150.908 75.2245 150.659L75.0263 150.207L74.1842 150.531C73.4755 150.805 73.2013 150.845 72.4539 150.785C68.8683 150.498 64.0764 146.338 61.4607 141.241C59.9457 138.289 59.5213 136.326 59.4156 131.781C59.3375 128.426 59.5178 126.456 60.1324 123.942C60.9328 120.67 62.4901 117.984 64.1569 117.001C64.5936 116.744 64.5991 116.729 64.4807 116.129C64.4145 115.793 64.2001 114.476 64.0044 113.203C63.5422 110.196 63.4851 106.103 63.8715 103.685C64.9974 96.6394 67.1958 90.4062 70.54 84.7782C71.5245 83.1214 73.8234 79.876 75.0953 78.3473C76.4985 76.6609 80.5039 72.8245 82.2992 71.4474C87.9327 67.1261 94.6728 64.2782 101.607 63.2895C103.567 63.01 108.297 62.9067 110.43 63.0969C117.763 63.7509 124.524 66.3596 130.434 70.8153C132.299 72.2214 135.727 75.5347 137.231 77.3842C143.95 85.6519 147.837 95.79 149.04 108.187C149.31 110.969 149.849 126.431 149.848 131.338C149.846 136.322 149.742 138.636 149.37 141.949C148.06 153.606 143.588 162.668 135.335 170.383C133.347 172.241 131.468 173.723 129.641 174.875L128.519 175.582L128.599 176.225C128.643 176.579 128.68 177.534 128.68 178.347L128.682 179.827L130.064 179.834C131.72 179.842 132.711 180.157 134.334 181.189L135.356 181.84L136.367 181.512C137.793 181.049 139.067 180.872 140.336 180.961C143.066 181.152 144.121 181.877 145.615 184.585C145.967 185.222 146.265 185.758 146.278 185.777C146.292 185.795 146.594 185.687 146.95 185.537C148.532 184.87 150.254 185.641 152.268 187.919C152.678 188.383 152.736 188.409 153.001 188.246C154.06 187.593 156.012 186.656 156.895 186.375C158.218 185.955 159.194 185.936 160.013 186.314C160.874 186.711 161.392 187.334 162.154 188.886C163.303 191.228 163.926 191.741 167.159 193.006C169.689 193.995 171.136 194.766 171.634 195.389C172.095 195.965 172.502 197.228 172.502 198.082C172.502 198.741 172.198 199.791 171.788 200.548C171.607 200.881 171.606 200.977 171.781 201.373C172.688 203.425 173.79 207.819 174.587 212.56C175.457 217.736 175.915 222.12 176.322 229.151C176.364 229.884 176.45 230.113 177.023 231.006C178.444 233.222 179.656 236.575 180.107 239.537L180.191 240.084H179.313C178.83 240.084 178.435 240.061 178.435 240.034C178.435 239.762 177.941 237.597 177.68 236.729C177.052 234.63 176.241 232.863 175.154 231.221C174.631 230.432 174.603 230.337 174.562 229.225C174.238 220.439 172.646 209.532 170.872 203.942C170.624 203.16 169.946 201.359 169.864 201.262C169.843 201.238 169.598 201.47 169.32 201.777C165.868 205.578 161.721 208.009 157.266 208.844C155.173 209.237 152.233 209.237 149.931 208.844C146.999 208.344 144.253 207.281 142.123 205.822C141.544 205.425 141.044 205.1 141.012 205.1C140.981 205.1 140.765 205.462 140.532 205.904C139.443 207.97 137.388 210.134 135.26 211.455C134.07 212.193 131.466 213.455 131.125 213.458C130.919 213.46 130.913 213.397 131.367 215.936C132.424 221.852 132.515 232.107 131.567 238.348C131.29 240.167 131.339 240.084 130.551 240.084C129.972 240.084 129.887 240.052 129.949 239.859C130.103 239.372 130.567 235.93 130.724 234.103C130.933 231.664 130.931 224.587 130.721 221.885C130.488 218.893 130.059 215.79 129.685 214.382C129.287 212.887 129.342 212.763 130.587 212.316C134.725 210.83 138.297 207.854 139.589 204.813L139.902 204.075L139.042 203.189C138.568 202.701 137.6 201.528 136.89 200.582C134.291 197.12 132.845 195.26 132.72 195.218C132.649 195.194 132.592 195.257 132.592 195.356C132.592 195.721 130.972 197.859 130.009 198.765C128.307 200.367 126.458 201.51 124.017 202.47C123.357 202.73 122.799 202.958 122.777 202.977C122.755 202.996 123.063 203.187 123.461 203.401C124.822 204.134 125.83 205.495 126.357 207.314C126.545 207.961 126.592 208.65 126.592 210.756V213.39L127.083 213.898C127.739 214.575 128.352 215.56 128.699 216.491C129.769 219.366 128.436 222.085 125.228 223.574C124.515 223.905 124.001 224.219 124.032 224.305C124.164 224.677 124.507 228.575 124.646 231.29C124.792 234.112 124.662 238.912 124.416 239.795C124.29 240.248 123.258 240.188 121.631 239.634C120.095 239.11 120.052 239.105 120.052 239.43C120.052 239.965 119.909 240.084 119.263 240.084H118.637L118.682 237.094C118.729 233.971 118.556 230.138 118.225 226.965C118.118 225.939 118.03 225.063 118.03 225.018C118.03 224.973 117.681 224.898 117.255 224.851C115.512 224.657 114.113 224.099 113.208 223.235C111.249 221.366 111.175 217.428 113.05 214.777L113.472 214.182L113.199 213.274C111.952 209.136 112.163 206.282 113.845 204.541L114.404 203.963L113.689 203.895C113.296 203.858 112.24 203.767 111.343 203.693C108.144 203.43 104.819 202.755 101.779 201.752C99.7426 201.081 96.2353 199.455 94.5835 198.417L93.317 197.621L93.4037 198.113C93.8158 200.451 93.9205 201.834 93.8622 204.167L93.8003 206.643H94.6983C95.2902 206.643 95.6854 206.709 95.8579 206.836C96.117 207.027 96.117 207.031 95.8579 207.222C95.6802 207.353 95.2808 207.415 94.6133 207.415C93.6851 207.415 93.6258 207.432 93.5483 207.727C93.4098 208.254 93.5921 208.517 94.9284 209.724L96.2176 210.888H97.7271C98.8627 210.888 99.3015 210.935 99.4984 211.081C99.7575 211.272 99.7575 211.276 99.4984 211.466C99.3226 211.596 98.9249 211.659 98.2867 211.659H97.3366L98.0765 212.17C99.148 212.91 101.83 214.153 103.468 214.669C105.292 215.243 106.522 215.483 108.524 215.656C110.456 215.822 110.771 215.941 110.9 216.549C111.31 218.481 112.135 225.645 112.362 229.243C112.514 231.654 112.553 239.034 112.418 239.682C112.337 240.068 112.306 240.084 111.662 240.084C111.089 240.084 111.003 240.052 111.076 239.869C111.223 239.504 111.184 231.402 111.024 229.087C110.774 225.467 109.809 217.279 109.609 217.089C109.584 217.065 108.936 216.988 108.168 216.917C103.721 216.506 99.4227 214.877 95.954 212.286L95.1142 211.659H94.0584C93.3262 211.659 92.9225 211.6 92.7409 211.466C92.4819 211.276 92.4819 211.272 92.7409 211.081C92.8855 210.974 93.2769 210.888 93.6154 210.888H94.2281L93.6693 210.355L93.1105 209.822L92.7595 210.085C91.0321 211.381 75.8837 216.032 73.3901 216.032C73.0731 216.032 72.5059 215.78 71.4654 215.175C70.6541 214.703 68.9524 213.82 67.684 213.213L65.3777 212.109L58.0805 212.074L50.7832 212.039L50.4961 213.131C50.3383 213.731 50.2091 214.282 50.2091 214.356C50.2091 214.446 52.8247 214.489 58.3554 214.489C62.8359 214.489 66.5977 214.524 66.715 214.567C66.9909 214.668 66.9909 215.082 66.715 215.182C66.5977 215.225 62.7835 215.261 58.239 215.261H49.9763L49.7458 216.386C49.6191 217.005 49.4828 217.642 49.4431 217.801L49.3709 218.09H58.3408C63.2742 218.09 67.4067 218.125 67.524 218.168C67.6413 218.211 67.7373 218.35 67.7373 218.476C67.7373 218.602 67.6413 218.741 67.524 218.784C67.4067 218.827 63.2505 218.862 58.288 218.862C53.3255 218.862 49.2652 218.876 49.2651 218.894C49.265 218.912 49.174 219.418 49.063 220.019C48.952 220.621 48.861 221.272 48.8609 221.466L48.8608 221.82H58.3555C63.5775 221.82 67.9461 221.855 68.0634 221.898C68.1807 221.941 68.2767 222.08 68.2767 222.206C68.2767 222.332 68.1807 222.471 68.0634 222.514C67.9461 222.557 63.5508 222.592 58.296 222.592C53.0412 222.592 48.7149 222.635 48.6819 222.688C48.6488 222.741 48.5787 223.146 48.526 223.587L48.4302 224.39L54.4096 224.423L60.389 224.457V224.778V225.1L54.3552 225.133C51.0367 225.152 48.3197 225.21 48.3175 225.262C48.3153 225.314 48.2255 226.167 48.118 227.158C48.0105 228.148 47.9213 229.03 47.9198 229.118C47.9176 229.243 49.6757 229.285 56.0406 229.311L64.1643 229.344V229.666V229.987L56.036 230.02C49.7044 230.046 47.8958 230.089 47.8538 230.213C47.8241 230.301 47.7778 230.763 47.751 231.24L47.7021 232.107L54.9219 232.141L62.1418 232.174V232.495V232.817L54.9139 232.85L47.6861 232.883L47.6003 233.75C47.553 234.227 47.514 234.748 47.5134 234.907L47.5125 235.196H56.8049C61.9157 235.196 66.1933 235.231 66.3106 235.274C66.4279 235.317 66.5238 235.456 66.5238 235.582C66.5238 235.708 66.4279 235.847 66.3106 235.89C66.1933 235.933 61.9157 235.968 56.8049 235.968H47.5125V236.466C47.5125 236.74 47.4747 237.145 47.4285 237.365L47.3445 237.766L54.1364 237.8L60.9283 237.833V238.154V238.476L54.153 238.509L47.3777 238.543V239.313V240.084H46.4338H45.49V239.312V238.54L41.5462 238.542C39.3771 238.544 37.5353 238.587 37.4534 238.639C37.3714 238.691 37.2289 239.037 37.1366 239.408L36.9687 240.084H35.9843H35L35.3343 238.894ZM123.256 237.767L123.291 236.933L121.908 236.391C121.147 236.094 120.418 235.813 120.288 235.767C120.076 235.692 120.052 235.786 120.052 236.715V237.747L121.434 238.2C122.194 238.448 122.907 238.641 123.018 238.627C123.171 238.608 123.229 238.395 123.256 237.767ZM45.6248 236.868V235.968H41.8547H38.0846L37.9465 236.457C37.8705 236.727 37.7696 237.132 37.7222 237.358L37.636 237.769H41.6304H45.6248V236.868ZM123.423 234.835V234.088L121.775 233.431C120.868 233.069 120.095 232.792 120.056 232.815C120.017 232.838 120.005 233.169 120.029 233.552L120.074 234.248L121.647 234.902C122.513 235.262 123.266 235.562 123.322 235.569C123.377 235.577 123.423 235.246 123.423 234.835ZM45.6731 234.714C45.719 234.449 45.7573 233.928 45.7581 233.557L45.7596 232.881H42.4019H39.0443L38.7536 233.814C38.5937 234.327 38.432 234.848 38.3943 234.971C38.3301 235.182 38.5624 235.196 41.9576 235.196H45.5895L45.6731 234.714ZM123.34 231.499C123.293 230.88 123.187 230.309 123.103 230.231C122.967 230.103 120.028 228.894 119.854 228.894C119.758 228.894 119.765 229.833 119.868 230.65L119.952 231.312L121.519 231.959C122.381 232.314 123.162 232.609 123.255 232.615C123.385 232.622 123.405 232.361 123.34 231.499ZM45.8224 231.949C45.8523 231.86 45.8988 231.397 45.9257 230.92L45.9747 230.052H42.9804H39.9862L39.6495 231.007C39.4644 231.532 39.3476 231.995 39.3902 232.036C39.4327 232.076 40.8851 232.11 42.6178 232.11C45.0191 232.11 45.781 232.071 45.8224 231.949ZM46.0321 229.248C46.0336 229.23 46.1228 228.405 46.2303 227.415C46.3378 226.425 46.4276 225.512 46.4298 225.386C46.4335 225.175 46.2576 225.161 44.0581 225.193L41.6824 225.229L40.9584 227.222C40.5602 228.319 40.2337 229.23 40.2329 229.248C40.2321 229.266 41.536 229.28 43.1304 229.28C44.7248 229.28 46.0305 229.266 46.0321 229.248ZM123.055 227.419L122.951 226.652L121.266 226.167C120.339 225.9 119.565 225.68 119.547 225.68C119.425 225.676 119.545 227.086 119.681 227.261C119.774 227.38 120.578 227.764 121.468 228.114C123.321 228.844 123.251 228.875 123.055 227.419ZM122.907 225.036C122.878 224.753 122.786 224.525 122.701 224.529C122.616 224.533 122.122 224.609 121.603 224.697L120.659 224.856L121.67 225.193C122.226 225.378 122.744 225.534 122.82 225.54C122.901 225.546 122.937 225.337 122.907 225.036ZM46.6169 223.91C46.6629 223.645 46.7011 223.242 46.702 223.015L46.7034 222.603L45.6585 222.565C44.6443 222.529 44.6135 222.518 44.6135 222.206C44.6135 221.894 44.6455 221.883 45.7519 221.82L46.8903 221.756L47.1267 220.341C47.2755 219.451 47.3158 218.881 47.2356 218.804C47.0431 218.62 47.0824 218.245 47.3067 218.126C47.464 218.042 48.0436 215.884 48.0505 215.357C48.0512 215.304 47.633 215.261 47.1213 215.261C46.2142 215.261 46.1843 215.271 45.9331 215.679C45.2795 216.739 43.3693 220.908 42.3385 223.524L41.9964 224.393H44.2649H46.5333L46.6169 223.91ZM120.807 223.491C124.01 223.108 126.433 221.838 127.35 220.062C127.611 219.555 127.67 219.239 127.67 218.341C127.67 217.326 127.631 217.165 127.166 216.283C126.889 215.756 126.364 215.014 125.999 214.634C125.634 214.254 125.304 213.791 125.266 213.605C125.228 213.419 125.253 212.636 125.323 211.864C125.439 210.583 125.31 208.155 125.097 207.627C125.04 207.484 124.844 207.484 123.922 207.63C122.166 207.907 122.255 207.866 122.156 208.454C121.887 210.058 120.627 211.074 118.906 211.074C117.553 211.074 116.576 210.523 115.985 209.428C115.742 208.976 115.681 208.94 115.29 209.007C115.054 209.047 114.601 209.118 114.283 209.165L113.704 209.25L113.786 209.844C113.933 210.905 114.137 211.831 114.481 212.986C114.672 213.63 114.783 214.256 114.736 214.433C114.691 214.604 114.416 215.096 114.125 215.525C113.288 216.761 113.109 217.404 113.109 219.183C113.109 220.477 113.155 220.821 113.39 221.307C113.916 222.392 114.968 223.136 116.412 223.442C117.339 223.639 119.382 223.661 120.807 223.491ZM118.839 219.866C118.521 219.661 118.308 219.385 118.186 219.021C118.025 218.539 118.032 218.429 118.254 218.004C118.59 217.359 119.102 217.026 119.759 217.026C121.211 217.026 121.921 218.729 120.87 219.69C120.31 220.202 119.471 220.274 118.839 219.866ZM48.497 213.557C48.6237 213.044 48.7645 212.494 48.8098 212.335C48.882 212.081 48.8418 212.045 48.4863 212.045C48.1206 212.045 48.012 212.154 47.3919 213.14C47.0132 213.743 46.7035 214.292 46.7035 214.362C46.7035 214.432 47.0551 214.489 47.485 214.489H48.2665L48.497 213.557ZM74.8489 214.09C79.0877 213.214 87.1923 210.73 90.6668 209.241L91.5513 208.863L91.6888 208.139L91.8263 207.415H90.9312C90.3418 207.415 89.9467 207.349 89.7744 207.222C89.5153 207.031 89.5153 207.027 89.7744 206.836C89.9516 206.706 90.3504 206.643 91.009 206.643H91.9819L92.0807 205.389C92.2817 202.839 92.0152 199.692 91.3891 197.222L91.169 196.354H88.2172H85.2655V197.319V198.283H86.5353C87.9712 198.283 88.2318 198.342 88.2318 198.669C88.2318 198.994 87.9708 199.055 86.5832 199.055H85.3612L86.0276 199.73C87.5685 201.291 88.0969 202.414 88.0969 204.126C88.0969 205.513 87.903 206.389 87.391 207.316C86.8824 208.236 86.3341 208.584 83.9875 209.474C80.5694 210.771 78.5484 211.079 76.6362 210.595C75.4033 210.283 73.1804 209.167 72.4518 208.494L71.8404 207.929L65.4405 207.934L59.0406 207.939L60.9957 208.623C62.9552 209.309 66.1344 210.564 67.0847 211.027C67.5505 211.254 67.9142 211.274 71.5636 211.274C73.7481 211.274 75.6315 211.309 75.7488 211.352C76.0246 211.453 76.0246 211.866 75.7488 211.967C75.6315 212.01 74.1312 212.045 72.4148 212.045H69.294L70.7067 212.797C71.4836 213.21 72.4194 213.731 72.7862 213.954C73.1529 214.178 73.4725 214.36 73.4964 214.36C73.5202 214.36 74.1289 214.239 74.8489 214.09ZM49.2733 210.791C49.4731 210.203 50.1514 208.89 50.4958 208.424C50.841 207.958 50.8248 207.929 50.2125 207.929C49.5852 207.929 49.5263 208.011 48.8757 209.773C48.3683 211.146 48.3605 211.274 48.7829 211.274C49.0413 211.274 49.1437 211.173 49.2733 210.791ZM62.4866 211.009C61.4711 210.569 57.6391 209.347 56.0315 208.95C55.1922 208.742 54.1594 208.573 53.7363 208.573C53.0798 208.573 52.8949 208.629 52.4741 208.96C52.0129 209.323 51.1529 210.716 51.1529 211.101C51.1529 211.243 52.2203 211.273 57.1192 211.271L63.0856 211.268L62.4866 211.009ZM119.885 209.602C120.127 209.462 120.445 209.158 120.592 208.927C121.133 208.081 120.811 206.924 119.885 206.385C118.998 205.869 117.785 206.177 117.22 207.06C116.679 207.906 117.001 209.063 117.927 209.602C118.172 209.745 118.605 209.858 118.906 209.858C119.207 209.858 119.64 209.745 119.885 209.602ZM115.301 207.713C115.487 207.671 115.638 207.513 115.69 207.304C115.915 206.409 116.552 205.63 117.423 205.188C118.18 204.804 119.634 204.806 120.402 205.193C120.931 205.459 121.713 206.186 121.829 206.52C121.873 206.645 122.085 206.647 122.822 206.529C124.625 206.242 124.524 206.285 124.309 205.894C123.695 204.779 122.154 203.972 120.419 203.855C116.678 203.603 114.251 204.948 113.793 207.526L113.716 207.959L114.356 207.871C114.708 207.822 115.133 207.751 115.301 207.713ZM156.882 207.235C161.734 206.349 166.341 203.249 169.549 198.714C170.024 198.043 170.268 197.557 170.311 197.196C170.368 196.707 170.331 196.629 169.824 196.192C169.182 195.639 168.283 195.196 166.232 194.421C163.034 193.212 161.589 191.995 160.632 189.706C160.197 188.666 159.635 187.916 159.176 187.763C158.414 187.51 157.042 187.944 154.873 189.125C154.261 189.458 153.761 189.772 153.761 189.824C153.761 189.876 153.964 190.223 154.213 190.596C154.874 191.584 155.243 192.317 155.243 192.641C155.243 193.343 154.311 193.645 153.805 193.106C153.655 192.947 153.315 192.438 153.049 191.976C152.01 190.17 150.306 188.146 149.153 187.35C148.449 186.863 147.738 186.83 147.311 187.263L147.017 187.562L147.987 190.157L148.957 192.753H149.505C150.225 192.753 152.337 193.298 153.493 193.782C153.998 193.994 154.45 194.167 154.497 194.167C154.687 194.167 156.154 195.125 156.636 195.563C157.038 195.929 157.693 196.703 158.154 197.359C158.17 197.382 158.667 197.058 159.259 196.639C160.656 195.651 162.024 194.927 162.641 194.848C163.25 194.77 163.646 195.114 163.579 195.663C163.533 196.042 163.353 196.182 161.873 196.978C161.433 197.215 160.656 197.707 160.147 198.073L159.221 198.737L159.267 199.7C159.387 202.199 158.458 203.968 156.619 204.744C155.873 205.059 153.815 205.351 152.32 205.354C151.21 205.357 149.527 205.09 149.021 204.832C148.811 204.725 148.696 204.739 148.514 204.896C148.199 205.168 147.651 205.154 147.379 204.866C147.257 204.738 146.89 204 146.564 203.227C144.548 198.449 143.923 197.11 142.138 193.751C138.777 187.427 135.198 183.188 132.104 181.868C131.212 181.488 129.774 181.329 129.187 181.547L128.816 181.685V184.82V187.955L129.761 188.894C131.354 190.478 132.36 191.742 138.081 199.347C140.51 202.575 142.376 204.252 144.951 205.52C147.048 206.554 149.117 207.113 152.142 207.465C152.996 207.565 155.83 207.427 156.882 207.235ZM52.4338 206.969C53.1292 206.73 54.2442 206.727 55.2653 206.962C55.922 207.114 57.53 207.149 63.8092 207.153L71.544 207.158L71.4627 206.868C71.418 206.709 71.3806 206.246 71.3796 205.839L71.3777 205.1H61.3425H51.3073L50.8425 205.839C49.9441 207.269 49.9325 207.158 50.9796 207.156C51.4828 207.155 52.1372 207.071 52.4338 206.969ZM71.58 204.026C71.58 203.861 71.1129 203.518 70.046 202.901L68.512 202.013H61.2621H54.0122L53.1624 202.946C52.6951 203.458 52.224 203.98 52.1156 204.104C51.9279 204.319 52.3855 204.328 61.7492 204.297C71.2102 204.265 71.58 204.255 71.58 204.026ZM120.187 202.293C121.828 201.926 122.875 201.568 124.619 200.778C127.813 199.332 130.18 197.228 131.391 194.76L131.813 193.901L131.463 193.42C130.836 192.557 129.076 190.566 128.94 190.566C128.857 190.566 128.822 191.283 128.845 192.474C128.887 194.573 128.816 194.811 128.142 194.811C127.381 194.811 127.408 195.11 127.307 185.696C127.255 180.917 127.179 176.879 127.138 176.722C127.065 176.442 127.035 176.449 125.642 177.076C121.417 178.977 117.592 179.54 113.522 178.86C109.248 178.146 104.579 177.114 101.345 176.166L99.5703 175.646H94.771H89.9717L90.0119 176.45L90.052 177.254L95.2027 177.319C99.2142 177.369 100.392 177.42 100.529 177.552C100.672 177.691 100.657 177.755 100.442 177.906C100.226 178.058 99.3046 178.09 95.1499 178.09H90.1194V178.733V179.376H98.0487C104.891 179.376 106.014 179.403 106.24 179.569C106.499 179.76 106.499 179.764 106.24 179.955C106.014 180.122 104.891 180.148 98.0487 180.148H90.1194V180.984V181.82H100.476C109.475 181.82 110.866 181.845 111.094 182.013C111.353 182.204 111.353 182.208 111.094 182.399C110.866 182.567 109.483 182.592 100.543 182.592H90.2543V183.428V184.264H96.8353C102.479 184.264 103.454 184.291 103.678 184.457C103.937 184.648 103.937 184.652 103.678 184.843C103.454 185.008 102.479 185.036 96.8353 185.036H90.2543L90.2528 185.389C90.2514 185.584 90.2137 185.96 90.1677 186.225L90.0841 186.708H92.503C94.4469 186.708 94.9732 186.745 95.1836 186.901C95.4427 187.092 95.4427 187.095 95.1836 187.286C94.9728 187.442 94.4413 187.479 92.4532 187.479H89.9846V188.251V189.023H93.397C96.2241 189.023 96.8544 189.056 97.0712 189.216C97.3303 189.407 97.3303 189.411 97.0712 189.601C96.8554 189.761 96.2466 189.794 93.5993 189.794C91.8337 189.794 90.3891 189.819 90.3891 189.849C90.3891 189.88 90.6592 190.473 90.9894 191.168L91.5897 192.431L93.6124 192.495C95.7655 192.564 96.2632 192.702 95.7229 193.083C95.5278 193.22 95.0215 193.267 93.7341 193.267C92.4379 193.267 92.0092 193.307 92.0155 193.428C92.0201 193.516 92.187 194.023 92.3863 194.553L92.7487 195.518L93.5577 195.583C94.7646 195.679 95.0649 195.964 94.2882 196.276L93.8726 196.442L95.1983 197.264C99.4829 199.919 104.754 201.673 110.412 202.325C113.006 202.624 113.137 202.63 116.209 202.588C118.46 202.558 119.276 202.497 120.187 202.293ZM73.0631 202.27C73.304 202.016 73.2987 202.013 72.6458 202.014L71.9845 202.015L72.389 202.271C72.6115 202.411 72.7992 202.527 72.8063 202.527C72.8133 202.527 72.9289 202.412 73.0631 202.27ZM65.917 200.699C65.3238 200.407 64.2013 199.919 63.4226 199.613L62.0069 199.057L59.7971 199.056L57.5873 199.055L56.6959 199.756C56.2057 200.142 55.5923 200.633 55.3327 200.846L54.8608 201.234L60.9282 201.231L66.9957 201.228L65.917 200.699ZM74.3899 200.888C74.6579 200.693 75.01 200.443 75.1723 200.332L75.4674 200.13L75.1506 199.593L74.8337 199.055H70.7142H66.5946L68.6154 200.142L70.6362 201.229L72.2693 201.235C73.8475 201.241 73.9189 201.23 74.3899 200.888ZM77.6474 199.183C77.8638 199.095 77.8171 199.071 77.4115 199.064C77.1334 199.059 76.9059 199.113 76.9059 199.183C76.9059 199.337 77.2728 199.337 77.6474 199.183ZM74.0421 197.92C73.8374 197.403 74.0063 196.89 74.4135 196.792C75.0071 196.65 75.3701 196.841 75.8993 197.574L76.4114 198.283H78.5522H80.693L80.6534 197.351L80.6138 196.418L72.1593 196.385L63.7049 196.352L63.3451 196.938C63.1473 197.26 63.0079 197.544 63.0355 197.57C63.063 197.595 63.4496 197.761 63.8946 197.938L64.7036 198.261L69.4447 198.272L74.1858 198.283L74.0421 197.92ZM83.5126 197.254V196.354H82.9733H82.434V197.168C82.434 197.617 82.4744 198.022 82.5239 198.069C82.5733 198.116 82.816 198.155 83.0632 198.155H83.5126V197.254ZM69.7598 195.524C69.7598 195.38 68.4048 194.915 67.6066 194.786C66.8707 194.666 66.6013 194.677 65.9668 194.854C65.5492 194.971 65.0638 195.18 64.8881 195.32L64.5687 195.574L67.1642 195.578C68.5918 195.58 69.7598 195.556 69.7598 195.524ZM80.411 195.293C80.4107 195.134 80.299 194.627 80.1628 194.167L79.9151 193.331L76.0803 193.297L72.2454 193.263L71.7303 193.766L71.2152 194.27L71.4987 194.54C71.6608 194.695 71.7822 194.976 71.7822 195.196V195.582H76.0969H80.4115L80.411 195.293ZM83.3175 194.778C83.1332 193.221 83.161 193.267 82.408 193.267C81.836 193.267 81.7518 193.299 81.8132 193.492C81.8526 193.616 81.9481 194.007 82.0256 194.36C82.3119 195.668 82.2533 195.582 82.8585 195.582H83.4126L83.3175 194.778ZM90.7972 195.229C90.7353 195.034 90.5455 194.513 90.3752 194.071L90.0657 193.267H87.4487H84.8317L84.9072 193.556C84.9487 193.716 85.0243 194.237 85.0753 194.714L85.1679 195.582H88.0387H90.9096L90.7972 195.229ZM144.801 194.051C144.871 193.987 145.429 193.747 146.041 193.518C146.653 193.289 147.153 193.044 147.153 192.973C147.153 192.795 145.663 188.836 145.061 187.416C144.278 185.566 143.5 184.249 142.774 183.539C142.157 182.938 142.018 182.866 141.21 182.736C140.722 182.656 140.006 182.592 139.618 182.592C138.831 182.592 137.084 182.935 136.97 183.113C136.929 183.176 137.31 183.686 137.818 184.246C139.587 186.2 141.574 189.115 143.385 192.417C144.298 194.081 144.505 194.32 144.801 194.051ZM82.8385 192.368C82.8385 192.298 82.6536 191.691 82.4277 191.018L82.0168 189.794H79.7265C77.527 189.794 77.4084 189.808 76.7328 190.13C75.9733 190.493 74.1228 191.65 73.4676 192.172L73.0631 192.494H77.9508C81.0804 192.494 82.8385 192.45 82.8385 192.368ZM89.3191 191.692C89.1076 191.249 88.7915 190.642 88.6168 190.342L88.2992 189.797L86.0937 189.795C84.0483 189.794 83.8949 189.811 83.9793 190.019C84.0294 190.143 84.1913 190.678 84.3391 191.209C84.4869 191.74 84.6326 192.246 84.6627 192.334C84.7041 192.455 85.3354 192.495 87.2107 192.495H89.7036L89.3191 191.692ZM81.4922 188.769C81.3378 188.494 80.9546 188.513 80.007 188.841C79.5522 188.999 79.5732 189.005 80.5848 189.014C81.5889 189.022 81.6283 189.012 81.4922 188.769ZM87.6924 188.956C87.6924 188.92 87.5046 188.573 87.2751 188.185L86.8577 187.479H84.9155C83.5129 187.479 82.9733 187.521 82.9733 187.631C82.9733 187.715 83.1055 188.062 83.267 188.403L83.5607 189.023H85.6266C86.7628 189.023 87.6924 188.993 87.6924 188.956ZM87.7797 186.249C88.2296 185.897 88.3666 185.702 88.3666 185.413C88.3666 185.069 88.3256 185.036 87.9057 185.036C87.2781 185.036 87.0183 184.923 87.0183 184.65C87.0183 184.377 87.2781 184.264 87.9057 184.264C88.356 184.264 88.3666 184.252 88.3666 183.732V183.2L87.7262 183.283C86.6694 183.42 85.772 183.929 84.7673 184.961C84.2626 185.479 83.7401 186.084 83.6061 186.305L83.3626 186.708H85.2776H87.1928L87.7797 186.249ZM119.513 177.567C121.816 177.244 125.808 175.618 128.547 173.886C132.595 171.327 136.948 167.212 139.921 163.134C144.392 157.001 146.931 150.288 147.885 142.077C148.444 137.262 148.543 130.031 148.174 121.048C148.061 118.29 147.934 115.106 147.893 113.974C147.522 103.809 146.052 96.612 142.879 89.4235C136.665 75.3438 125.75 66.6095 111.895 64.63C109.978 64.3561 103.56 64.398 101.513 64.6977C99.3346 65.0165 96.759 65.6483 94.6363 66.3845C91.7113 67.399 91.5565 67.3396 97.1386 67.3454C101.308 67.3498 102.108 67.3803 102.33 67.5435C102.589 67.7345 102.589 67.7384 102.33 67.9293C102.106 68.094 101.21 68.1223 96.2034 68.1223H90.3388L88.9819 68.8512C88.2356 69.2521 87.4138 69.7152 87.1555 69.8801L86.686 70.1801H94.7815C101.771 70.1801 102.913 70.2065 103.139 70.3731C103.398 70.564 103.398 70.5679 103.139 70.7589C102.912 70.9258 101.701 70.9518 94.1469 70.9518H85.4169L84.3636 71.7199C83.7844 72.1423 83.1587 72.6041 82.9733 72.746L82.6362 73.004L91.6105 73.0069C99.3783 73.0093 100.62 73.0357 100.847 73.2026C101.106 73.3936 101.106 73.3975 100.847 73.5885C100.62 73.7558 99.3281 73.7815 91.1386 73.7822L81.6924 73.783L80.3441 74.9977L78.9958 76.2124L89.0487 76.2188C97.7715 76.2243 99.1363 76.2507 99.3634 76.4181C99.6224 76.609 99.6224 76.6129 99.3634 76.8039C99.1359 76.9716 97.738 76.9968 88.685 76.9968H78.2683L77.304 78.0579C76.7735 78.6415 76.2202 79.2782 76.0742 79.4727L75.8088 79.8264H88.3316C99.2568 79.8264 100.888 79.851 101.116 80.0193C101.375 80.2103 101.375 80.2142 101.116 80.4052C100.888 80.5736 99.2209 80.5981 88.008 80.5981H75.1615L74.6329 81.2807C74.3422 81.6561 73.8834 82.2928 73.6133 82.6955L73.1223 83.4277H86.112C97.4521 83.4277 99.1349 83.4522 99.3634 83.6207C99.6224 83.8116 99.6224 83.8155 99.3634 84.0065C99.1348 84.175 97.4235 84.1994 85.8541 84.1994H72.6065L71.8573 85.4617C71.4452 86.1559 71.1081 86.7636 71.1081 86.8121C71.1081 86.8607 77.2549 86.9004 84.7678 86.9004C96.7035 86.9004 98.4605 86.9248 98.6892 87.0933C98.9483 87.2843 98.9483 87.2882 98.6892 87.4792C98.4604 87.6478 96.6758 87.6721 84.5183 87.6721H70.6092L69.8474 89.2082C69.4284 90.053 69.0856 90.8054 69.0856 90.8802C69.0856 90.975 74.1769 91.0162 85.9139 91.0162C100.309 91.0162 102.78 91.0428 103.004 91.2004C103.742 91.7204 103.739 91.7205 85.7748 91.7879L68.6345 91.8522L68.0566 93.3313C67.7387 94.1448 67.4761 94.8538 67.4731 94.9069C67.4701 94.9599 75.6774 95.0033 85.7116 95.0033C101.722 95.0033 103.988 95.0269 104.217 95.1962C104.476 95.3872 104.476 95.3911 104.217 95.5821C103.988 95.7514 101.708 95.775 85.5825 95.775H67.2094L66.944 96.6432C66.5912 97.7975 66.3906 98.5189 66.3897 98.6368C66.3893 98.6898 74.8111 98.7332 85.1049 98.7332C101.535 98.7332 103.853 98.7568 104.082 98.9261C104.342 99.1171 104.342 99.121 104.082 99.312C103.853 99.4814 101.522 99.5049 84.9876 99.5049H66.1544L65.9923 100.309C65.9032 100.751 65.7977 101.243 65.7579 101.402L65.6856 101.691H84.8206C101.623 101.691 103.987 101.715 104.217 101.884C104.476 102.075 104.476 102.079 104.217 102.27C103.987 102.44 101.619 102.463 84.7824 102.463H65.6092L65.5354 102.753C65.4948 102.912 65.4198 103.404 65.3686 103.846L65.2755 104.65H81.9863C96.6342 104.65 98.7294 104.673 98.9589 104.843C99.2179 105.034 99.2179 105.037 98.9589 105.228C98.7294 105.398 96.6305 105.421 81.9532 105.421H65.2092L65.1249 105.823C65.0786 106.044 65.0406 106.421 65.0406 106.659V107.093H78.6329C90.5087 107.093 92.2582 107.118 92.4869 107.286C92.746 107.477 92.746 107.481 92.4869 107.672C92.2582 107.841 90.5087 107.865 78.6329 107.865H65.0406L65.0416 108.476C65.0421 108.812 65.0812 109.478 65.1285 109.955L65.2144 110.823H78.585C90.2637 110.823 91.9886 110.848 92.2172 111.016C92.4763 111.207 92.4763 111.211 92.2172 111.402C91.9887 111.571 90.269 111.595 78.6329 111.595C70.5339 111.595 65.3103 111.642 65.3103 111.714C65.3103 111.912 65.581 113.824 65.653 114.135L65.7199 114.425L78.0208 114.426C84.7863 114.427 90.4582 114.463 90.625 114.506C90.974 114.595 91.0338 115.002 90.7151 115.118C90.5978 115.161 84.9475 115.196 78.1589 115.196H65.8159L65.9002 115.598C65.9465 115.819 65.9845 116.073 65.9845 116.162C65.9845 116.257 66.2486 116.362 66.6196 116.415C67.6483 116.563 68.6108 116.968 69.6991 117.713L70.72 118.412H81.2703C90.4422 118.412 91.8549 118.437 92.0824 118.605C92.3415 118.796 92.3415 118.8 92.0824 118.99C91.8551 119.158 90.4856 119.183 81.6608 119.183H71.5009L72.227 120.052C72.6263 120.529 73.1476 121.195 73.3853 121.531L73.8177 122.142H85.4484C95.5806 122.142 97.1129 122.166 97.3409 122.335C97.6 122.526 97.6 122.529 97.3409 122.72C97.113 122.888 95.6099 122.913 85.7116 122.913C79.4595 122.913 74.3441 122.945 74.3441 122.984C74.3441 123.023 74.4406 123.233 74.5585 123.45C74.6897 123.692 74.7548 124.065 74.7261 124.409L74.6792 124.971H85.6095C95.1191 124.971 96.5738 124.996 96.8015 125.164C97.0606 125.355 97.0606 125.359 96.8015 125.55C96.5729 125.719 94.8159 125.743 82.8801 125.743C75.3673 125.743 69.2204 125.772 69.2204 125.808C69.2204 125.844 69.499 126.365 69.8394 126.966L70.4584 128.058H84.78C97.3041 128.058 99.1345 128.082 99.3634 128.251C99.6224 128.442 99.6224 128.446 99.3634 128.637C99.1345 128.805 97.324 128.83 84.9588 128.83C73.6994 128.83 70.8293 128.863 70.8815 128.991C70.9176 129.079 71.2108 129.916 71.5332 130.851L72.1193 132.551L86.824 132.555C99.684 132.559 101.561 132.584 101.79 132.753C102.049 132.944 102.049 132.947 101.79 133.138C101.561 133.307 99.6998 133.331 86.9251 133.331L72.3216 133.331V133.925C72.3216 134.441 72.2544 134.583 71.8122 135.005C71.2635 135.528 70.2329 135.904 69.344 135.904C68.9025 135.904 68.8245 135.952 68.6943 136.309C68.6129 136.532 68.5463 136.734 68.5463 136.759C68.5463 136.784 75.5729 136.804 84.161 136.804C97.8346 136.804 99.8083 136.828 100.038 136.997C100.297 137.188 100.297 137.192 100.038 137.383C99.8083 137.552 97.8196 137.576 84.0262 137.576H68.2766V138.585C68.2766 139.714 68.4298 140.272 68.9089 140.888C69.3828 141.497 69.9055 141.711 70.8073 141.666C71.7461 141.619 71.9323 141.38 71.7676 140.438C71.4628 138.694 71.4632 138.523 71.7725 138.228C72.09 137.925 72.528 137.958 72.8168 138.307C73.0427 138.58 73.4483 140.851 73.3525 141.308L73.2721 141.691H89.6925C104.082 141.691 106.145 141.715 106.375 141.884C106.634 142.075 106.634 142.079 106.375 142.27C106.145 142.439 104.066 142.463 89.5453 142.463H72.9777L72.5485 142.772C71.5539 143.488 70.4166 143.512 69.0329 142.846C68.2482 142.468 68.212 142.463 66.0278 142.463H63.8171L64.3696 143.239C64.6734 143.666 65.1067 144.216 65.3324 144.461L65.7427 144.907H84.3772C100.735 144.907 103.044 144.93 103.273 145.1C103.533 145.291 103.533 145.295 103.273 145.486C103.044 145.655 100.776 145.679 84.7413 145.679H66.4709L66.9355 146.144C67.1911 146.4 67.7522 146.892 68.1825 147.237L68.9648 147.865H85.5838C100.15 147.865 102.235 147.889 102.465 148.058C102.724 148.249 102.724 148.253 102.465 148.444C102.236 148.612 100.532 148.637 89.0195 148.637H75.8363L76.0848 149.055C76.2215 149.285 76.5021 149.892 76.7083 150.405L77.0833 151.338H91.3959C103.608 151.338 105.747 151.365 105.97 151.522C106.7 152.036 106.554 152.042 91.6689 152.109L77.4564 152.174L77.9612 153.267L78.466 154.36L89.7467 154.425C98.8309 154.476 101.062 154.522 101.203 154.658C101.347 154.798 101.331 154.861 101.116 155.012C100.894 155.168 99.1957 155.196 89.8914 155.196C83.8617 155.196 78.9283 155.227 78.9283 155.263C78.9283 155.3 79.1717 155.792 79.4692 156.357L80.01 157.383H91.9828C102.164 157.383 103.995 157.41 104.217 157.567C104.432 157.718 104.448 157.782 104.304 157.921C104.162 158.057 101.833 158.103 92.2716 158.155L80.4146 158.219L81.0699 159.312L81.7252 160.405L91.7808 160.47C99.8514 160.521 101.871 160.567 102.012 160.703C102.156 160.843 102.14 160.906 101.925 161.057C101.704 161.213 100.173 161.241 91.9737 161.241H82.2839L82.5157 161.616C82.6432 161.821 83.0876 162.444 83.5032 162.998L84.259 164.007L92.1713 164.071C100.296 164.137 100.725 164.166 100.252 164.618C100.123 164.741 98.318 164.793 92.5248 164.843L84.9659 164.907L86.4093 166.354L87.8526 167.801H96.2412C103.491 167.801 104.665 167.827 104.891 167.994C105.151 168.185 105.151 168.189 104.891 168.38C104.666 168.546 103.546 168.573 96.7341 168.573L88.8385 168.574L89.243 168.895C89.4655 169.071 90.2239 169.592 90.9284 170.052L92.2093 170.889L99.8353 170.888C106.408 170.888 107.497 170.914 107.723 171.081C107.982 171.272 107.982 171.275 107.723 171.466C107.499 171.632 106.478 171.661 100.577 171.67L93.6925 171.681L95.0408 172.312C96.5385 173.014 99.1955 174.04 100.822 174.545C101.879 174.873 101.907 174.875 106.56 174.875C110.511 174.875 111.277 174.905 111.498 175.068C111.757 175.259 111.757 175.263 111.498 175.454C111.284 175.612 110.661 175.649 108.06 175.661L104.884 175.675L106.951 176.166C109.209 176.701 113.763 177.547 115.264 177.71C116.296 177.821 118.136 177.76 119.513 177.567ZM118.986 150.565C117.95 150.354 117.433 149.599 117.996 149.118C118.126 149.008 118.596 148.812 119.041 148.683C120.206 148.346 123.936 148.349 125.136 148.688C126.964 149.205 126.729 149.975 124.622 150.376C123.398 150.608 119.796 150.729 118.986 150.565ZM125.041 138.219C124.677 137.872 124.699 137.721 125.201 137.069L125.631 136.511L124.598 133.539C124.029 131.904 123.414 129.958 123.23 129.216C122.59 126.639 122.212 122.854 122.213 119.055C122.214 116.691 122.309 116.316 122.929 116.248C123.649 116.169 123.692 116.31 123.695 118.717C123.698 122.56 124.066 126.462 124.646 128.82C124.792 129.417 125.396 131.32 125.988 133.051C126.579 134.781 127.063 136.351 127.063 136.54C127.063 137.176 126.003 138.476 125.483 138.476C125.388 138.476 125.189 138.36 125.041 138.219ZM121.31 136.882C120.98 136.611 120.95 136.529 121.069 136.209C121.15 135.987 121.353 135.794 121.585 135.716C121.921 135.603 122.007 135.631 122.291 135.946C122.694 136.393 122.693 136.483 122.283 136.874C121.873 137.266 121.779 137.266 121.31 136.882ZM131.935 122.458C130.226 122.104 128.186 120.95 127.002 119.667C126.235 118.836 125.387 117.261 125.17 116.263C124.975 115.367 125.071 114.037 125.384 113.289C126.109 111.561 132.247 109.531 136.721 109.539C138.337 109.542 139.59 109.813 140.899 110.441C142.429 111.176 143.418 112.045 143.786 112.981C144.687 115.267 144.023 117.312 141.696 119.421C138.973 121.888 135.062 123.105 131.935 122.458ZM135.68 121.172C136.731 120.936 138.479 120.169 139.553 119.473C140.591 118.8 142.037 117.33 142.441 116.535C142.822 115.785 142.935 114.604 142.705 113.779C142.388 112.644 140.33 111.267 138.457 110.936C137.425 110.754 134.643 110.864 133.131 111.146C131.005 111.542 128.626 112.385 127.11 113.28C126.536 113.618 126.34 114.218 126.419 115.395C126.586 117.882 129.008 120.416 131.934 121.167C132.888 121.412 134.603 121.414 135.68 121.172ZM133.576 115.132C133.003 114.749 133.113 113.578 133.744 113.347C134.739 112.983 135.705 113.918 135.233 114.788C134.924 115.357 134.153 115.517 133.576 115.132ZM102.468 121.871C97.7681 121.217 93.9814 118.335 93.6722 115.176C93.5718 114.151 93.8233 112.938 94.2134 112.565C94.6105 112.187 96.3693 111.505 97.9162 111.131C99.6637 110.708 101.657 110.477 105.115 110.298C109.65 110.062 111.939 110.337 114.141 111.383C115.51 112.032 115.659 112.262 115.659 113.717C115.659 114.969 115.352 115.841 114.459 117.122C112.443 120.015 108.222 122.049 104.344 121.996C103.751 121.988 102.907 121.932 102.468 121.871ZM106.232 120.599C110.197 119.981 114.047 116.904 114.35 114.111C114.47 112.996 114.382 112.847 113.327 112.383C111.473 111.568 109.06 111.342 104.816 111.585C100.247 111.848 98.2238 112.182 96.0989 113.026C95.1907 113.387 95.1096 113.451 95.0274 113.869C94.8814 114.611 95.054 115.746 95.4162 116.426C96.9753 119.355 101.937 121.269 106.232 120.599ZM106.906 115.562C105.87 115.022 106.222 113.653 107.397 113.653C108.505 113.653 108.884 115.041 107.908 115.523C107.458 115.745 107.27 115.752 106.906 115.562ZM128.449 108.032C128.061 107.961 126.972 106.986 126.862 106.613C126.801 106.406 126.874 106.234 127.125 105.994C127.536 105.602 127.845 105.651 128.524 106.216C128.785 106.433 129.067 106.562 129.198 106.524C129.322 106.488 130.333 106.285 131.445 106.073C134.469 105.498 136.114 105.378 139.603 105.479C142.958 105.576 143.243 105.642 143.243 106.317C143.243 107.027 143.051 107.061 139.427 106.992C135.717 106.922 134.611 107.013 131.128 107.677C129.841 107.922 128.779 108.114 128.768 108.105C128.758 108.095 128.614 108.062 128.449 108.032ZM95.9219 107.616C95.7134 107.245 95.7526 106.902 96.0311 106.661C96.3084 106.422 99.0582 105.994 103.131 105.558C106.795 105.165 108.316 105.112 111.104 105.283C114.089 105.466 115.986 105.346 117.054 104.908C117.795 104.604 118.157 104.67 118.432 105.16C118.778 105.777 117.851 106.429 116.219 106.717C115.797 106.791 113.395 106.83 110.459 106.809C105.087 106.771 104.869 106.785 99.3637 107.549C96.5477 107.939 96.1078 107.947 95.9219 107.616ZM96.7936 174.643C95.8302 174.273 92.6006 172.723 91.6715 172.184C90.9667 171.776 90.6314 171.659 90.1586 171.659C89.7077 171.659 89.569 171.704 89.6203 171.831C89.6582 171.925 89.7332 172.649 89.7869 173.439L89.8845 174.875L93.6087 174.862C97.1727 174.85 97.3098 174.841 96.7936 174.643ZM73.8009 149.153C74.7517 148.69 74.6106 148.637 72.4419 148.637C71.3128 148.637 70.4238 148.67 70.4664 148.711C70.5089 148.751 70.8982 148.923 71.3315 149.093C72.2949 149.471 73.1068 149.491 73.8009 149.153ZM67.3243 141.256C66.937 140.63 66.6191 139.061 66.7155 138.251L66.7958 137.576H64.1654C62.7187 137.576 61.535 137.603 61.535 137.637C61.535 137.807 62.2829 139.574 62.7748 140.566L63.3325 141.691H65.4629H67.5933L67.3243 141.256ZM67.1824 136.016C67.3358 135.583 67.618 135.032 67.8096 134.793C68.1503 134.367 68.1778 134.358 69.06 134.389C70.1685 134.428 70.771 134.191 70.771 133.715V133.396L65.8129 133.362L60.8549 133.328L60.9176 133.619C60.9521 133.779 61.0176 134.344 61.0631 134.875C61.1086 135.405 61.1805 136.056 61.2228 136.322L61.2998 136.804H64.1017H66.9035L67.1824 136.016ZM70.2776 131.717C70.1319 131.254 69.8171 130.429 69.5781 129.884L69.1436 128.894L66.6875 128.859C64.5977 128.829 64.1812 128.855 63.8945 129.035C63.5839 129.229 63.5314 129.229 63.2251 129.037C62.9935 128.893 62.585 128.83 61.8768 128.83H60.8608V130.695V132.56H65.7017H70.5425L70.2776 131.717ZM62.9785 127.126C63.0643 126.613 63.1755 126.092 63.2256 125.968C63.3074 125.766 63.2133 125.743 62.3056 125.743C61.1484 125.743 61.2134 125.668 61.051 127.19L60.9584 128.058H61.8905H62.8225L62.9785 127.126ZM68.3279 127.385C68.1311 127.014 67.826 126.493 67.6498 126.227L67.3294 125.743H66.2015C65.4043 125.743 65.0281 125.795 64.9185 125.921C64.7917 126.067 64.3775 127.605 64.3688 127.962C64.3675 128.015 65.3383 128.058 66.5261 128.058H68.6856L68.3279 127.385ZM64.2801 124.542C64.9239 124.073 66.4799 123.428 66.9671 123.428C67.4012 123.428 67.7863 123.721 68.2293 124.39L68.6137 124.971L71.1486 124.971L73.6835 124.971L73.1224 123.942L72.5612 122.913H67.2541H61.947L61.7467 123.589C61.6365 123.96 61.5069 124.423 61.4586 124.618L61.3709 124.971H62.5305C63.6375 124.971 63.7167 124.952 64.2801 124.542ZM71.9171 122.057C71.9171 121.896 71.1841 121.042 70.2499 120.116L69.3097 119.183H66.5776H63.8455L63.5837 119.537C63.3051 119.914 62.5461 121.313 62.3397 121.831L62.2158 122.142H67.0664C69.7343 122.142 71.9171 122.104 71.9171 122.057ZM67.535 118.147C66.8765 117.85 65.7157 117.824 65.1688 118.093C64.95 118.201 64.771 118.317 64.771 118.351C64.771 118.384 65.5142 118.407 66.4227 118.401L68.0744 118.391L67.535 118.147ZM74.9386 239.794C76.7317 233.804 76.9133 227.027 75.4675 220.05C75.1265 218.404 75.1226 218.336 75.3567 218.089C75.6665 217.762 75.9894 217.764 76.302 218.093C76.4704 218.271 76.5928 218.312 76.6869 218.222C76.7786 218.135 80.1388 218.09 86.6824 218.09C95.2383 218.09 96.5744 218.116 96.8015 218.283C97.0605 218.474 97.0605 218.478 96.7993 218.671C96.5681 218.841 95.2961 218.861 86.5788 218.831C76.8099 218.798 76.6236 218.802 76.6902 219.045C76.7276 219.181 76.8609 219.89 76.9866 220.621L77.215 221.949H79.143H81.071L81.5165 221.086C82.0089 220.133 82.3029 219.878 82.661 220.093C83.1374 220.38 83.1808 220.62 82.8794 221.3L82.592 221.949H89.0266C94.54 221.949 95.4987 221.976 95.7229 222.142C95.982 222.333 95.982 222.337 95.7229 222.528C95.4984 222.693 94.5199 222.72 88.8455 222.72H82.2298L81.6577 224.068C81.3431 224.81 81.0857 225.475 81.0857 225.547C81.0857 225.635 82.9982 225.679 86.7903 225.679C91.6548 225.679 92.5334 225.707 92.7566 225.872C93.0157 226.063 93.0157 226.066 92.7566 226.257C92.5331 226.422 91.634 226.45 86.6025 226.45C81.1167 226.45 80.7035 226.466 80.615 226.675C80.5628 226.799 80.1931 227.785 79.7934 228.867L79.0667 230.833L80.2336 230.796L81.4005 230.759L81.6813 229.971C82.1174 228.748 82.5176 228.471 83.0462 229.028C83.2639 229.258 83.2763 229.36 83.1437 229.832C83.06 230.13 82.9507 230.475 82.9006 230.598C82.8149 230.81 83.134 230.823 88.4613 230.823C93.1552 230.823 94.1572 230.855 94.3746 231.008C94.5896 231.159 94.6051 231.222 94.4612 231.361C94.3237 231.494 93.0233 231.545 88.4184 231.595L82.5508 231.659L82.0356 232.946C81.7523 233.653 81.4769 234.333 81.4235 234.457C81.3319 234.669 81.7128 234.682 88.3264 234.682C94.3424 234.682 95.3632 234.709 95.5881 234.875C95.8472 235.066 95.8472 235.07 95.5881 235.261C95.363 235.427 94.3237 235.454 88.158 235.454H80.9896L80.3795 236.708L79.7693 237.962L87.7018 238.026C93.7939 238.075 95.6733 238.128 95.8027 238.251C96.2774 238.704 95.8559 238.732 87.4498 238.798L79.2655 238.862L78.9284 239.473L78.5913 240.083H77.816C77.3896 240.083 77.0407 240.05 77.0407 240.01C77.0407 239.969 77.1982 239.68 77.3906 239.367L77.7405 238.797H77.2008C76.6661 238.797 76.6596 238.803 76.4884 239.44L76.3156 240.083H75.5838C74.8891 240.083 74.8563 240.069 74.9386 239.794ZM78.8399 236.772L79.4747 235.518L78.711 235.479C78.291 235.457 77.8734 235.467 77.7832 235.5C77.6437 235.551 77.0407 237.494 77.0407 237.893C77.0407 237.966 77.3027 238.026 77.6229 238.026H78.2052L78.8399 236.772ZM80.4184 233.299C80.7301 232.539 81.0143 231.844 81.0498 231.756C81.0984 231.635 80.8309 231.595 79.9737 231.595H78.8328L78.5415 232.528C78.3813 233.04 78.163 233.735 78.0564 234.071L77.8626 234.682H78.8572H79.8517L80.4184 233.299ZM79.1979 226.483C79.198 226.465 78.8552 226.45 78.4362 226.45H77.6745L77.7621 227.628C77.8103 228.275 77.8528 229.1 77.8565 229.461C77.8632 230.1 77.8795 230.073 78.5306 228.315C78.8976 227.325 79.1979 226.5 79.1979 226.483ZM80.0439 224.415C80.3193 223.731 80.5818 223.069 80.6273 222.946C80.7033 222.739 80.5703 222.721 79.0011 222.721C77.4375 222.721 77.298 222.74 77.3603 222.946C77.3977 223.069 77.4655 223.634 77.5109 224.2C77.6441 225.859 77.5629 225.749 78.6229 225.701L79.5433 225.66L80.0439 224.415ZM159.367 239.794C159.089 238.482 159.22 234.099 159.63 231.016C160.011 228.15 160.963 223.791 161.862 220.791C162.561 218.46 163.355 216.234 163.572 216C163.846 215.703 164.179 215.715 164.481 216.034C164.72 216.286 164.708 216.349 164.035 218.381C163.18 220.962 162.649 222.802 162.135 224.971C161.626 227.117 161.146 229.643 161.211 229.83C161.323 230.15 163.446 227.04 165.188 224.006C166.148 222.334 166.413 222.049 166.796 222.28C167.354 222.615 167.339 222.801 166.653 224.085C165.096 227 162.856 230.266 161.501 231.595L160.78 232.303L160.622 234.682C160.517 236.266 160.505 237.566 160.586 238.573L160.708 240.084H160.068C159.513 240.084 159.42 240.046 159.367 239.794ZM82.0632 215.433C81.8232 215.34 81.8544 214.917 82.1079 214.824C82.2252 214.781 85.2777 214.746 88.8912 214.746C94.525 214.746 95.4985 214.774 95.7229 214.939C95.982 215.13 95.982 215.134 95.7229 215.325C95.498 215.491 94.5313 215.516 88.8465 215.508C85.2084 215.502 82.1559 215.468 82.0632 215.433Z" fill="black"/>
<path d="M235.404 89.624C235.404 84.6 234.46 80.76 232.572 78.104C230.716 75.448 228.156 74.12 224.892 74.12C223.228 74.12 221.74 74.664 220.428 75.752C219.116 76.808 218.076 78.12 217.308 79.688C216.54 81.224 215.9 82.984 215.388 84.968C214.524 88.264 214.092 91.528 214.092 94.76C214.092 99.784 215.02 103.624 216.876 106.28C218.764 108.936 221.34 110.264 224.604 110.264C226.268 110.264 227.756 109.736 229.068 108.68C230.38 107.592 231.42 106.28 232.188 104.744C232.956 103.176 233.596 101.416 234.108 99.464C234.972 96.136 235.404 92.856 235.404 89.624ZM221.676 114.008C217.676 114.008 214.54 112.392 212.268 109.16C210.028 105.928 208.908 101.832 208.908 96.872C208.908 90.472 210.476 84.552 213.612 79.112C215.116 76.52 217.1 74.408 219.564 72.776C222.06 71.144 224.812 70.328 227.82 70.328C231.82 70.328 234.94 71.96 237.18 75.224C239.452 78.456 240.588 82.552 240.588 87.512C240.588 92.664 239.564 97.496 237.516 102.008C235.276 107 232.268 110.472 228.492 112.424C226.38 113.48 224.108 114.008 221.676 114.008ZM272.663 80.168C272.663 82.216 272.215 84.136 271.319 85.928C270.423 87.688 269.303 89.192 267.959 90.44C266.615 91.656 265.031 92.776 263.207 93.8C260.103 95.496 256.759 96.792 253.175 97.688C252.823 100.568 252.647 103.016 252.647 105.032C252.647 108.104 253.255 110.296 254.471 111.608C253.479 112.76 252.375 113.336 251.159 113.336C248.663 113.336 247.415 111.224 247.415 107C247.415 105.24 248.023 100.392 249.239 92.456C250.455 84.52 251.063 79.432 251.063 77.192C251.063 74.92 250.823 73.032 250.343 71.528C254.663 70.728 258.151 70.328 260.807 70.328C268.711 70.328 272.663 73.608 272.663 80.168ZM267.623 81.176C267.623 75.896 264.999 73.256 259.751 73.256C258.727 73.256 257.639 73.352 256.487 73.544C256.487 75.528 256.055 79.144 255.191 84.392C254.359 89.608 253.831 92.952 253.607 94.424C257.319 93.656 260.519 92.264 263.207 90.248C264.583 89.192 265.655 87.896 266.423 86.36C267.223 84.792 267.623 83.064 267.623 81.176ZM310.544 75.32C310.544 77.08 309.92 81.672 308.672 89.096C307.456 96.488 306.848 101.752 306.848 104.888C306.848 107.992 307.456 110.232 308.672 111.608C307.68 112.76 306.576 113.336 305.36 113.336C302.864 113.336 301.616 111.224 301.616 107C301.616 105.272 302.192 100.696 303.344 93.272C304.496 85.816 305.072 80.552 305.072 77.48C300.368 86.92 297.616 92.888 296.816 95.384C296.016 97.848 295.616 99.656 295.616 100.808C295.616 101.064 295.648 101.448 295.712 101.96C295.488 102.248 295.04 102.504 294.368 102.728C293.728 102.952 293.072 103.064 292.4 103.064C290.992 103.064 289.904 102.616 289.136 101.72C288.4 100.792 287.728 99.096 287.12 96.632C286.512 94.136 285.808 91.128 285.008 87.608C284.208 84.088 283.472 81.096 282.8 78.632C282.736 79.24 282.128 83.048 280.976 90.056C279.856 97.032 279.296 102.024 279.296 105.032C279.296 108.04 279.92 110.232 281.168 111.608C280.72 112.76 279.84 113.336 278.528 113.336C276.192 113.336 275.024 111.224 275.024 107C275.024 105.24 275.584 100.68 276.704 93.32C277.856 85.928 278.432 80.776 278.432 77.864C278.432 74.92 278.096 72.776 277.424 71.432C278.16 70.696 279.28 70.344 280.784 70.376C282.288 70.376 283.568 70.808 284.624 71.672C285.712 72.504 286.544 73.896 287.12 75.848C287.728 77.768 288.512 81.032 289.472 85.64C290.464 90.248 291.44 94.088 292.4 97.16C293.104 95.24 294.384 92.344 296.24 88.472C298.096 84.568 299.664 81.128 300.944 78.152C302.224 75.144 302.864 72.984 302.864 71.672C303.888 70.776 305.36 70.328 307.28 70.328C308.368 70.328 309.184 70.728 309.728 71.528C310.272 72.296 310.544 73.56 310.544 75.32Z" fill="#FCFCFC"/>
<path d="M191.898 151.46L191.934 151.928C191.142 152.216 190.47 152.36 189.918 152.36C188.934 152.36 188.322 151.844 188.082 150.812C186.114 142.436 184.578 137 183.474 134.504C182.658 132.608 181.998 131.432 181.494 130.976C181.014 130.496 180.594 130.256 180.234 130.256C180.498 129.44 180.918 128.84 181.494 128.456C182.07 128.072 182.634 127.88 183.186 127.88C184.65 127.88 185.874 129.116 186.858 131.588C187.29 132.74 188.046 135.644 189.126 140.3C190.23 144.932 190.806 147.644 190.854 148.436C193.158 142.556 194.562 138.152 195.066 135.224C194.37 133.472 193.65 132.404 192.906 132.02C193.17 131.516 193.566 131.096 194.094 130.76C194.646 130.424 195.21 130.256 195.786 130.256C196.89 130.256 197.67 130.808 198.126 131.912C198.558 133.064 199.29 135.908 200.322 140.444C201.354 144.98 201.894 147.644 201.942 148.436C203.19 145.58 204.246 142.388 205.11 138.86C205.974 135.332 206.406 132.728 206.406 131.048C206.406 130.352 206.262 129.776 205.974 129.32C206.55 128.432 207.414 127.988 208.566 127.988C209.646 127.988 210.186 128.636 210.186 129.932C210.186 131.228 209.49 134.072 208.098 138.464C206.73 142.832 205.23 146.6 203.598 149.768C203.19 150.56 202.986 151.088 202.986 151.352C202.986 151.616 202.998 151.808 203.022 151.928C202.182 152.216 201.51 152.36 201.006 152.36C200.022 152.36 199.398 151.844 199.134 150.812C197.79 145.22 196.902 141.596 196.47 139.94C195.222 143.804 193.902 147.08 192.51 149.768C192.126 150.56 191.922 151.124 191.898 151.46ZM223.27 130.076C222.142 130.076 221.158 130.508 220.318 131.372C219.502 132.212 218.89 133.28 218.482 134.576C217.714 136.976 217.33 139.412 217.33 141.884C217.33 144.332 217.834 146.288 218.842 147.752C219.85 149.216 221.254 149.948 223.054 149.948C224.206 149.948 225.202 149.528 226.042 148.688C226.882 147.824 227.506 146.744 227.914 145.448C228.682 142.976 229.066 140.528 229.066 138.104C229.066 135.656 228.55 133.712 227.518 132.272C226.51 130.808 225.094 130.076 223.27 130.076ZM221.29 152.612C218.794 152.612 216.862 151.676 215.494 149.804C214.126 147.932 213.442 145.556 213.442 142.676C213.442 140.924 213.718 139.16 214.27 137.384C214.822 135.584 215.578 133.94 216.538 132.452C217.498 130.94 218.734 129.716 220.246 128.78C221.758 127.844 223.39 127.376 225.142 127.376C227.638 127.376 229.558 128.312 230.902 130.184C232.27 132.056 232.954 134.432 232.954 137.312C232.954 140.264 232.282 143.06 230.938 145.7C229.474 148.556 227.59 150.56 225.286 151.712C224.038 152.312 222.706 152.612 221.29 152.612ZM241.729 152.252C239.857 152.252 238.921 150.668 238.921 147.5C238.921 146.18 239.173 143.948 239.677 140.804C240.181 137.66 240.433 135.08 240.433 133.064C240.433 131.048 240.181 129.56 239.677 128.6C240.277 128.048 241.009 127.772 241.873 127.772C243.625 127.772 244.501 128.684 244.501 130.508C244.501 131.156 244.345 132.488 244.033 134.504C243.745 136.52 243.553 137.9 243.457 138.644C244.753 135.236 246.205 132.512 247.813 130.472C249.445 128.408 250.789 127.376 251.845 127.376C252.445 127.376 252.889 127.664 253.177 128.24C253.489 128.816 253.645 129.404 253.645 130.004C253.645 130.604 253.573 131.216 253.429 131.84C253.069 131.768 252.733 131.732 252.421 131.732C250.885 131.732 249.337 132.632 247.777 134.432C246.241 136.232 245.029 138.212 244.141 140.372C243.277 142.532 242.845 144.32 242.845 145.736C242.845 148.232 243.301 149.972 244.213 150.956C243.469 151.82 242.641 152.252 241.729 152.252ZM260.032 146.024C260.032 148.28 260.488 149.924 261.4 150.956C260.656 151.82 259.828 152.252 258.916 152.252C257.044 152.252 256.108 150.668 256.108 147.5C256.108 146.324 256.54 142.82 257.404 136.988C258.268 131.156 258.7 126.968 258.7 124.424C258.7 121.856 258.448 120.068 257.944 119.06C258.52 118.532 259.264 118.268 260.176 118.268C261.112 118.268 261.784 118.556 262.192 119.132C262.6 119.708 262.804 120.572 262.804 121.724C262.804 122.852 262.684 124.304 262.444 126.08C262.204 127.856 261.88 130.028 261.472 132.596C261.088 135.164 260.8 137.24 260.608 138.824C262.912 136.616 264.904 134.48 266.584 132.416C268.264 130.328 269.212 128.84 269.428 127.952C270.412 127.952 271.192 128.108 271.768 128.42C272.368 128.732 272.668 129.128 272.668 129.608C272.668 130.4 269.92 133.352 264.424 138.464C266.752 142.4 268.432 144.992 269.464 146.24C270.904 147.992 272.356 148.976 273.82 149.192C273.796 150.368 273.484 151.196 272.884 151.676C272.308 152.132 271.732 152.36 271.156 152.36C269.668 152.36 268.024 150.968 266.224 148.184C265.384 146.864 264.532 145.46 263.668 143.972C262.804 142.484 262.192 141.44 261.832 140.84L260.212 142.28C260.092 143.792 260.032 145.04 260.032 146.024ZM286.622 130.076C285.494 130.076 284.51 130.508 283.67 131.372C282.854 132.212 282.242 133.28 281.834 134.576C281.066 136.976 280.682 139.412 280.682 141.884C280.682 144.332 281.186 146.288 282.194 147.752C283.202 149.216 284.606 149.948 286.406 149.948C287.558 149.948 288.554 149.528 289.394 148.688C290.234 147.824 290.858 146.744 291.266 145.448C292.034 142.976 292.418 140.528 292.418 138.104C292.418 135.656 291.902 133.712 290.87 132.272C289.862 130.808 288.446 130.076 286.622 130.076ZM284.642 152.612C282.146 152.612 280.214 151.676 278.846 149.804C277.478 147.932 276.794 145.556 276.794 142.676C276.794 140.924 277.07 139.16 277.622 137.384C278.174 135.584 278.93 133.94 279.89 132.452C280.85 130.94 282.086 129.716 283.598 128.78C285.11 127.844 286.742 127.376 288.494 127.376C290.99 127.376 292.91 128.312 294.254 130.184C295.622 132.056 296.306 134.432 296.306 137.312C296.306 140.264 295.634 143.06 294.29 145.7C292.826 148.556 290.942 150.56 288.638 151.712C287.39 152.312 286.058 152.612 284.642 152.612ZM301.984 146.492C301.984 145.172 302.2 143.108 302.632 140.3C303.088 137.492 303.316 135.08 303.316 133.064C303.316 131.048 303.064 129.56 302.56 128.6C303.16 128.048 303.88 127.772 304.72 127.772C306.496 127.772 307.384 128.684 307.384 130.508C307.384 131.108 307.096 133.412 306.52 137.42C305.968 141.428 305.692 144.38 305.692 146.276C305.692 148.172 306.268 149.12 307.42 149.12C308.38 149.12 309.544 147.992 310.912 145.736C312.28 143.48 313.444 140.948 314.404 138.14C315.364 135.308 315.844 133.22 315.844 131.876C315.844 130.508 315.664 129.416 315.304 128.6C315.928 128.048 316.66 127.772 317.5 127.772C319.276 127.772 320.164 128.684 320.164 130.508C320.164 131.828 319.936 133.856 319.48 136.592C319.024 139.328 318.796 141.476 318.796 143.036C318.796 146.444 319.36 149.072 320.488 150.92C319.768 151.808 318.952 152.252 318.04 152.252C315.976 152.252 314.944 149.72 314.944 144.656C314.944 144.176 315.088 142.604 315.376 139.94C313.336 144.764 311.632 148.064 310.264 149.84C309.688 150.608 309.04 151.256 308.32 151.784C307.624 152.312 306.94 152.576 306.268 152.576C303.412 152.576 301.984 150.548 301.984 146.492ZM329.587 129.32L329.659 127.664C329.659 125.432 329.407 123.812 328.903 122.804C329.143 122.588 329.503 122.396 329.983 122.228C330.487 122.06 330.931 121.976 331.315 121.976C332.155 121.976 332.779 122.264 333.187 122.84C333.595 123.416 333.799 124.388 333.799 125.756C333.799 126.284 333.655 127.472 333.367 129.32C336.319 129.272 338.275 128.924 339.235 128.276C339.043 129.836 338.503 130.88 337.615 131.408C336.727 131.936 335.143 132.224 332.863 132.272C331.759 139.064 331.207 144.164 331.207 147.572C331.207 148.364 331.375 148.952 331.711 149.336C332.071 149.72 332.527 149.912 333.079 149.912C333.655 149.912 334.267 149.672 334.915 149.192C335.563 148.688 336.079 148.064 336.463 147.32C336.895 147.848 337.111 148.412 337.111 149.012C337.111 149.948 336.643 150.776 335.707 151.496C334.795 152.192 333.607 152.54 332.143 152.54C330.679 152.54 329.515 152.156 328.651 151.388C327.811 150.596 327.391 149.36 327.391 147.68C327.391 146.168 327.667 143.516 328.219 139.724C328.771 135.908 329.119 133.436 329.263 132.308C327.127 132.308 325.543 132.632 324.511 133.28C324.511 132.176 324.619 131.396 324.835 130.94C325.051 130.484 325.339 130.16 325.699 129.968C326.587 129.536 327.883 129.32 329.587 129.32Z" fill="#FCFCFC"/>
</g>
<defs>
<clipPath id="clip0">
<rect width="360" height="240" fill="white"/>
</clipPath>
</defs>
</svg>
