<svg width="180" height="116" viewBox="0 0 180 116" fill="none" xmlns="http://www.w3.org/2000/svg">
<path d="M178.584 35.5654C177.702 34.6029 176.338 33.9212 175.215 33.2795C173.651 32.317 172.087 31.4347 170.483 30.5925C169.24 29.9508 168.036 29.3091 166.833 28.6273C166.192 27.6648 165.47 26.7023 164.748 25.7799C162.502 23.0929 159.655 21.3283 156.406 20.085C154.882 19.4835 153.318 19.0022 151.714 18.6413C150.31 18.4006 148.907 18.2402 147.463 18.2402C142.41 18.16 137.316 19.2027 132.744 21.3684C132.704 21.3684 132.664 21.3283 132.704 21.2882C135.231 19.2027 138.118 17.9194 141.166 17.2376C136.033 12.1443 129.295 8.89583 121.916 8.575C116.101 8.33437 111.088 10.3396 106.837 13.548C102.907 13.7485 99.0565 14.5907 95.1663 15.3928C91.6371 16.1548 88.1079 16.7564 84.5386 17.2376C84.0573 17.0772 83.5761 16.8767 83.0948 16.7162C81.4104 16.0746 79.726 15.3928 78.0015 14.7511C76.9588 14.3902 75.9161 14.0693 74.8333 13.7485C74.5525 11.1417 73.4697 8.73543 71.7853 6.60988C70.8228 5.36664 69.5795 4.40411 68.2561 3.56191C66.5717 2.51919 62.9643 1.40366 62.9643 1.40366L61.1596 1.00262C60.157 0.802093 60.157 0.752051 59.5554 0.60157C58.7533 0.400928 58.7533 0.401064 57.9512 0.200471C55.946 2.46572e-05 56.9486 0.200463 54.9434 0C52.5371 0 52.5371 -2.39042e-08 49.5293 0.401047C46.3209 1.40366 48.7272 0.60157 45.1178 2.20576C43.5136 3.56191 42.8116 4.05144 39.3406 6.60988C37.6984 7.82036 37.6984 7.82036 35.9718 9.42455C35.0916 12.0314 34.6905 14.0693 34.6905 16.7162C34.8911 18.6486 34.6484 23.4137 35.7713 23.534C37.4156 26.0606 38.2578 28.7877 39.3406 31.7154C39.862 33.119 41.1052 33.48 42.4287 33.3998C43.5115 35.8061 44.835 38.092 46.2787 40.2577C46.6798 40.8993 47.4418 42.4233 48.4043 42.2629C49.2064 42.1426 50.0486 41.7415 50.8507 41.2603C51.1314 41.9822 51.4121 42.7041 52.0939 43.1853C52.7356 43.6666 53.658 43.5864 54.5804 43.2655C54.821 43.7869 55.2221 44.228 55.7033 44.4687C56.4252 44.8697 57.0669 44.9901 57.869 45.1104C58.7914 45.2307 59.1924 46.113 59.8742 46.5541C60.5961 46.514 61.318 46.4338 61.9998 46.2333C64.8472 45.3911 65.8498 42.6239 67.1332 40.2176C68.3764 37.9316 70.7025 34.9238 70.7827 32.2367C70.8228 29.7904 69.5394 27.6648 68.2962 25.6596C68.2561 25.5794 68.3764 25.459 68.4165 25.5393C69.379 26.6221 70.502 27.9054 71.1436 29.3492C73.3494 32.357 76.5979 34.5628 78.7635 37.6108C78.8437 37.7311 78.6833 37.8514 78.563 37.7712C76.8385 36.4076 75.3145 34.7633 73.8306 33.1591C73.1088 32.3972 72.3468 31.6753 71.6249 30.8732C71.7051 31.3143 71.7452 31.7956 71.7051 32.2367C71.5046 34.5628 70.3816 36.6483 69.2186 38.6936C70.502 38.4129 71.7853 38.4931 73.1088 38.9743C73.189 39.0144 73.1489 39.1347 73.0686 39.1347C71.5046 38.7738 69.9806 39.0946 68.5769 39.8165C68.3764 40.1374 68.216 40.4582 68.0556 40.779C66.7722 43.1853 65.6493 46.1531 63.0826 47.3963C62.481 47.677 61.7992 47.8776 61.0774 47.9578C61.0373 47.9979 61.0373 48.0781 60.9971 48.1182C58.27 48.1182 55.5429 48.6396 53.0163 49.6021C50.0085 50.7651 47.4819 53.0511 45.2761 55.2969C43.1105 57.5027 41.3458 60.0694 40.3031 63.0371C39.6213 64.9622 39.4609 67.0476 39.5412 69.1331C35.6911 70.5367 32.3624 72.6222 29.7556 76.1514C29.7155 76.2316 29.6754 76.2717 29.5952 76.3519C29.4749 76.6727 29.3546 76.9535 29.2342 77.2743C27.7905 81.4051 27.5899 86.6588 29.9561 90.5088C30.0764 90.6693 29.7957 90.8297 29.6754 90.6693C28.8733 89.3458 28.2316 87.9823 27.7905 86.6187C27.6301 89.7068 26.9483 92.7146 25.8654 95.3615C25.8253 95.4818 25.6248 95.4417 25.6649 95.3214C26.3868 91.712 26.8681 88.1828 26.5071 84.4931C26.4269 83.5707 26.3066 82.6483 26.1462 81.766C24.542 79.6806 22.5769 77.7957 21.0128 75.991C17.5237 71.9404 14.3554 67.8096 12.1095 62.9971C12.1095 62.9569 12.1497 62.9168 12.1497 62.8767C11.7887 62.8366 11.4278 62.8767 11.1069 62.9971C9.86368 63.358 8.70064 63.7189 7.41729 63.3179C5.33185 62.7163 2.80527 61.834 2.56464 59.3475C2.52453 59.0668 2.92557 59.0668 3.00578 59.3074C3.68756 61.3126 6.33448 62.1548 8.25951 62.0345C9.54286 61.9543 10.746 61.1522 12.0695 61.3528C12.5507 61.433 13.032 61.5132 13.5132 61.6335C14.2752 61.6335 15.0773 61.5934 15.7992 61.433C16.8018 61.1923 17.3231 60.4304 17.644 59.5481C18.406 59.3475 19.1279 59.0668 19.6492 58.5454C20.0503 58.1043 20.2508 57.3423 20.4513 56.8209C20.4513 56.8209 20.4513 56.8209 20.4513 56.7808C21.5742 56.3798 22.7373 55.8584 23.2185 54.9761C23.4191 54.6152 23.5795 54.2141 23.6597 53.773C24.7425 52.7303 24.8227 51.1662 24.7425 49.562C24.6222 47.1958 23.8602 45.9927 21.6545 45.0702C20.4112 44.5489 19.2482 43.8671 18.0852 43.1452C17.2831 42.6239 16.12 41.5009 15.0372 41.6212C13.3528 41.8619 12.8715 42.9447 12.4304 44.1879C9.90378 46.9552 7.21678 49.562 4.48966 52.1287C2.08338 54.3746 -0.48332 57.3824 0.0781449 60.9116C0.63961 64.3205 2.76516 67.4086 4.48966 70.4565C5.37196 73.9857 5.93344 77.6353 6.25427 81.3249C6.73553 87.3807 7.17669 93.4766 9.94391 99.0111C11.2674 101.658 13.3929 103.703 15.4382 105.789C17.2028 107.593 18.4461 110.481 20.7722 111.604C22.8175 112.566 25.0233 111.123 26.5873 109.92C27.0285 109.559 27.4295 109.198 27.8707 108.797C35.4505 106.912 42.3886 103.543 48.8053 98.9308C52.0137 96.6048 55.7033 93.9178 57.9893 90.6693C59.6737 88.263 60.0747 85.0546 61.1576 82.2874C65.4889 83.6911 69.2988 86.4984 73.5098 88.263C77.4 89.8672 81.4906 90.2682 85.5011 89.5864C85.0599 88.8245 84.5787 88.1026 83.9771 87.4208C81.8115 84.814 78.9239 83.0093 76.8385 80.3223C76.7583 80.202 76.8786 80.0816 76.9989 80.1618C80.087 82.9291 83.8167 84.4931 86.1428 88.1026C86.4636 88.5838 86.7443 89.0651 87.0251 89.5463C89.8725 91.9526 92.2387 94.76 93.4017 98.4897C94.3241 101.457 93.2012 104.064 93.121 106.992C93.121 107.393 93.1611 107.754 93.2814 108.155C93.2413 108.195 93.2413 108.235 93.2814 108.315C93.3215 108.355 93.3616 108.396 93.3616 108.476C93.6825 109.278 94.2439 109.96 95.0059 110.361C97.1315 112.045 100.099 112.566 102.866 112.927C107.96 113.609 113.053 113.208 118.146 112.406C123.119 111.644 128.052 110.441 132.945 109.158C136.955 108.115 140.926 106.831 144.615 104.987C143.653 102.42 143.292 99.6126 143.693 96.8855C144.014 94.6797 144.736 92.5943 145.578 90.549C144.575 86.9796 143.172 83.4905 142.049 80.0415C141.648 78.8384 141.327 77.6353 141.006 76.4321C140.244 74.5472 139.763 72.5019 139.161 70.6972C137.517 65.9247 135.512 61.2324 133.306 56.7006C133.226 56.5402 133.466 56.4199 133.546 56.5402C136.113 60.2699 138.279 64.0799 139.923 68.331C140.043 68.6518 140.164 69.0127 140.284 69.3336C141.648 62.596 142.49 55.6579 142.329 48.8401C139.402 48.038 136.554 46.5541 134.188 45.1505C130.98 43.2254 127.21 41.0598 125.165 37.8113C125.365 38.8941 125.445 39.977 125.485 41.0999C125.485 41.1801 125.485 41.2603 125.485 41.3405C126.368 50.1635 118.507 57.2621 110.687 59.9491C108 60.8715 105.192 61.5132 102.385 61.9142C100.661 62.1548 98.7757 62.6762 97.0512 62.2351C91.9178 70.0154 81.9719 74.9483 72.8681 75.991C69.9004 76.3118 66.9326 76.1514 63.9649 75.8706C62.4409 75.7503 60.9169 75.5899 59.4732 75.1488C59.3529 79.6806 54.7007 83.9718 51.4522 86.5385C47.8027 89.426 43.311 91.6318 38.5385 91.5516C38.4182 91.5516 38.3781 91.3511 38.4984 91.3511C43.0703 90.5891 47.0006 88.664 50.4496 85.576C53.4575 82.9291 57.9893 78.8785 57.869 74.5873C57.5883 74.4269 57.2674 74.3066 56.9867 74.106C54.7408 72.7425 52.7757 70.8977 50.4095 69.6945C47.7225 68.331 45.0756 67.6492 42.2282 66.8471C42.1881 66.8471 42.2282 66.807 42.2282 66.807C46.8402 66.6065 51.2116 68.7721 54.9413 71.1784C57.3476 72.7425 59.6336 73.9857 62.5612 74.2665C65.2482 74.5071 67.9754 74.7878 70.6624 74.6274C80.1672 74.0659 90.0329 69.2534 95.6877 61.4731C95.2465 60.9918 94.8455 60.3501 94.5648 59.909C93.7627 58.5855 93.0007 57.222 92.2387 55.8584C90.7147 53.1313 88.9902 50.4844 87.6668 47.6771C87.5865 47.5567 87.7871 47.3963 87.8673 47.5166C90.8751 51.3667 93.121 55.8183 96.0486 59.7486C97.6929 61.9944 101.583 60.7512 103.949 60.2699C105.874 59.909 107.839 59.4678 109.684 58.8262C116.061 56.6204 121.716 52.0886 123.761 45.8723C123.761 45.7921 123.761 45.6718 123.801 45.5916C123.841 45.5114 123.881 45.4312 123.921 45.351C124.122 44.6291 124.282 43.8671 124.403 43.065C124.483 41.902 124.363 40.7389 124.363 39.6962C124.363 38.3327 124.282 37.0092 124.122 35.6858C124.122 35.6858 124.122 35.6857 124.122 35.6456C122.317 35.1644 120.593 33.881 119.349 32.7581C119.189 32.5977 119.39 32.3169 119.59 32.4373C121.194 33.6003 123.039 34.7633 125.084 34.3623C126.488 34.0816 127.691 33.5201 128.854 32.6378C131.261 30.8331 133.587 28.9081 135.993 27.0633C136.113 26.983 136.274 27.1836 136.153 27.2638C134.669 28.8279 133.105 30.2716 131.621 31.7956C130.338 33.0789 129.135 34.4024 127.531 35.2847C126.689 35.766 125.806 35.8863 124.924 35.7659C126.448 37.2097 127.651 39.0144 129.376 40.2176C131.18 41.5009 133.105 42.664 134.99 43.7869C137.116 45.0301 139.281 46.1932 141.608 46.9151C143.051 47.3562 144.455 47.5567 145.899 47.6771C147.984 47.6771 150.07 47.5166 152.115 47.1958C152.155 47.0755 152.235 46.9151 152.275 46.7947C153.839 43.4661 155.764 39.2952 159.173 37.4905C159.254 37.4504 159.334 37.5707 159.294 37.6108C156.486 40.378 155.043 43.9473 153.519 47.5166C153.438 47.6771 153.398 47.8375 153.318 47.9979C152.997 50.2437 152.797 52.5297 152.717 54.7355C152.516 60.1095 153.679 65.4033 153.679 70.7774C153.639 76.6728 150.711 81.6457 148.265 86.7791C147.503 89.2656 146.46 91.712 145.778 94.1985C144.655 98.4496 145.057 102.5 146.861 106.15C148.225 108.035 149.909 109.799 150.511 112.125C150.631 112.647 150.872 113.449 151.313 114.01C153.037 114.451 155.203 113.328 154.601 111.123C154.321 110.08 153.92 109.117 153.599 108.075C152.917 105.829 152.275 103.503 152.235 101.177C152.235 100.936 152.556 100.896 152.636 101.137C153.358 103.824 153.96 106.43 155.083 108.957C155.724 110.401 156.286 111.804 155.644 113.328C155.323 114.131 154.762 114.692 154.12 115.093C155.123 115.775 156.366 115.935 157.168 114.732C157.369 114.451 157.369 113.93 157.369 113.609C157.489 112.406 157.489 111.243 157.529 110.04C157.85 109.759 158.171 109.478 158.451 109.238C158.893 108.877 159.534 108.436 159.815 107.914C160.056 107.433 160.136 106.952 160.176 106.43C161.9 104.465 162.181 101.818 161.179 99.1314C160.056 96.0433 158.853 93.1558 158.331 90.1078C158.652 88.6239 159.254 87.1802 159.815 85.7364C160.697 83.5708 161.54 81.4051 162.462 79.2394C164.227 74.9883 166.192 70.7774 168.438 66.7669C170.563 62.9971 173.25 59.5881 175.496 55.8985C177.421 52.8105 178.183 49.1208 177.782 45.5515C179.827 42.2228 181.151 38.3326 178.584 35.5654ZM88.5892 86.2177C95.1663 86.5385 98.1341 79.1993 104.27 78.2368C103.267 77.4748 102.666 76.392 102.104 75.1087C100.941 72.3013 100.22 69.3737 98.9763 66.6065C98.9362 66.4862 99.0565 66.4059 99.1367 66.5263C100.46 68.2508 101.302 70.256 102.185 72.2612C102.826 73.7852 103.628 76.392 105.032 77.8358C106.957 75.5899 110.206 74.1863 112.732 72.9831C116.141 71.3789 120.432 70.5768 122.157 66.8471C122.197 66.7268 122.397 66.807 122.357 66.9273C121.635 70.0555 118.547 71.3789 115.941 72.6623C112.692 74.2665 108.722 75.9107 106.115 78.5577C106.155 78.5577 106.195 78.5978 106.235 78.6379C106.516 78.7582 106.436 79.1993 106.115 79.1191C105.995 79.079 105.874 79.0389 105.754 78.9988C105.674 79.1191 105.553 79.1993 105.473 79.3197C106.516 81.6457 107.318 84.1723 108.08 86.5786C108.401 87.6213 108.722 88.7442 109.123 89.787C111.77 87.3406 114.737 85.3755 118.066 83.9718C119.791 83.2499 121.676 82.8489 123.36 82.0468C125.405 81.0843 126.528 79.4801 127.29 77.3946C127.33 77.2743 127.531 77.3144 127.491 77.4347C127.09 78.9988 126.608 80.7233 125.365 81.8062C124.082 82.9692 122.558 83.4504 120.994 84.0921C116.863 85.6963 112.973 88.0224 109.564 90.9099C109.644 91.0703 109.724 91.2307 109.805 91.3511C110.406 92.5141 111.208 93.5568 111.93 94.6797C112.05 94.8803 111.81 95.2011 111.569 95.0407C111.128 94.6797 110.727 94.3188 110.326 93.8776C111.008 96.7652 111.248 99.7731 111.81 102.701C112.131 104.385 112.492 106.07 113.013 107.714C113.695 110 115.219 110.08 117.264 110.321C117.505 110.361 117.505 110.722 117.264 110.682C115.62 110.601 114.417 111.323 113.133 110C112.171 108.997 111.93 107.072 111.649 105.789C110.727 101.738 109.885 97.447 109.845 93.2761C109.243 92.5542 108.762 91.7521 108.321 90.9099C106.556 92.2735 104.631 93.5167 102.746 94.7198C101.302 95.6422 100.019 96.4042 98.2544 96.2438C98.1742 96.2438 98.1341 96.0834 98.2544 96.0834C100.3 95.9631 101.984 94.1985 103.588 93.0355C105.032 91.9927 106.396 90.9099 107.92 89.9875C107.679 89.3859 107.438 88.7843 107.278 88.1828C106.436 85.3755 105.553 82.4478 105.072 79.5603C104.912 79.5603 104.711 79.44 104.591 79.3197C99.0164 80.4426 94.9257 88.263 88.7095 86.338C88.4688 86.338 88.4688 86.1776 88.5892 86.2177ZM109.644 14.2699C106.035 19.3231 101.623 23.4137 96.7304 27.2237C94.3642 29.0685 91.9178 30.7128 89.5116 32.5175C86.7042 34.643 83.6964 37.8113 85.4209 41.5811C85.5011 41.7014 85.5011 41.8218 85.461 41.9421C85.5412 42.1025 85.5813 42.2629 85.6615 42.4634C85.7417 42.7843 85.7818 43.1452 85.9021 43.4661C85.9422 43.5864 85.7818 43.6265 85.7016 43.5463C85.4209 43.1452 84.9797 42.8244 84.7391 42.3832C84.6188 42.1827 84.4985 41.9421 84.298 41.8218C81.0495 41.2202 78.0817 41.3405 75.2343 43.1452C72.7879 44.6692 70.3014 46.113 67.7748 47.4765C63.0425 49.963 58.1898 52.4495 53.1767 54.2542C53.0965 54.2943 53.0564 54.174 53.1366 54.1339C58.6711 51.086 64.2857 48.1984 69.6999 44.9499C71.9858 43.5864 74.3119 41.6613 76.8385 40.8191C79.2849 39.977 81.6109 40.1374 84.0573 40.7389C82.2927 35.4451 89.1907 31.3544 92.8001 28.7476C98.7757 24.4163 104.711 19.8043 109.444 14.0693C109.484 13.949 109.724 14.1496 109.644 14.2699ZM158.091 31.4346C154.24 24.8174 146.661 23.9752 139.683 24.296C139.562 24.296 139.562 24.1356 139.683 24.1356C146.139 23.4137 156.486 23.0528 158.371 31.3143C158.451 31.5149 158.211 31.6352 158.091 31.4346Z" fill="#FCFCFC"/>
</svg>
