<svg viewBox="0 0 80 80" xmlns="http://www.w3.org/2000/svg">
<rect width="80" height="80" rx="40" fill="#f2a"/>
<path d="m60.903 34.419c-2.0965 3.3656-1.1767 9.3125-0.9874 14.532l2.0965 1.2264c0.0541 0.0428 0.1758 0.1426 0.2435 0.2282l-2.1371 0.7416c1.9747 1.0696 4.1794 0.2281 5.532 2.1534-0.1082 0.057-0.2976-0.0143-0.3517 0.1283s-0.2705 0.0856-0.3516 0.0999c-0.0812 0.0142-0.257 0.0713-0.3517 0.0713l-5.532-0.3708c-0.6627-0.6988-0.6086-0.8842-0.9603-1.3405-1.7583-2.2961-1.9207-1.0696-2.6781-4.4352-0.7709-3.4512-0.5816-5.7329-0.8792-9.1984-7.3714 0.6133-7.3579-0.5419-13.106 2.7809-1.8665 1.0696-1.082 0.6133-3.4355 1.1552-2.1911 0.4991-1.8801 0.9412-3.5167 1.6828-2.0829 0.9555-4.7745 0.1141-8.0071 0.5704-3.8684 0.5562-1.2579 1.0839-8.5753 1.5545-1.2308 4.8344 0.3382 2.353 0.9198 4.592-1.7854 0.5134-2.7187-0.3137-3.8954-0.927 0.7169 3.6936 1.0685-0.0285 1.5554 3.1374-4.3823 1.6543-4.2335-2.296-5.4237-4.0643-0.3111-0.4706-0.8386-0.656-1.4608-2.2247 1.6501-3.3942 5.559-2.7809 8.5617-3.9218 1.5555-0.5847 2.7051-1.4261 4.4364-2.0393 2.9486-1.0411 3.2867-0.271 5.6673-0.7274 0.798-0.1568 7.3849-3.936 8.0477-4.6918 3.2326-3.7364 2.8404-4.4352 8.6564-3.9218 4.0847 0.3565 6.4653-2.1249 9.522-2.4244 0.5952-0.057 1.0956-0.0998 1.542-0.114 0.3922-1.2407 1.0279-2.3388 1.0279-2.3388-0.1623 1.041 1.0415 3.0946 2.1235 2.2389l-0.4869-0.5561c-0.4869-0.5705 0.2705-1.8825 0.2705-1.8825s-0.7033 1.1124 0.487 1.9538c1.1902 0.8414 2.4751-0.7701 6.1406-1.3121 1.6366-0.2424 2.5022 0.7559 2.9621 1.9395 1.8665 1.3263 2.0153 4.7775 0.7574 5.9611-0.0541 0.0428-4.1388 1.7399-4.1523 1.7399-0.0136 0-2.2318-0.5705-2.2588-0.5705-2.3535-1.2407 0.2705-0.6702-2.0018-1.4261z" clip-rule="evenodd" fill="#FCFCFC" fill-rule="evenodd"/>
</svg>
