<svg width="280" height="121" viewBox="0 0 280 121" fill="none" xmlns="http://www.w3.org/2000/svg">
<path fill-rule="evenodd" clip-rule="evenodd" d="M237.303 36.4224C227.606 51.217 231.86 77.3583 232.736 100.303L242.433 105.694C242.684 105.882 243.247 106.321 243.56 106.697L233.675 109.957C242.809 114.658 253.007 110.96 259.263 119.423C258.762 119.673 257.887 119.36 257.636 119.987C257.386 120.614 256.385 120.363 256.01 120.426C255.634 120.488 254.821 120.739 254.383 120.739L228.795 119.109C225.729 116.038 225.979 115.223 224.353 113.217C216.219 103.124 215.469 108.515 211.965 93.7202C208.399 78.5494 209.275 68.5192 207.898 53.2857C173.801 55.9814 173.864 50.9035 147.274 65.5101C138.641 70.2118 142.269 68.2058 131.383 70.5879C121.248 72.7821 122.687 74.7254 115.117 77.9853C105.482 82.1854 93.0319 78.4868 78.0792 80.4928C60.1861 82.9377 72.2608 85.2572 38.414 87.3259C32.7207 108.578 39.978 97.6696 42.6683 107.512C34.4099 109.769 30.093 106.133 24.65 103.437C27.9659 119.673 29.5925 103.312 31.8448 117.229C11.5742 124.501 12.2624 107.136 6.75686 99.3622C5.3179 97.2935 2.87792 96.4785 0 89.5827C7.63274 74.6627 25.7136 77.3584 39.6027 72.3432C46.7975 69.773 52.1154 66.0743 60.1235 63.3787C73.7623 58.8024 75.3264 62.1876 86.3376 60.1815C90.0288 59.492 120.497 42.8794 123.563 39.5568C138.515 23.1323 136.701 20.0605 163.603 22.3173C182.498 23.8846 193.509 12.9767 207.648 11.6602C210.401 11.4094 212.716 11.2214 214.78 11.1587C216.595 5.70474 219.535 0.877663 219.535 0.877663C218.784 5.45397 224.353 14.4812 229.358 10.7199C229.358 10.7199 229.358 10.7198 227.105 8.27497C224.853 5.7674 228.357 0 228.357 0C228.357 0 225.103 4.88976 230.609 8.58841C236.115 12.2871 242.058 5.20319 259.013 2.82101C266.583 1.75529 270.587 6.14355 272.714 11.3467C281.348 17.1768 282.036 32.3476 276.218 37.5508C275.967 37.7389 257.073 45.1989 257.011 45.1989C256.948 45.1989 246.688 42.6913 246.563 42.6913C235.677 37.2373 247.814 39.7449 237.303 36.4224Z" fill="#FCFCFC"/>
</svg>
