<svg width="640" height="432" viewBox="0 0 640 432" fill="none" xmlns="http://www.w3.org/2000/svg">
<path d="M439.456 407.994C397.737 403.826 344.48 386.328 330.896 372.325C322.857 364.038 309.121 332.576 298.08 297.163C292.048 277.815 288.194 269.662 280.939 260.908C273.595 252.046 264.784 246.938 253.995 245.288L250.285 244.72L255.831 243.035C262.492 241.011 270.433 236.144 274.3 231.718C277.831 227.676 280.765 221.262 281.769 215.395C282.228 212.709 282.805 203.07 283.052 193.975C284.284 148.492 291.796 116.136 307.628 88.1328C316.812 71.887 332.353 52.8466 349.059 37.3712C371.853 16.2564 395.96 5.69667 431.145 1.41502C442.379 0.0478632 467.79 -0.441977 481.113 0.451783C530.713 3.77911 569.979 17.7554 592.957 40.2615C615.698 62.535 631.428 97.9251 637.364 140.167C640.362 161.501 640.857 189.99 638.569 209.525C633.147 255.828 612.52 325.37 596.77 350.441C593.122 356.248 591.05 358.647 584.393 364.778C559.23 387.949 522.713 402.72 479.333 407.275C466.975 408.573 448.574 408.905 439.456 407.994Z" fill="white"/>
<path d="M439.243 407.994C397.524 403.826 344.268 386.328 330.683 372.325C322.645 364.038 308.908 332.576 297.867 297.163C291.835 277.815 287.981 269.662 280.726 260.908C273.382 252.046 264.572 246.938 253.782 245.288L250.072 244.72L255.619 243.035C262.279 241.011 270.22 236.144 274.087 231.718C277.618 227.676 280.552 221.262 281.556 215.395C282.015 212.709 282.593 203.07 282.839 193.975C284.071 148.492 291.584 116.136 307.415 88.1328C316.599 71.887 332.14 52.8466 348.846 37.3712C371.64 16.2564 395.747 5.69667 430.932 1.41502C442.167 0.0478621 467.577 -0.441977 480.901 0.451783C530.501 3.77911 569.766 17.7554 592.744 40.2615C615.485 62.535 631.216 97.9251 637.151 140.167C640.149 161.501 640.644 189.99 638.357 209.525C632.935 255.828 612.307 325.37 596.557 350.441C592.91 356.248 590.838 358.647 584.18 364.778C559.017 387.949 522.5 402.72 479.12 407.275C466.762 408.573 448.362 408.905 439.243 407.994ZM468.966 405.505C493.821 403.846 522.351 398.362 541.86 389.444C562.751 379.894 586.347 362.812 593.926 350.441C606.28 330.278 620.746 288.548 630.026 244.894C638.325 205.853 638.935 165.165 633.15 128.941C626.364 86.4465 605.963 53.9978 581.43 34.141C574.721 28.7105 559.142 21.0747 549.843 17.2964C534.888 11.2194 513.205 6.63325 493.264 4.36914C484.295 3.35085 479.984 2.81146 461.329 2.8022C438.366 2.7908 430.604 3.81612 417.94 6.32781C401.945 9.50026 389.522 13.0926 376.981 20.4303C361.509 29.4833 347.58 40.2058 330.815 60.3872C317.646 76.2387 308.187 89.6146 302.005 104.653C292.071 128.819 287.53 156.469 286.038 197.102C285.292 217.395 284.741 218.579 280.726 226.091C278.463 230.326 274.755 234.886 270.417 237.843L261.782 243.833L272.847 251.554C277.873 254.409 282.941 260.457 286.895 265.656C293.514 274.359 296.134 282.321 304.087 307.572C312.43 334.056 325.024 361.814 332.203 371.033C337.343 377.632 360.237 387.051 382.188 393.753C402.089 399.83 426.231 404.245 442.238 405.505C447.46 405.916 461.447 406.007 468.966 405.505Z" fill="black"/>
<path d="M0.657092 429.387C7.04212 405.572 13.9434 387.173 21.1331 374.798C22.1029 373.129 23.0727 370.945 23.7588 368.884C26.1183 361.799 29.6709 356.238 35.5371 350.448C38.5507 347.474 41.9736 344.689 43.8322 343.699C44.8925 343.135 45.4234 343.038 47.4566 343.038C48.7667 343.038 50.2208 343.123 50.6879 343.227C51.5153 343.412 51.5598 343.375 52.4083 341.779C53.592 339.552 55.9486 337.087 57.7247 336.217C60.4725 334.872 62.8417 334.66 65.9828 335.478L67.8347 335.96L70.2176 333.542C75.6523 328.027 82.8652 323.911 89.518 322.53C90.9358 322.236 91.0085 322.177 91.7925 320.706C94.6334 315.376 99.0847 311.912 103.639 311.487L105.3 311.332L105.149 307.07C104.944 301.278 104.54 295.083 104.079 290.648L103.695 286.958L100.702 284.031C92.8969 276.4 87.3894 267.664 80.9665 252.73C80.0772 250.662 79.3495 248.92 79.3495 248.858C79.3495 248.797 79.1744 248.328 78.9604 247.816L78.5714 246.884L76.9182 247.552C75.5271 248.114 74.9888 248.197 73.5217 248.074C66.4833 247.484 57.077 238.923 51.9425 228.435C48.9687 222.36 48.1355 218.32 47.9279 208.967C47.7746 202.064 48.1285 198.008 49.3351 192.836C50.9062 186.102 53.9632 180.575 57.2351 178.553C58.0922 178.023 58.1032 177.992 57.8708 176.757C57.7407 176.066 57.3198 173.356 56.9356 170.736C56.0283 164.548 55.9162 156.127 56.6748 151.15C58.8849 136.652 63.2005 123.825 69.765 112.244C71.6975 108.834 76.2101 102.156 78.7069 99.01C81.4612 95.5397 89.3239 87.6449 92.8478 84.8111C103.906 75.9186 117.137 70.0583 130.748 68.0237C134.597 67.4484 143.881 67.2358 148.067 67.6272C162.462 68.9731 175.734 74.3412 187.336 83.5103C190.997 86.4038 197.726 93.2221 200.677 97.028C213.867 114.042 221.497 134.904 223.858 160.414C224.388 166.14 225.447 197.958 225.444 208.055C225.44 218.311 225.236 223.074 224.505 229.89C221.935 253.88 213.155 272.527 196.956 288.402C193.054 292.226 189.365 295.277 185.779 297.646L183.576 299.102L183.733 300.425C183.82 301.153 183.891 303.118 183.893 304.793L183.895 307.836L186.608 307.851C189.859 307.868 191.806 308.516 194.99 310.641L196.997 311.98L198.982 311.305C201.78 310.352 204.282 309.988 206.773 310.171C212.131 310.564 214.203 312.055 217.136 317.629C217.825 318.939 218.411 320.042 218.437 320.081C218.464 320.119 219.057 319.897 219.756 319.588C222.861 318.215 226.242 319.802 230.194 324.489C231 325.444 231.113 325.497 231.633 325.161C233.713 323.819 237.545 321.89 239.278 321.313C241.875 320.447 243.79 320.408 245.397 321.186C247.088 322.004 248.105 323.286 249.6 326.478C251.857 331.299 253.078 332.353 259.426 334.956C264.391 336.993 267.233 338.579 268.21 339.86C269.114 341.046 269.914 343.646 269.914 345.402C269.914 346.76 269.317 348.919 268.512 350.477C268.157 351.162 268.156 351.36 268.499 352.174C270.278 356.397 272.441 365.441 274.006 375.195C275.714 385.848 276.614 394.869 277.411 409.338C277.494 410.846 277.664 411.317 278.788 413.155C281.577 417.715 283.956 424.614 284.843 430.71L285.006 431.835H0L0.657092 429.387Z" fill="#FCFCFC"/>
<path d="M0.65801 428.992C7.06015 405.155 13.98 386.738 21.1889 374.352C22.1613 372.681 23.1336 370.495 23.8216 368.432C26.1873 361.34 29.7496 355.774 35.6315 349.979C38.6532 347.002 42.0851 344.214 43.9487 343.223C45.0119 342.658 45.5443 342.561 47.5828 342.561C48.8964 342.561 50.3545 342.647 50.8229 342.751C51.6525 342.936 51.697 342.899 52.5478 341.301C53.7347 339.072 56.0977 336.605 57.8785 335.734C60.6337 334.388 63.0091 334.175 66.1587 334.994L68.0156 335.477L70.4048 333.057C75.8541 327.536 83.0863 323.416 89.7569 322.034C91.1785 321.739 91.2515 321.681 92.0375 320.209C94.8861 314.873 99.3493 311.406 103.916 310.98L105.581 310.825L105.43 306.559C105.224 300.762 104.819 294.561 104.357 290.121L103.971 286.428L100.97 283.498C93.1449 275.86 87.6226 267.116 81.1825 252.168C80.2908 250.098 79.5612 248.354 79.5612 248.292C79.5612 248.231 79.3857 247.761 79.1711 247.249L78.781 246.317L77.1235 246.985C75.7286 247.547 75.1889 247.63 73.7178 247.507C66.6606 246.916 57.229 238.348 52.0808 227.849C49.099 221.769 48.2636 217.725 48.0554 208.363C47.9018 201.454 48.2566 197.394 49.4664 192.217C51.0417 185.477 54.1069 179.944 57.3875 177.92C58.2469 177.39 58.2579 177.359 58.0249 176.123C57.8945 175.431 57.4726 172.719 57.0873 170.096C56.1776 163.902 56.0652 155.473 56.8258 150.492C59.0417 135.979 63.3688 123.14 69.9509 111.548C71.8886 108.135 76.4134 101.45 78.9168 98.3018C81.6785 94.8282 89.5622 86.9259 93.0956 84.0895C104.184 75.1885 117.45 69.3226 131.097 67.2861C134.956 66.7102 144.266 66.4975 148.463 66.8892C162.896 68.2364 176.204 73.6096 187.837 82.7874C191.508 85.6837 198.255 92.5084 201.213 96.318C214.439 113.348 222.089 134.23 224.457 159.764C224.989 165.496 226.05 197.343 226.047 207.45C226.043 217.716 225.838 222.483 225.106 229.306C222.529 253.318 213.726 271.984 197.483 287.874C193.57 291.702 189.872 294.755 186.276 297.127L184.067 298.584L184.224 299.908C184.311 300.637 184.383 302.604 184.384 304.28L184.387 307.326L187.107 307.341C190.367 307.358 192.319 308.007 195.511 310.134L197.523 311.474L199.514 310.798C202.32 309.845 204.829 309.48 207.326 309.663C212.698 310.056 214.775 311.549 217.716 317.128C218.408 318.44 218.995 319.544 219.022 319.582C219.048 319.62 219.643 319.398 220.344 319.089C223.457 317.714 226.847 319.303 230.81 323.995C231.618 324.951 231.731 325.004 232.253 324.668C234.338 323.324 238.18 321.393 239.918 320.815C242.522 319.949 244.442 319.91 246.054 320.688C247.748 321.507 248.769 322.79 250.267 325.986C252.53 330.811 253.755 331.866 260.12 334.472C265.099 336.51 267.948 338.098 268.928 339.381C269.834 340.567 270.636 343.17 270.636 344.928C270.636 346.287 270.038 348.448 269.23 350.007C268.875 350.694 268.873 350.892 269.217 351.706C271.001 355.933 273.17 364.985 274.739 374.749C276.451 385.412 277.354 394.442 278.153 408.924C278.237 410.434 278.407 410.905 279.534 412.745C282.33 417.31 284.716 424.215 285.605 430.317L285.769 431.443H284.041C283.09 431.443 282.312 431.396 282.312 431.34C282.312 430.78 281.34 426.321 280.828 424.532C279.59 420.21 277.994 416.568 275.855 413.187C274.827 411.561 274.771 411.367 274.691 409.077C274.053 390.98 270.92 368.514 267.428 356.999C266.94 355.389 265.605 351.679 265.443 351.479C265.402 351.429 264.921 351.906 264.372 352.538C257.578 360.368 249.417 365.376 240.648 367.096C236.527 367.905 230.741 367.904 226.211 367.096C220.439 366.066 215.036 363.877 210.843 360.87C209.703 360.053 208.719 359.384 208.657 359.384C208.595 359.384 208.169 360.129 207.71 361.04C205.567 365.296 201.523 369.752 197.334 372.473C194.992 373.995 189.868 376.593 189.195 376.6C188.791 376.604 188.779 376.474 189.672 381.703C191.752 393.888 191.932 415.012 190.066 427.867C189.521 431.614 189.617 431.443 188.067 431.443C186.926 431.443 186.759 431.378 186.881 430.98C187.186 429.976 188.098 422.887 188.406 419.124C188.818 414.099 188.815 399.523 188.401 393.956C187.942 387.795 187.098 381.402 186.362 378.503C185.579 375.424 185.686 375.168 188.137 374.247C196.283 371.187 203.312 365.056 205.855 358.792L206.472 357.274L204.778 355.447C203.846 354.442 201.94 352.026 200.542 350.078C195.428 342.948 192.581 339.115 192.335 339.029C192.196 338.98 192.083 339.109 192.083 339.314C192.083 340.064 188.894 344.468 186.999 346.336C183.65 349.635 180.011 351.99 175.206 353.967C173.906 354.501 172.808 354.971 172.765 355.01C172.721 355.049 173.328 355.443 174.112 355.884C176.791 357.394 178.775 360.198 179.812 363.943C180.181 365.276 180.274 366.696 180.274 371.035V376.46L181.241 377.505C182.531 378.9 183.739 380.929 184.421 382.848C186.526 388.769 183.903 394.369 177.589 397.436C176.185 398.117 175.175 398.764 175.236 398.943C175.495 399.708 176.17 407.738 176.445 413.33C176.731 419.143 176.475 429.029 175.991 430.847C175.743 431.781 173.712 431.658 170.51 430.516C167.487 429.437 167.403 429.426 167.403 430.097C167.403 431.198 167.12 431.443 165.848 431.443H164.616L164.705 425.284C164.798 418.853 164.457 410.956 163.806 404.421C163.595 402.308 163.423 400.504 163.423 400.411C163.423 400.319 162.735 400.163 161.896 400.066C158.466 399.667 155.713 398.517 153.931 396.738C150.075 392.889 149.93 384.777 153.621 379.317L154.451 378.09L153.913 376.221C151.459 367.697 151.875 361.818 155.186 358.232L156.286 357.041L154.878 356.902C154.104 356.826 152.026 356.639 150.26 356.487C143.965 355.943 137.419 354.553 131.436 352.488C127.428 351.105 120.525 347.756 117.274 345.618L114.781 343.978L114.952 344.992C115.763 349.807 115.969 352.657 115.854 357.463L115.732 362.563H117.5C118.665 362.563 119.443 362.698 119.782 362.96C120.292 363.354 120.292 363.362 119.782 363.755C119.433 364.025 118.646 364.152 117.333 364.152C115.506 364.152 115.389 364.188 115.236 364.796C114.964 365.88 115.323 366.423 117.953 368.908L120.49 371.305H123.461C125.697 371.305 126.56 371.404 126.948 371.703C127.458 372.096 127.458 372.104 126.948 372.497C126.602 372.764 125.819 372.895 124.563 372.895H122.693L124.149 373.947C126.258 375.47 131.537 378.03 134.761 379.093C138.35 380.276 140.772 380.771 144.713 381.126C148.515 381.47 149.135 381.714 149.389 382.966C150.196 386.946 151.819 401.702 152.266 409.113C152.566 414.078 152.643 429.28 152.375 430.615C152.216 431.409 152.156 431.443 150.887 431.443C149.76 431.443 149.59 431.378 149.736 430.999C150.025 430.248 149.947 413.56 149.632 408.792C149.141 401.334 147.241 384.47 146.848 384.078C146.799 384.03 145.523 383.87 144.011 383.724C135.259 382.878 126.799 379.521 119.972 374.186L118.319 372.895H116.241C114.799 372.895 114.005 372.773 113.647 372.497C113.138 372.104 113.138 372.096 113.647 371.703C113.932 371.483 114.702 371.305 115.369 371.305H116.574L115.475 370.207L114.375 369.11L113.684 369.652C110.284 372.321 80.4684 381.902 75.5606 381.902C74.9366 381.902 73.8203 381.381 71.7724 380.135C70.1755 379.164 66.8262 377.346 64.3296 376.095L59.7903 373.822L45.4276 373.749L31.065 373.676L30.5 375.925C30.1892 377.162 29.935 378.297 29.935 378.448C29.935 378.635 35.0832 378.723 45.9688 378.723C54.7874 378.723 62.1915 378.795 62.4224 378.884C62.9654 379.092 62.9654 379.944 62.4224 380.152C62.1915 380.24 54.6843 380.312 45.7398 380.312H29.4769L29.0232 382.63C28.7737 383.905 28.5056 385.217 28.4274 385.545L28.2851 386.141H45.94C55.6502 386.141 63.7838 386.213 64.0147 386.301C64.2456 386.39 64.4345 386.675 64.4345 386.935C64.4345 387.196 64.2456 387.481 64.0147 387.569C63.7838 387.658 55.6035 387.73 45.8361 387.73C36.0688 387.73 28.0771 387.76 28.0769 387.796C28.0767 387.833 27.8978 388.876 27.6793 390.115C27.4607 391.353 27.2817 392.694 27.2815 393.095L27.2813 393.823H45.9689C56.2471 393.823 64.8455 393.896 65.0763 393.984C65.3072 394.073 65.4961 394.358 65.4961 394.618C65.4961 394.878 65.3072 395.164 65.0763 395.252C64.8455 395.341 56.1945 395.413 45.8519 395.413C35.5093 395.413 26.994 395.502 26.9291 395.612C26.8641 395.721 26.726 396.554 26.6223 397.463L26.4337 399.116L38.2025 399.185L49.9713 399.254V399.917V400.579L38.0955 400.648C31.5639 400.686 26.2162 400.805 26.2119 400.913C26.2076 401.021 26.0309 402.778 25.8193 404.818C25.6077 406.858 25.4322 408.675 25.4291 408.856C25.4248 409.114 28.8851 409.2 41.4128 409.253L57.402 409.321V409.984V410.646L41.4037 410.714C28.9416 410.768 25.3819 410.855 25.2992 411.112C25.2408 411.293 25.1497 412.245 25.0968 413.227L25.0007 415.013L39.211 415.081L53.4213 415.15V415.812V416.474L39.1952 416.543L24.9692 416.611L24.8002 418.397C24.7073 419.38 24.6304 420.452 24.6293 420.779L24.6275 421.376H42.9171C52.9763 421.376 61.3955 421.448 61.6264 421.536C61.8573 421.625 62.0462 421.91 62.0462 422.17C62.0462 422.43 61.8573 422.716 61.6264 422.804C61.3955 422.893 52.9763 422.965 42.9171 422.965H24.6275V423.992C24.6275 424.556 24.5531 425.39 24.4621 425.844L24.2967 426.669L37.6648 426.738L51.0329 426.806V427.469V428.131L37.6975 428.2L24.3621 428.268V429.856V431.443H22.5044H20.6468V429.853V428.264L12.8844 428.267C8.61507 428.27 4.99006 428.359 4.8288 428.466C4.66754 428.573 4.38694 429.287 4.20523 430.052L3.87485 431.443H1.93742H0L0.65801 428.992ZM173.708 426.671L173.778 424.952L171.054 423.837C169.557 423.224 168.122 422.645 167.867 422.551C167.449 422.396 167.402 422.591 167.402 424.504V426.63L170.122 427.562C171.618 428.074 173.022 428.47 173.241 428.442C173.54 428.403 173.656 427.964 173.708 426.671ZM20.912 424.82V422.965H13.4916H6.07117L5.79929 423.973C5.64977 424.528 5.45111 425.362 5.35783 425.828L5.18822 426.674H13.0501H20.912V424.82ZM174.037 420.632V419.093L170.793 417.739C169.009 416.994 167.486 416.423 167.409 416.47C167.332 416.517 167.309 417.201 167.358 417.989L167.446 419.422L170.542 420.77C172.245 421.511 173.728 422.13 173.838 422.144C173.947 422.159 174.037 421.478 174.037 420.632ZM21.0071 420.382C21.0975 419.836 21.1729 418.763 21.1745 417.998L21.1774 416.607H14.5687H7.96006L7.38792 418.528C7.07324 419.584 6.75501 420.657 6.68073 420.912C6.55449 421.346 7.01158 421.376 13.6941 421.376H20.8426L21.0071 420.382ZM173.873 413.759C173.781 412.484 173.572 411.309 173.407 411.148C173.138 410.885 167.355 408.395 167.012 408.395C166.823 408.395 166.838 410.329 167.04 412.011L167.205 413.375L170.289 414.707C171.985 415.439 173.523 416.047 173.707 416.058C173.962 416.073 174.001 415.536 173.873 413.759ZM21.3011 414.686C21.3599 414.504 21.4514 413.551 21.5044 412.567L21.6006 410.779H15.7073H9.814L9.15135 412.746C8.78689 413.828 8.55715 414.782 8.64083 414.866C8.72451 414.949 11.5832 415.018 14.9935 415.018C19.72 415.018 21.2195 414.939 21.3011 414.686ZM21.7137 409.123C21.7167 409.087 21.8923 407.388 22.1039 405.348C22.3155 403.308 22.4921 401.428 22.4965 401.169C22.5037 400.734 22.1576 400.705 17.8284 400.772L13.1524 400.844L11.7275 404.951C10.9437 407.209 10.3012 409.087 10.2996 409.123C10.298 409.159 12.8644 409.189 16.0025 409.189C19.1406 409.189 21.7107 409.159 21.7137 409.123ZM173.312 405.357L173.108 403.776L169.791 402.776C167.966 402.226 166.444 401.775 166.407 401.774C166.168 401.765 166.404 404.67 166.672 405.03C166.855 405.275 168.437 406.066 170.189 406.788C173.835 408.292 173.699 408.355 173.312 405.357ZM173.021 400.447C172.965 399.864 172.783 399.394 172.616 399.403C172.448 399.412 171.476 399.568 170.454 399.748L168.596 400.077L170.587 400.771C171.682 401.152 172.7 401.474 172.85 401.486C173.009 401.498 173.08 401.068 173.021 400.447ZM22.8647 398.129C22.9552 397.582 23.0305 396.753 23.0322 396.285L23.0351 395.436L20.9784 395.358C18.9821 395.283 18.9217 395.261 18.9217 394.619C18.9217 393.975 18.9846 393.952 21.1623 393.824L23.4029 393.691L23.8682 390.777C24.161 388.944 24.2404 387.77 24.0824 387.611C23.7036 387.232 23.7809 386.46 24.2225 386.214C24.5319 386.041 25.6727 381.597 25.6864 380.511C25.6877 380.402 24.8647 380.313 23.8574 380.313C22.0721 380.313 22.0132 380.334 21.5188 381.174C20.2324 383.357 16.4727 391.945 14.4438 397.334L13.7705 399.122H18.2354H22.7002L22.8647 398.129ZM168.889 397.265C175.192 396.476 179.961 393.86 181.765 390.202C182.281 389.157 182.396 388.507 182.396 386.657C182.396 384.568 182.319 384.236 181.404 382.418C180.859 381.333 179.825 379.805 179.107 379.022C178.389 378.239 177.74 377.285 177.664 376.902C177.589 376.519 177.64 374.906 177.777 373.317C178.005 370.678 177.75 365.677 177.332 364.588C177.219 364.294 176.833 364.295 175.019 364.595C171.562 365.166 171.737 365.081 171.543 366.292C171.014 369.596 168.533 371.689 165.147 371.689C162.483 371.689 160.56 370.555 159.398 368.299C158.919 367.368 158.799 367.293 158.029 367.431C157.565 367.514 156.673 367.661 156.046 367.757L154.908 367.932L155.069 369.155C155.357 371.342 155.76 373.248 156.437 375.628C156.813 376.954 157.031 378.243 156.939 378.607C156.85 378.96 156.309 379.973 155.737 380.857C154.089 383.403 153.737 384.728 153.737 388.393C153.737 391.056 153.827 391.766 154.29 392.767C155.325 395.002 157.396 396.534 160.237 397.164C162.062 397.569 166.084 397.616 168.889 397.265ZM165.014 389.799C164.388 389.376 163.969 388.809 163.729 388.058C163.412 387.064 163.427 386.838 163.862 385.964C164.524 384.635 165.532 383.949 166.825 383.949C169.683 383.949 171.081 387.457 169.011 389.436C167.91 390.49 166.258 390.64 165.014 389.799ZM26.5652 376.802C26.8146 375.746 27.0917 374.613 27.1809 374.286C27.3229 373.764 27.2438 373.69 26.5441 373.69C25.8244 373.69 25.6107 373.913 24.3901 375.945C23.6448 377.186 23.0351 378.318 23.0351 378.462C23.0351 378.606 23.7273 378.723 24.5734 378.723H26.1116L26.5652 376.802ZM78.4318 377.901C86.7748 376.096 102.727 370.98 109.565 367.914L111.306 367.134L111.577 365.643L111.847 364.152H110.086C108.925 364.152 108.148 364.017 107.809 363.755C107.299 363.362 107.299 363.354 107.809 362.96C108.157 362.691 108.942 362.563 110.239 362.563H112.154L112.348 359.98C112.744 354.727 112.219 348.245 110.987 343.157L110.554 341.369H104.744H98.934V343.356V345.343H101.433C104.26 345.343 104.772 345.465 104.772 346.138C104.772 346.807 104.259 346.932 101.528 346.932H99.1224L100.434 348.323C103.467 351.539 104.507 353.851 104.507 357.377C104.507 360.234 104.125 362.039 103.117 363.948C102.117 365.843 101.037 366.56 96.4187 368.393C89.6911 371.064 85.7134 371.699 81.9496 370.702C79.5229 370.059 75.1478 367.76 73.7137 366.375L72.5104 365.212L59.9139 365.222L47.3174 365.231L51.1655 366.641C55.0222 368.054 61.2797 370.639 63.1501 371.592C64.0669 372.059 64.7828 372.1 71.9656 372.1C76.2652 372.1 79.9721 372.172 80.2029 372.261C80.7459 372.469 80.7459 373.321 80.2029 373.529C79.9721 373.617 77.0191 373.69 73.6409 373.69H67.4986L70.279 375.238C71.8082 376.089 73.65 377.162 74.3719 377.622C75.0938 378.082 75.7228 378.458 75.7698 378.458C75.8167 378.458 77.0146 378.207 78.4318 377.901ZM28.0932 371.107C28.4864 369.895 29.8215 367.19 30.4994 366.231C31.1786 365.27 31.1469 365.212 29.9418 365.212C28.707 365.212 28.5911 365.379 27.3105 369.008C26.312 371.838 26.2965 372.1 27.1279 372.1C27.6365 372.1 27.8381 371.893 28.0932 371.107ZM54.0999 371.555C52.1013 370.649 44.5589 368.132 41.3948 367.313C39.7429 366.886 37.71 366.537 36.8774 366.537C35.5853 366.537 35.2214 366.654 34.393 367.335C33.4853 368.082 31.7927 370.953 31.7927 371.745C31.7927 372.037 33.8934 372.099 43.5358 372.094L55.2789 372.088L54.0999 371.555ZM167.073 368.657C167.549 368.368 168.175 367.743 168.465 367.268C169.53 365.524 168.896 363.141 167.073 362.032C165.327 360.969 162.939 361.601 161.828 363.421C160.763 365.165 161.397 367.548 163.22 368.657C163.703 368.951 164.554 369.184 165.147 369.184C165.739 369.184 166.59 368.951 167.073 368.657ZM158.05 364.766C158.418 364.679 158.714 364.353 158.817 363.924C159.259 362.08 160.514 360.476 162.227 359.566C163.718 358.774 166.58 358.778 168.091 359.575C169.132 360.123 170.67 361.621 170.9 362.309C170.986 362.566 171.403 362.57 172.855 362.328C176.402 361.736 176.204 361.825 175.78 361.019C174.572 358.723 171.54 357.059 168.124 356.819C160.761 356.3 155.984 359.07 155.082 364.381L154.931 365.272L156.191 365.091C156.883 364.991 157.72 364.845 158.05 364.766ZM239.892 363.781C249.441 361.956 258.509 355.572 264.824 346.23C265.759 344.847 266.238 343.846 266.322 343.104C266.436 342.096 266.362 341.936 265.364 341.036C264.101 339.896 262.332 338.983 258.295 337.387C252 334.897 249.156 332.391 247.273 327.677C246.417 325.534 245.311 323.989 244.408 323.674C242.907 323.152 240.206 324.047 235.938 326.478C234.734 327.164 233.749 327.812 233.748 327.919C233.748 328.025 234.149 328.741 234.639 329.508C235.94 331.543 236.667 333.054 236.667 333.721C236.667 335.168 234.832 335.789 233.836 334.68C233.541 334.352 232.872 333.304 232.348 332.351C230.303 328.631 226.948 324.463 224.679 322.822C223.293 321.82 221.894 321.751 221.054 322.645L220.475 323.26L222.385 328.605L224.294 333.951H225.372C226.789 333.951 230.947 335.075 233.221 336.072C234.216 336.508 235.106 336.865 235.198 336.865C235.571 336.865 238.458 338.837 239.407 339.74C240.199 340.493 241.487 342.088 242.396 343.44C242.427 343.486 243.406 342.819 244.57 341.957C247.32 339.922 250.012 338.429 251.227 338.266C252.425 338.106 253.205 338.815 253.074 339.945C252.983 340.727 252.628 341.014 249.716 342.653C248.849 343.142 247.32 344.157 246.317 344.909L244.495 346.277L244.586 348.26C244.821 353.409 242.994 357.052 239.374 358.651C237.905 359.299 233.855 359.901 230.912 359.908C228.728 359.913 225.415 359.364 224.42 358.832C224.006 358.611 223.779 358.641 223.421 358.965C222.801 359.524 221.723 359.495 221.187 358.903C220.948 358.639 220.226 357.119 219.584 355.525C215.617 345.685 214.386 342.927 210.872 336.008C204.257 322.981 197.213 314.251 191.123 311.532C189.367 310.748 186.536 310.422 185.382 310.87L184.652 311.154V317.612V324.069L186.511 326.004C189.646 329.267 191.626 331.87 202.888 347.534C207.669 354.183 211.341 357.637 216.408 360.25C220.537 362.379 224.608 363.531 230.563 364.256C232.243 364.461 237.821 364.177 239.892 363.781ZM34.3138 363.233C35.6825 362.741 37.8771 362.735 39.8868 363.22C41.1794 363.531 44.3443 363.605 56.703 363.613L71.927 363.623L71.767 363.026C71.679 362.699 71.6054 361.745 71.6034 360.907L71.5998 359.384H51.8481H32.0964L31.1817 360.907C29.4134 363.852 29.3907 363.623 31.4516 363.619C32.4419 363.616 33.7299 363.443 34.3138 363.233ZM71.9978 357.172C71.9978 356.831 71.0785 356.125 68.9786 354.854L65.9594 353.026H51.6898H37.4203L35.7479 354.946C34.828 356.003 33.9008 357.076 33.6875 357.332C33.3179 357.776 34.2187 357.794 52.6487 357.73C71.27 357.664 71.9978 357.643 71.9978 357.172ZM167.668 353.603C170.898 352.846 172.959 352.109 176.392 350.482C182.678 347.503 187.336 343.17 189.72 338.086L190.549 336.316L189.862 335.326C188.628 333.549 185.163 329.447 184.895 329.447C184.732 329.447 184.662 330.925 184.709 333.378C184.792 337.7 184.651 338.19 183.325 338.19C181.827 338.19 181.881 338.807 181.681 319.416C181.58 309.573 181.43 301.254 181.349 300.931C181.204 300.355 181.146 300.369 178.405 301.66C170.089 305.576 162.56 306.736 154.55 305.336C146.137 303.865 136.948 301.738 130.582 299.787L127.089 298.716H117.643H108.197L108.276 300.372L108.355 302.028L118.493 302.16C126.388 302.263 128.707 302.37 128.975 302.642C129.259 302.928 129.228 303.058 128.805 303.37C128.38 303.684 126.566 303.75 118.389 303.75H108.488V305.074V306.399H124.094C137.561 306.399 139.772 306.454 140.216 306.796C140.726 307.19 140.726 307.198 140.216 307.591C139.772 307.934 137.561 307.989 124.094 307.989H108.488V309.711V311.433H128.871C146.584 311.433 149.322 311.485 149.77 311.83C150.28 312.223 150.28 312.231 149.77 312.625C149.322 312.97 146.599 313.022 129.004 313.022H108.753V314.744V316.466H121.706C132.814 316.466 134.732 316.523 135.174 316.864C135.684 317.257 135.684 317.265 135.174 317.658C134.732 317.999 132.814 318.056 121.706 318.056H108.753L108.75 318.784C108.748 319.185 108.673 319.96 108.583 320.506L108.418 321.5H113.179C117.005 321.5 118.041 321.578 118.455 321.897C118.965 322.29 118.965 322.298 118.455 322.692C118.04 323.012 116.994 323.089 113.081 323.089H108.222V324.679V326.268H114.939C120.503 326.268 121.744 326.336 122.17 326.666C122.68 327.059 122.68 327.067 122.17 327.46C121.746 327.788 120.547 327.858 115.337 327.858C111.862 327.858 109.018 327.909 109.018 327.971C109.018 328.033 109.55 329.255 110.2 330.687L111.382 333.289L115.363 333.421C119.6 333.562 120.58 333.848 119.517 334.631C119.133 334.914 118.136 335.011 115.602 335.011C113.051 335.011 112.207 335.093 112.22 335.342C112.229 335.524 112.557 336.567 112.949 337.66L113.663 339.647L115.255 339.78C117.631 339.98 118.221 340.566 116.693 341.208L115.875 341.551L118.484 343.244C126.917 348.713 137.292 352.325 148.428 353.668C153.534 354.283 153.792 354.296 159.839 354.21C164.268 354.147 165.875 354.022 167.668 353.603ZM74.917 353.555C75.3912 353.032 75.3806 353.026 74.0957 353.027L72.794 353.03L73.5901 353.556C74.028 353.846 74.3976 354.083 74.4115 354.084C74.4254 354.084 74.6529 353.847 74.917 353.555ZM60.8519 350.318C59.6842 349.717 57.4749 348.711 55.9423 348.082L53.1558 346.937L48.8064 346.935L44.4569 346.932L42.7026 348.377C41.7377 349.172 40.5303 350.182 40.0195 350.622L39.0906 351.421L51.0328 351.415L62.9749 351.409L60.8519 350.318ZM77.5283 350.707C78.0559 350.307 78.749 349.792 79.0684 349.563L79.6491 349.148L79.0255 348.04L78.4019 346.932H70.2937H62.1855L66.1628 349.172L70.1402 351.411L73.3546 351.423C76.4608 351.435 76.6013 351.412 77.5283 350.707ZM83.94 347.197C84.3658 347.015 84.2739 346.966 83.4756 346.951C82.9282 346.941 82.4804 347.052 82.4804 347.197C82.4804 347.514 83.2025 347.514 83.94 347.197ZM76.8438 344.595C76.4408 343.529 76.7734 342.472 77.5749 342.272C78.7432 341.979 79.4577 342.372 80.4993 343.882L81.5071 345.343H85.7207H89.9343L89.8563 343.422L89.7784 341.501L73.1381 341.433L56.4978 341.365L55.7897 342.571C55.4003 343.234 55.126 343.82 55.1803 343.873C55.2345 343.925 55.9954 344.267 56.8711 344.632L58.4634 345.297L67.795 345.32L77.1267 345.343L76.8438 344.595ZM95.484 343.223V341.369H94.4225H93.361V343.047C93.361 343.97 93.4406 344.804 93.5379 344.901C93.6352 344.998 94.1129 345.078 94.5994 345.078H95.484V343.223ZM68.4152 339.659C68.4152 339.363 65.7483 338.406 64.1772 338.139C62.7289 337.893 62.1985 337.916 60.9498 338.28C60.1279 338.52 59.1725 338.951 58.8267 339.239L58.198 339.762L63.3066 339.771C66.1163 339.775 68.4152 339.725 68.4152 339.659ZM89.3793 339.183C89.3787 338.855 89.1589 337.812 88.8908 336.865L88.4033 335.143L80.8554 335.073L73.3075 335.003L72.2937 336.039L71.2799 337.076L71.8379 337.633C72.157 337.951 72.3959 338.53 72.3959 338.985V339.779H80.8881H89.3803L89.3793 339.183ZM95.1 338.124C94.7371 334.916 94.7918 335.011 93.3099 335.011C92.184 335.011 92.0183 335.076 92.1392 335.474C92.2166 335.729 92.4047 336.534 92.5571 337.263C93.1208 339.957 93.0053 339.779 94.1965 339.779H95.2872L95.1 338.124ZM109.822 339.051C109.7 338.65 109.326 337.577 108.991 336.667L108.382 335.011H103.231H98.0803L98.2289 335.607C98.3105 335.935 98.4594 337.008 98.5597 337.991L98.7419 339.779H104.392H110.043L109.822 339.051ZM216.113 336.625C216.252 336.493 217.35 335.999 218.554 335.528C219.759 335.057 220.744 334.551 220.744 334.405C220.744 334.039 217.81 325.883 216.626 322.96C215.084 319.148 213.554 316.435 212.123 314.974C210.91 313.735 210.637 313.588 209.045 313.318C208.085 313.155 206.675 313.022 205.913 313.022C204.364 313.022 200.926 313.73 200.699 314.095C200.619 314.225 201.37 315.276 202.369 316.429C205.852 320.454 209.762 326.459 213.327 333.26C215.123 336.687 215.531 337.179 216.113 336.625ZM94.1571 333.159C94.1571 333.015 93.7933 331.764 93.3485 330.378L92.5399 327.858H88.0321C83.7029 327.858 83.4694 327.885 82.1398 328.55C80.6449 329.297 77.0027 331.68 75.7132 332.755L74.917 333.419H84.5371C90.6968 333.419 94.1571 333.327 94.1571 333.159ZM106.912 331.765C106.496 330.855 105.874 329.604 105.53 328.986L104.905 327.862L100.564 327.86C96.5383 327.857 96.2364 327.891 96.4026 328.321C96.5011 328.576 96.8198 329.679 97.1107 330.772C97.4016 331.864 97.6883 332.907 97.7477 333.09C97.829 333.339 99.0717 333.421 102.763 333.421H107.669L106.912 331.765ZM91.5074 325.746C91.2035 325.179 90.4492 325.217 88.5841 325.894C87.6891 326.219 87.7304 326.232 89.7213 326.25C91.6976 326.267 91.7752 326.246 91.5074 325.746ZM103.711 326.132C103.711 326.057 103.341 325.341 102.889 324.542L102.068 323.089H98.2452C95.4845 323.089 94.4225 323.176 94.4225 323.402C94.4225 323.574 94.6827 324.289 95.0006 324.991L95.5787 326.268H99.6448C101.881 326.268 103.711 326.207 103.711 326.132ZM103.883 320.555C104.768 319.83 105.038 319.428 105.038 318.833C105.038 318.125 104.957 318.056 104.131 318.056C102.895 318.056 102.384 317.823 102.384 317.261C102.384 316.699 102.895 316.466 104.131 316.466C105.017 316.466 105.038 316.441 105.038 315.37V314.275L103.777 314.446C101.697 314.729 99.931 315.777 97.9535 317.902C96.9602 318.969 95.9318 320.215 95.6681 320.671L95.1886 321.5H98.958H102.727L103.883 320.555ZM166.341 302.672C170.875 302.007 178.731 298.658 184.121 295.091C192.089 289.819 200.657 281.342 206.508 272.944C215.309 260.311 220.307 246.483 222.183 229.571C223.284 219.653 223.48 204.758 222.753 186.256C222.53 180.574 222.281 174.017 222.199 171.686C221.469 150.748 218.576 135.923 212.332 121.116C200.101 92.1151 178.617 74.1244 151.347 70.0472C147.574 69.483 134.943 69.5692 130.912 70.1866C126.625 70.8432 121.556 72.1447 117.378 73.6611C111.621 75.7507 111.316 75.6282 122.303 75.6402C130.51 75.6492 132.085 75.7121 132.52 76.0482C133.03 76.4416 133.03 76.4496 132.52 76.843C132.081 77.1823 130.317 77.2404 120.462 77.2404H108.92L106.249 78.7419C104.78 79.5677 103.162 80.5214 102.654 80.8613L101.73 81.4792H117.664C131.421 81.4792 133.668 81.5334 134.113 81.8765C134.622 82.2699 134.622 82.278 134.113 82.6713C133.667 83.0152 131.282 83.0687 116.415 83.0687H99.2321L97.159 84.6507C96.0189 85.5208 94.7874 86.4719 94.4225 86.7642L93.7591 87.2957L111.423 87.3016C126.711 87.3067 129.155 87.3609 129.601 87.7049C130.111 88.0982 130.111 88.1063 129.601 88.4996C129.154 88.8441 126.613 88.8972 110.494 88.8986L91.9014 88.9002L89.2476 91.4023L86.5938 93.9044L106.38 93.9174C123.549 93.9288 126.235 93.9831 126.682 94.3279C127.192 94.7213 127.192 94.7293 126.682 95.1227C126.234 95.468 123.483 95.52 105.664 95.52H85.1621L83.2639 97.7057C82.22 98.9077 81.1308 100.219 80.8435 100.62L80.3212 101.348H104.969C126.472 101.348 129.682 101.399 130.132 101.746C130.642 102.139 130.642 102.147 130.132 102.541C129.682 102.887 126.401 102.938 104.332 102.938H79.0472L78.0068 104.344C77.4345 105.117 76.5314 106.428 75.9999 107.258L75.0334 108.766H100.6C122.92 108.766 126.232 108.817 126.682 109.164C127.192 109.557 127.192 109.565 126.682 109.958C126.232 110.305 122.864 110.356 100.092 110.356H74.0182L72.5436 112.956C71.7326 114.386 71.069 115.637 71.069 115.737C71.069 115.837 83.1675 115.919 97.9544 115.919C121.447 115.919 124.905 115.969 125.355 116.317C125.865 116.71 125.865 116.718 125.355 117.111C124.905 117.459 121.392 117.509 97.4635 117.509H70.087L68.5877 120.673C67.763 122.413 67.0883 123.963 67.0883 124.117C67.0883 124.312 77.1092 124.397 100.21 124.397C128.544 124.397 133.407 124.452 133.847 124.776C135.301 125.847 135.294 125.847 99.9365 125.986L66.2005 126.119L65.0629 129.165C64.4373 130.841 63.9205 132.301 63.9146 132.411C63.9086 132.52 80.0625 132.609 99.8121 132.609C131.325 132.609 135.784 132.658 136.236 133.007C136.746 133.4 136.746 133.408 136.236 133.802C135.784 134.15 131.297 134.199 99.558 134.199H63.3954L62.8732 135.987C62.1787 138.365 61.784 139.851 61.7822 140.093C61.7814 140.203 78.3574 140.292 98.6179 140.292C130.956 140.292 135.518 140.341 135.97 140.69C136.48 141.083 136.48 141.091 135.97 141.484C135.518 141.833 130.931 141.882 98.387 141.882H61.319L61 143.537C60.8245 144.448 60.6169 145.461 60.5386 145.789L60.3962 146.385H98.0584C131.13 146.385 135.783 146.434 136.236 146.783C136.746 147.176 136.746 147.184 136.236 147.578C135.783 147.926 131.122 147.975 97.9832 147.975H60.2459L60.1007 148.571C60.0209 148.899 59.8731 149.912 59.7723 150.823L59.5891 152.479H92.4799C121.31 152.479 125.434 152.528 125.886 152.876C126.396 153.269 126.396 153.277 125.886 153.671C125.434 154.019 121.303 154.068 92.4146 154.068H59.4586L59.2927 154.896C59.2015 155.351 59.1269 156.126 59.1269 156.618V157.512H85.8796C109.254 157.512 112.697 157.562 113.147 157.91C113.657 158.303 113.657 158.311 113.147 158.704C112.697 159.052 109.254 159.102 85.8796 159.102H59.1269L59.1287 160.36C59.1298 161.052 59.2067 162.423 59.2998 163.407L59.469 165.195H85.7853C108.772 165.195 112.167 165.245 112.617 165.592C113.127 165.986 113.127 165.994 112.617 166.387C112.167 166.734 108.782 166.784 85.8796 166.784C69.9388 166.784 59.6576 166.881 59.6576 167.03C59.6576 167.437 60.1905 171.376 60.3321 172.017L60.4639 172.613L84.6748 172.616C97.9908 172.619 109.154 172.692 109.483 172.78C110.17 172.963 110.287 173.801 109.66 174.042C109.429 174.13 98.3082 174.202 84.9466 174.202H60.6528L60.8187 175.03C60.9099 175.486 60.9845 176.008 60.9845 176.192C60.9845 176.387 61.5045 176.604 62.2347 176.714C64.2593 177.017 66.1537 177.852 68.2959 179.386L70.3051 180.825H91.0707C109.123 180.825 111.904 180.877 112.351 181.223C112.861 181.616 112.861 181.624 112.351 182.018C111.904 182.363 109.208 182.415 91.8392 182.415H71.8423L73.2713 184.203C74.0572 185.187 75.0832 186.558 75.5512 187.25L76.4021 188.508H99.2941C119.237 188.508 122.252 188.559 122.701 188.906C123.211 189.299 123.211 189.307 122.701 189.7C122.253 190.046 119.294 190.098 99.8121 190.098C87.5064 190.098 77.4382 190.163 77.4382 190.243C77.4382 190.323 77.6281 190.756 77.8603 191.204C78.1184 191.702 78.2465 192.469 78.1901 193.178L78.0978 194.336H99.6112C118.328 194.336 121.191 194.388 121.64 194.734C122.15 195.127 122.15 195.135 121.64 195.529C121.19 195.876 117.731 195.926 94.2391 195.926C79.4521 195.926 67.3537 195.987 67.3537 196.061C67.3537 196.135 67.9019 197.208 68.572 198.445L69.7903 200.695H97.9785C122.629 200.695 126.231 200.745 126.682 201.092C127.192 201.485 127.192 201.493 126.682 201.887C126.232 202.234 122.668 202.284 98.3304 202.284C76.1694 202.284 70.5203 202.352 70.6231 202.615C70.6941 202.798 71.2713 204.522 71.9058 206.448L73.0594 209.95L102.001 209.958C127.313 209.966 131.008 210.017 131.459 210.364C131.969 210.758 131.969 210.766 131.459 211.159C131.008 211.507 127.344 211.557 102.201 211.557L73.4574 211.557V212.78C73.4574 213.842 73.3252 214.135 72.4549 215.004C71.3749 216.082 69.3465 216.855 67.5968 216.855C66.7279 216.855 66.5745 216.955 66.3181 217.689C66.1579 218.148 66.0268 218.565 66.0268 218.617C66.0268 218.668 79.8568 218.709 96.7602 218.709C123.673 218.709 127.558 218.759 128.009 219.107C128.519 219.5 128.519 219.508 128.009 219.902C127.558 220.25 123.644 220.299 96.4948 220.299H65.496V222.379C65.496 224.704 65.7975 225.853 66.7406 227.121C67.6733 228.375 68.702 228.816 70.4771 228.723C72.3247 228.626 72.6913 228.136 72.3671 226.194C71.7673 222.602 71.768 222.25 72.3768 221.643C73.0017 221.019 73.8637 221.087 74.4322 221.806C74.8769 222.367 75.675 227.046 75.4866 227.987L75.3284 228.777H107.647C135.97 228.777 140.03 228.826 140.482 229.174C140.992 229.567 140.992 229.575 140.482 229.969C140.03 230.317 135.938 230.366 107.358 230.366H74.7489L73.9041 231.003C71.9464 232.478 69.708 232.527 66.9846 231.154C65.44 230.376 65.3689 230.366 61.0699 230.366H56.7187L57.806 231.965C58.4041 232.844 59.2569 233.976 59.7011 234.481L60.5088 235.4H97.1858C129.382 235.4 133.926 235.448 134.378 235.797C134.888 236.19 134.888 236.198 134.378 236.592C133.926 236.941 129.461 236.989 97.9024 236.989H61.9419L62.8565 237.948C63.3595 238.475 64.4639 239.489 65.3107 240.2L66.8505 241.493H99.5605C128.23 241.493 132.334 241.542 132.786 241.89C133.296 242.284 133.296 242.292 132.786 242.685C132.336 243.032 128.982 243.082 106.323 243.082H80.3752L80.8644 243.943C81.1335 244.417 81.6857 245.669 82.0916 246.725L82.8296 248.646H111C135.035 248.646 139.246 248.701 139.686 249.025C141.123 250.084 140.836 250.097 111.537 250.235L83.5639 250.368L84.5575 252.62L85.5511 254.871L107.754 255.004C125.634 255.111 130.024 255.204 130.302 255.485C130.585 255.772 130.555 255.902 130.132 256.214C129.695 256.536 126.352 256.593 108.039 256.593C96.1711 256.593 86.4611 256.656 86.4611 256.732C86.4611 256.808 86.9401 257.821 87.5256 258.984L88.5901 261.097H112.155C132.193 261.097 135.798 261.154 136.236 261.477C136.659 261.789 136.689 261.919 136.406 262.205C136.128 262.487 131.542 262.58 112.724 262.687L89.3865 262.819L90.6762 265.071L91.9659 267.323L111.758 267.455C127.642 267.562 131.618 267.657 131.894 267.937C132.178 268.224 132.147 268.353 131.724 268.665C131.288 268.986 128.275 269.045 112.137 269.045H93.0656L93.5218 269.816C93.7727 270.24 94.6474 271.521 95.4655 272.664L96.9531 274.741L112.526 274.873C128.517 275.009 129.362 275.069 128.431 275.999C128.177 276.253 124.624 276.361 113.222 276.463L98.3445 276.595L101.185 279.576L104.026 282.556H120.537C134.807 282.556 137.117 282.61 137.563 282.953C138.072 283.347 138.072 283.355 137.563 283.748C137.118 284.091 134.913 284.146 121.507 284.147L105.967 284.148L106.763 284.809C107.201 285.173 108.693 286.246 110.08 287.194L112.601 288.917L127.611 288.916C140.548 288.914 142.691 288.969 143.136 289.312C143.645 289.705 143.645 289.713 143.136 290.106C142.694 290.447 140.686 290.507 129.07 290.526L115.52 290.547L118.174 291.848C121.122 293.293 126.352 295.407 129.553 296.447C131.633 297.123 131.689 297.127 140.847 297.127C148.623 297.127 150.131 297.188 150.566 297.524C151.076 297.918 151.076 297.926 150.566 298.319C150.144 298.644 148.918 298.722 143.799 298.745L137.547 298.775L141.617 299.785C146.061 300.889 155.023 302.631 157.978 302.966C160.01 303.196 163.631 303.069 166.341 302.672ZM165.303 247.053C163.265 246.62 162.247 245.064 163.355 244.074C163.611 243.846 164.536 243.443 165.412 243.178C167.705 242.483 175.047 242.489 177.408 243.188C181.006 244.253 180.544 245.839 176.396 246.664C173.987 247.144 166.898 247.392 165.303 247.053ZM177.221 221.624C176.506 220.909 176.547 220.598 177.537 219.255L178.383 218.106L176.349 211.984C175.23 208.616 174.019 204.609 173.656 203.079C172.398 197.771 171.653 189.975 171.655 182.15C171.658 177.281 171.844 176.51 173.064 176.369C174.481 176.205 174.567 176.496 174.572 181.454C174.579 189.371 175.302 197.407 176.444 202.265C176.732 203.493 177.921 207.414 179.085 210.978C180.249 214.543 181.202 217.777 181.202 218.165C181.202 219.476 179.114 222.153 178.091 222.153C177.905 222.153 177.513 221.915 177.221 221.624ZM169.877 218.869C169.228 218.312 169.17 218.143 169.403 217.483C169.564 217.026 169.962 216.628 170.42 216.468C171.081 216.236 171.25 216.293 171.809 216.941C172.602 217.863 172.601 218.047 171.793 218.854C170.985 219.66 170.8 219.662 169.877 218.869ZM190.79 189.16C187.426 188.431 183.411 186.054 181.081 183.412C179.571 181.699 177.903 178.455 177.475 176.4C177.091 174.553 177.28 171.815 177.897 170.274C179.324 166.715 191.404 162.533 200.211 162.55C203.391 162.557 205.856 163.114 208.434 164.409C211.445 165.921 213.391 167.712 214.116 169.639C215.889 174.349 214.582 178.561 210.002 182.904C204.643 187.986 196.945 190.493 190.79 189.16ZM198.161 186.511C200.229 186.024 203.67 184.445 205.784 183.011C207.828 181.626 210.673 178.597 211.469 176.959C212.219 175.416 212.442 172.982 211.988 171.284C211.364 168.945 207.313 166.108 203.627 165.428C201.596 165.053 196.12 165.278 193.144 165.859C188.961 166.676 184.278 168.413 181.293 170.254C180.164 170.951 179.778 172.187 179.934 174.611C180.263 179.733 185.029 184.954 190.789 186.501C192.667 187.005 196.042 187.01 198.161 186.511ZM194.02 174.07C192.893 173.281 193.11 170.868 194.35 170.393C196.309 169.643 198.21 171.569 197.281 173.362C196.674 174.534 195.156 174.863 194.02 174.07ZM132.793 187.95C123.542 186.603 116.089 180.667 115.48 174.161C115.283 172.049 115.778 169.55 116.546 168.783C117.327 168.003 120.789 166.6 123.833 165.829C127.273 164.958 131.196 164.483 138.002 164.113C146.929 163.627 151.433 164.194 155.767 166.347C158.462 167.686 158.756 168.158 158.756 171.156C158.756 173.733 158.152 175.529 156.393 178.17C152.425 184.129 144.117 188.318 136.485 188.209C135.318 188.192 133.656 188.076 132.793 187.95ZM140.201 185.331C148.006 184.057 155.583 177.719 156.178 171.968C156.416 169.671 156.241 169.362 154.166 168.408C150.516 166.728 145.768 166.262 137.414 166.765C128.421 167.306 124.439 167.994 120.257 169.732C118.469 170.475 118.31 170.607 118.148 171.468C117.86 172.997 118.2 175.335 118.913 176.736C121.982 182.767 131.748 186.711 140.201 185.331ZM141.528 174.956C139.489 173.843 140.182 171.023 142.494 171.023C144.675 171.023 145.421 173.882 143.499 174.874C142.613 175.332 142.243 175.347 141.528 174.956ZM183.928 159.445C183.166 159.298 181.021 157.292 180.805 156.523C180.685 156.096 180.828 155.742 181.323 155.248C182.132 154.44 182.74 154.541 184.077 155.704C184.59 156.152 185.146 156.418 185.404 156.339C185.647 156.264 187.638 155.847 189.827 155.411C195.778 154.225 199.015 153.978 205.882 154.187C212.487 154.387 213.048 154.522 213.048 155.914C213.048 157.376 212.669 157.446 205.536 157.304C198.234 157.159 196.058 157.347 189.202 158.713C186.669 159.218 184.579 159.615 184.558 159.595C184.537 159.576 184.253 159.508 183.928 159.445ZM119.908 158.589C119.498 157.824 119.575 157.117 120.123 156.622C120.669 156.129 126.081 155.249 134.097 154.349C141.31 153.54 144.304 153.432 149.79 153.783C155.664 154.16 159.399 153.913 161.501 153.01C162.959 152.384 163.672 152.521 164.213 153.529C164.894 154.8 163.07 156.144 159.858 156.736C159.026 156.89 154.3 156.969 148.52 156.926C137.948 156.848 137.518 156.878 126.683 158.45C121.14 159.254 120.274 159.271 119.908 158.589ZM121.624 296.649C119.728 295.887 113.371 292.694 111.543 291.585C110.155 290.743 109.495 290.504 108.565 290.504C107.677 290.504 107.404 290.595 107.505 290.857C107.58 291.052 107.728 292.542 107.833 294.169L108.025 297.127L115.355 297.101C122.37 297.076 122.64 297.057 121.624 296.649ZM76.3692 244.146C78.2406 243.193 77.9629 243.082 73.6942 243.082C71.4719 243.082 69.7222 243.151 69.806 243.234C69.8897 243.318 70.656 243.673 71.5088 244.023C73.4049 244.801 75.0031 244.842 76.3692 244.146ZM63.6216 227.881C62.8594 226.591 62.2336 223.358 62.4233 221.69L62.5815 220.299H57.4042C54.5567 220.299 52.227 220.356 52.227 220.425C52.227 220.775 53.699 224.414 54.6672 226.458L55.7649 228.777H59.9581H64.1512L63.6216 227.881ZM63.3424 217.087C63.6443 216.194 64.1998 215.06 64.5769 214.567C65.2474 213.689 65.3015 213.671 67.0379 213.735C69.2198 213.815 70.4056 213.326 70.4056 212.348V211.689L60.6469 211.619L50.8883 211.55L51.0118 212.149C51.0798 212.479 51.2086 213.643 51.2982 214.736C51.3877 215.828 51.5292 217.17 51.6125 217.716L51.764 218.709H57.2788H62.7935L63.3424 217.087ZM69.4344 208.232C69.1476 207.277 68.5281 205.579 68.0577 204.457L67.2025 202.417L62.3683 202.344C58.255 202.283 57.4353 202.337 56.8709 202.706C56.2597 203.106 56.1563 203.106 55.5536 202.712C55.0976 202.414 54.2936 202.284 52.8998 202.284H50.9001V206.126V209.967H60.428H69.9559L69.4344 208.232ZM55.0682 198.774C55.237 197.718 55.4559 196.645 55.5545 196.39C55.7154 195.973 55.5303 195.926 53.7437 195.926C51.4661 195.926 51.5939 195.772 51.2744 198.906L51.0921 200.695H52.9266H54.7611L55.0682 198.774ZM65.597 199.308C65.2097 198.545 64.6091 197.472 64.2623 196.923L63.6317 195.926H61.4118C59.8427 195.926 59.1023 196.034 58.8864 196.293C58.6369 196.594 57.8216 199.761 57.8046 200.496C57.8019 200.605 59.7127 200.695 62.0505 200.695H66.3011L65.597 199.308ZM57.63 193.451C58.8971 192.486 61.9598 191.157 62.9186 191.157C63.773 191.157 64.531 191.762 65.403 193.14L66.1595 194.336L71.1488 194.336L76.1381 194.337L75.0336 192.217L73.929 190.098H63.4835H53.0379L52.6436 191.489C52.4268 192.254 52.1717 193.207 52.0767 193.608L51.904 194.337H54.1863C56.3651 194.337 56.5211 194.296 57.63 193.451ZM72.6613 188.335C72.6613 188.002 71.2187 186.244 69.38 184.336L67.5294 182.415H62.152H56.7746L56.2594 183.143C55.7109 183.919 54.217 186.802 53.8109 187.868L53.567 188.508H63.1141C68.3651 188.508 72.6613 188.43 72.6613 188.335ZM64.0364 180.281C62.7402 179.669 60.4555 179.614 59.3791 180.17C58.9484 180.392 58.5961 180.631 58.5961 180.7C58.5961 180.769 60.059 180.816 61.847 180.804L65.0979 180.783L64.0364 180.281ZM78.6083 430.847C82.1376 418.508 82.495 404.548 79.6494 390.178C78.9782 386.788 78.9705 386.646 79.4313 386.138C80.041 385.465 80.6766 385.469 81.2918 386.147C81.6233 386.513 81.8642 386.597 82.0495 386.412C82.2298 386.232 88.8436 386.141 101.723 386.141C118.563 386.141 121.193 386.193 121.64 386.538C122.149 386.932 122.149 386.94 121.635 387.336C121.18 387.687 118.677 387.728 101.519 387.668C82.2915 387.599 81.9249 387.608 82.056 388.108C82.1295 388.388 82.3919 389.849 82.6393 391.353L83.0889 394.089H86.8836H90.6783L91.5553 392.312C92.5243 390.348 93.103 389.823 93.8077 390.266C94.7455 390.857 94.8309 391.351 94.2376 392.752L93.6721 394.089H106.337C117.188 394.089 119.075 394.146 119.517 394.486C120.027 394.879 120.027 394.887 119.517 395.281C119.075 395.622 117.149 395.678 105.98 395.678H92.9591L91.8332 398.454C91.2139 399.981 90.7072 401.352 90.7072 401.501C90.7072 401.681 94.4716 401.771 101.935 401.771C111.51 401.771 113.239 401.83 113.678 402.169C114.188 402.562 114.188 402.57 113.678 402.964C113.238 403.303 111.469 403.361 101.566 403.361C90.7683 403.361 89.955 403.393 89.7809 403.825C89.6781 404.08 88.9503 406.111 88.1637 408.339L86.7334 412.389L89.0301 412.312L91.3269 412.236L91.8796 410.613C92.7378 408.093 93.5255 407.524 94.566 408.671C94.9945 409.144 95.0189 409.355 94.7578 410.327C94.5932 410.94 94.378 411.65 94.2795 411.905C94.1107 412.342 94.7388 412.368 105.224 412.368C114.463 412.368 116.435 412.433 116.863 412.748C117.286 413.06 117.316 413.19 117.033 413.476C116.763 413.75 114.203 413.854 105.14 413.958L93.5909 414.09L92.577 416.74C92.0193 418.197 91.4772 419.597 91.3722 419.852C91.1918 420.29 91.9415 420.316 104.959 420.316C116.799 420.316 118.809 420.372 119.251 420.713C119.761 421.107 119.761 421.115 119.251 421.508C118.808 421.85 116.763 421.906 104.627 421.906H90.5182L89.3172 424.489L88.1164 427.072L103.729 427.204C115.72 427.306 119.419 427.413 119.674 427.668C120.608 428.601 119.778 428.658 103.233 428.794L87.1246 428.926L86.4611 430.184L85.7977 431.441H84.2718C83.4325 431.441 82.7458 431.374 82.7458 431.291C82.7458 431.207 83.0557 430.611 83.4345 429.966L84.1232 428.793H83.0609C82.0085 428.793 81.9956 428.805 81.6587 430.117L81.3186 431.442H79.8782C78.5109 431.442 78.4464 431.413 78.6083 430.847ZM86.2871 424.621L87.5365 422.038L86.0333 421.958C85.2066 421.913 84.3848 421.933 84.2071 422.001C83.9326 422.106 82.7458 426.109 82.7458 426.93C82.7458 427.081 83.2615 427.204 83.8917 427.204H85.0377L86.2871 424.621ZM89.3939 417.468C90.0074 415.902 90.5666 414.471 90.6367 414.289C90.7323 414.04 90.2059 413.958 88.5185 413.958H86.273L85.6997 415.879C85.3844 416.935 84.9548 418.366 84.7449 419.058L84.3634 420.316H86.321H88.2785L89.3939 417.468ZM86.9917 403.427C86.9918 403.391 86.3172 403.361 85.4925 403.361H83.9932L84.1656 405.786C84.2605 407.12 84.3441 408.819 84.3515 409.561C84.3647 410.879 84.3967 410.822 85.6783 407.202C86.4005 405.162 86.9916 403.464 86.9917 403.427ZM88.6568 399.169C89.1987 397.759 89.7154 396.397 89.805 396.142C89.9545 395.716 89.6928 395.678 86.6043 395.678C83.5268 395.678 83.2521 395.718 83.3748 396.142C83.4485 396.397 83.5819 397.559 83.6713 398.725C83.9335 402.143 83.7735 401.917 85.8598 401.818L87.6714 401.733L88.6568 399.169ZM244.783 430.847C244.235 428.144 244.494 419.114 245.301 412.766C246.051 406.861 247.924 397.884 249.694 391.704C251.07 386.903 252.633 382.318 253.058 381.836C253.599 381.224 254.253 381.249 254.849 381.906C255.319 382.425 255.296 382.554 253.97 386.741C252.288 392.056 251.244 395.846 250.231 400.314C249.229 404.734 248.284 409.938 248.412 410.323C248.632 410.98 252.811 404.575 256.24 398.325C258.13 394.882 258.652 394.296 259.405 394.77C260.502 395.461 260.473 395.844 259.124 398.489C256.06 404.493 251.65 411.22 248.984 413.958L247.565 415.415L247.254 420.316C247.047 423.58 247.023 426.257 247.183 428.33L247.423 431.443H246.163C245.07 431.443 244.888 431.364 244.783 430.847ZM92.6312 380.667C92.1589 380.477 92.2202 379.605 92.7193 379.414C92.9501 379.325 98.9581 379.253 106.07 379.253C117.159 379.253 119.075 379.31 119.517 379.65C120.027 380.044 120.027 380.052 119.517 380.445C119.074 380.787 117.171 380.84 105.982 380.822C98.8216 380.81 92.8137 380.741 92.6312 380.667Z" fill="black"/>
</svg>
