<svg viewBox="0 0 80 80" xmlns="http://www.w3.org/2000/svg">
<rect width="80" height="80" rx="40" fill="#f2a"/>
<path d="m40.19 51.739s-2.3818-0.6492-4.0238-2.3443c-1.642-1.6952-5.6297-6.5101-5.6297-6.5101l1.209-1.641-1.7503-2.8493s-2.5081 3.8231-3.6088 4.9231c-1.1006 1.1001-3.284 3.769-3.1757 4.8149 0.1083 1.046 0.8661 2.669 0.5413 3.4444-0.3248 0.7574-3.6087 0.8115-4.8718 0.541s-5.1967 0.3787-5.8462 0.0541c-0.6496-0.3246-2.5081-1.8574-2.021-2.5607 0.4872-0.7033 2.1834-0.2705 3.4464-0.9378l2.3457-1.0098s-3.6268 0.1442-3.8614-1.2263c-0.2165-1.3705 0.5414-1.7492 0.5414-1.7492s1.9126 0.2524 2.9592-0.3066c1.0465-0.541 3.9696-2.3984 3.9696-2.3984s2.0209-3.0837 3.1216-4.833c1.1007-1.7492 3.5005-8.692 5.2508-9.2871 1.7502-0.5951 4.0959 1.0459 4.0959 1.0459s7.0011 7.4297 7.5965 8.2412c0.5955 0.8115 0.6496 3.0657 3.0675 3.3903 2.3998 0.3246 3.7711 1.2623 6.8927 0.541 3.1216-0.7033 7.2176-2.3804 7.5063-2.6148 0.2887-0.2345-0.2526-0.9378-0.2887-1.064s0.6496-0.3607 0.812-0.9918c0.1624-0.6132 0.2887-1.8034 0.2887-1.8034s-0.1985-2.705 0.415-3.4083 1.642-1.3885 1.642-1.3885l2.4539 1.3525s1.0285-0.4869 1.5157-0.1984 3.284 1.2623 3.681 2.164c0.415 0.9017 0.7398 2.2542 0.5413 2.7952s-0.812 1.2623-1.0285 1.9295c-0.1985 0.6492-0.8661 1.605-0.812 3.4083 0.0361 1.8034-0.3248 3.0657-0.3248 3.0657l-1.9306 1.3164s-0.7038 2.6149-1.3894 3.1559c-0.7038 0.541-4.2584 2.0017-5.2508 2.164-0.9744 0.1623-15.806 1.2082-18.08 0.7754z" fill="#FCFCFC"/>
</svg>
