<svg width="300" height="300" viewBox="0 0 300 300" fill="none" xmlns="http://www.w3.org/2000/svg">
<rect width="300" height="300" rx="150" fill="#FF22AA"/>
<path d="M150.715 194.023C150.715 194.023 141.784 191.588 135.626 185.232C129.469 178.875 114.515 160.819 114.515 160.819L119.048 154.665L112.485 143.98C112.485 143.98 103.079 158.317 98.9519 162.442C94.8244 166.567 86.6369 176.576 87.0429 180.498C87.4488 184.42 90.2908 190.506 89.0728 193.414C87.8548 196.255 75.5399 196.457 70.8034 195.443C66.0669 194.429 51.316 196.863 48.8801 195.646C46.4441 194.429 39.4747 188.681 41.3016 186.043C43.1286 183.406 49.4891 185.029 54.2256 182.527L63.022 178.74C63.022 178.74 49.4214 179.281 48.5417 174.141C47.7298 169.002 50.5717 167.582 50.5717 167.582C50.5717 167.582 57.7441 168.528 61.6687 166.432C65.5932 164.403 76.5549 157.438 76.5549 157.438C76.5549 157.438 84.1333 145.874 88.2609 139.314C92.3884 132.755 101.388 106.719 107.951 104.488C114.515 102.256 123.311 108.41 123.311 108.41C123.311 108.41 149.565 136.271 151.798 139.314C154.031 142.357 154.234 150.811 163.301 152.028C172.3 153.245 177.443 156.762 189.149 154.057C200.855 151.419 216.215 145.13 217.297 144.251C218.38 143.372 216.35 140.734 216.215 140.261C216.079 139.788 218.651 138.909 219.259 136.542C219.868 134.242 220.342 129.779 220.342 129.779C220.342 129.779 219.598 119.635 221.898 116.998C224.199 114.361 228.056 111.791 228.056 111.791L237.258 116.863C237.258 116.863 241.115 115.037 242.942 116.119C244.769 117.201 255.257 120.853 256.746 124.234C258.302 127.615 259.52 132.687 258.776 134.716C258.031 136.745 255.731 139.45 254.919 141.952C254.174 144.386 251.671 147.97 251.874 154.733C252.009 161.495 250.656 166.229 250.656 166.229L243.416 171.166C243.416 171.166 240.777 180.971 238.206 183C235.567 185.029 222.237 190.506 218.515 191.115C214.861 191.724 159.241 195.646 150.715 194.023Z" fill="#FCFCFC"/>
</svg>
