<svg width="280" height="119" viewBox="0 0 280 119" fill="none" xmlns="http://www.w3.org/2000/svg">
<path d="M140.919 115.587C140.919 115.587 129.447 112.461 121.538 104.299C113.629 96.137 94.4226 72.9539 94.4226 72.9539L100.245 65.0525L91.8154 51.3336C91.8154 51.3336 79.7351 69.7412 74.4336 75.0377C69.1322 80.3342 58.6162 93.1848 59.1376 98.2209C59.6591 103.257 63.3092 111.071 61.7449 114.805C60.1805 118.452 44.3632 118.712 38.2796 117.41C32.196 116.108 13.2499 119.233 10.1212 117.67C6.99246 116.107 -1.95914 108.727 0.387392 105.341C2.73393 101.954 10.9034 104.038 16.987 100.826L28.2851 95.9633C28.2851 95.9633 10.8164 96.658 9.68663 90.059C8.64372 83.4601 12.2939 81.6367 12.2939 81.6367C12.2939 81.6367 21.5062 82.8523 26.5469 80.1606C31.5876 77.5558 45.6668 68.6124 45.6668 68.6124C45.6668 68.6124 55.4006 53.7648 60.702 45.3425C66.0034 36.9201 77.5623 3.49127 85.9924 0.625942C94.4226 -2.23939 105.721 5.66197 105.721 5.66197C105.721 5.66197 139.441 41.4352 142.309 45.3425C145.177 49.2498 145.438 60.1033 157.084 61.6662C168.643 63.2291 175.248 67.7442 190.283 64.271C205.318 60.8847 225.046 52.8097 226.437 51.6809C227.827 50.5522 225.22 47.1659 225.046 46.5581C224.872 45.9503 228.175 44.8215 228.957 41.7825C229.739 38.8304 230.348 33.0997 230.348 33.0997C230.348 33.0997 229.392 20.0755 232.347 16.6892C235.301 13.3029 240.255 10.0034 240.255 10.0034L252.075 16.5155C252.075 16.5155 257.029 14.1711 259.375 15.5604C261.722 16.9496 275.193 21.6384 277.105 25.9798C279.103 30.3212 280.668 36.8333 279.712 39.4381C278.756 42.043 275.801 45.5161 274.758 48.7288C273.802 51.8546 270.586 56.4565 270.847 65.1393C271.021 73.8221 269.283 79.9001 269.283 79.9001L259.984 86.2386C259.984 86.2386 256.594 98.8287 253.292 101.434C249.902 104.038 232.781 111.071 228.001 111.853C223.308 112.634 151.869 117.67 140.919 115.587Z" fill="#FCFCFC"/>
</svg>
