<svg width="200" height="219" viewBox="0 0 200 219" fill="none" xmlns="http://www.w3.org/2000/svg">
<path d="M199.423 46.6412C196.84 44.7019 192.642 45.6715 189.656 45.7523C185.862 45.8331 182.149 45.9947 178.355 46.3179C178.839 45.9947 179.323 45.6715 179.808 45.3483C180.776 44.6211 180.534 43.0858 179.162 43.005C163.26 42.7626 147.277 42.8434 131.375 42.8434C123.626 42.8434 115.715 42.5202 107.966 43.2474C103.688 43.6515 99.7323 45.1867 95.9384 47.126C89.8843 48.0956 83.9109 48.5804 77.7761 48.2572C78.1797 46.722 78.7448 45.1867 79.552 43.7322C80.6821 44.1363 81.7315 44.5403 82.8616 44.9443C84.3953 45.5099 85.8483 45.6715 87.3012 44.7827C88.7542 43.9747 88.8349 41.389 89.1578 40.0153C89.4807 38.4801 89.8036 36.864 90.0457 35.3288C90.8529 35.248 91.5795 35.0864 92.3867 35.0056C93.0324 34.9248 93.5168 34.4399 93.3553 33.7935C92.6288 31.2078 92.2252 28.5413 91.8216 25.8748C92.9517 24.582 93.6782 23.1276 93.5975 21.2691C93.5168 19.4914 93.1131 17.633 92.6288 15.7745C94.4047 11.9768 92.3059 7.20941 88.8349 4.30051C82.6194 -0.870864 72.9329 -0.870867 65.7487 1.63402C60.4211 3.49248 58.403 7.53261 57.1115 12.2192C56.0621 11.7344 54.932 11.4111 53.6405 11.4111C50.008 11.3303 44.6804 14.4817 42.0166 16.5825C38.3035 19.5722 36.6083 23.0468 36.6891 27.8949C36.8505 33.9551 41.1287 40.985 35.3975 45.8331C35.236 45.9947 35.4782 46.2371 35.6397 46.1563C35.8011 46.0755 35.9625 45.9139 36.2047 45.7523C36.2047 45.7523 36.2854 45.7523 36.3661 45.7523C41.1287 43.8939 45.0033 40.5001 48.1515 36.46C50.3309 33.6319 52.1875 30.8846 54.367 28.5413C54.6898 32.4199 56.3043 36.056 60.421 36.7024C60.0174 39.2881 58.8874 41.7122 57.838 44.2171C53.9634 44.6211 50.1695 45.7523 47.0214 47.934C42.1781 51.3277 40.4829 57.5495 38.5456 62.8017C35.9626 69.5083 31.2807 75.0837 28.4555 81.7095C26.5989 85.9113 26.276 90.517 25.3074 94.9612C24.0158 98.1933 22.3207 101.183 19.9798 103.93C16.5895 107.89 12.0691 110.718 8.19446 114.192C0.122342 121.384 -1.65352 133.019 1.41389 143.12C4.31985 152.735 14.41 157.018 23.6929 156.695C30.3121 156.533 36.7698 154.109 42.9046 150.796C45.0841 150.715 47.2635 150.473 49.3623 150.149C47.99 154.351 47.1021 158.795 46.0527 162.916C43.3889 173.017 39.5143 182.551 35.5589 192.167C33.3795 191.763 31.6843 193.864 31.0386 196.207C30.0699 199.439 29.6663 202.994 29.0205 206.307C28.6977 207.843 27.729 210.428 28.6169 211.964C30.5542 215.277 37.6577 214.792 40.8058 214.792C43.6311 214.873 46.2141 217.701 49.0394 218.347C51.9453 219.074 55.2549 218.589 58.2416 218.347C63.3271 218.105 69.5426 218.832 73.5786 215.277C76.4846 212.772 74.9509 209.216 72.61 207.196C75.5967 206.792 78.3412 205.661 81.4086 206.307C83.9916 206.873 85.9289 208.57 88.6735 208.812C92.6288 209.055 112.406 205.257 107.643 198.227C106.997 197.257 105.544 197.015 104.495 196.853C101.266 196.369 98.4408 196.126 95.3734 194.833C92.306 193.541 89.8843 191.359 87.4626 189.258C86.7362 188.612 86.0097 188.127 85.2025 187.723C88.6735 178.026 92.7903 168.653 97.6335 159.603C102.396 150.715 109.015 142.473 111.598 132.615C112.406 129.383 112.89 124.858 111.275 121.869C109.177 118.071 105.625 116.778 101.589 115.889C92.9517 114.031 83.5073 115 74.7087 116.455C74.3051 116.293 73.9015 116.132 73.4979 116.051C69.704 114.758 66.1523 115.889 62.5198 116.455C63.4078 115.243 64.215 113.95 65.0222 112.738C66.8788 109.829 68.0896 105.627 71.3184 104.092C73.5786 103.041 75.4352 101.991 77.1303 100.213C80.5206 96.8197 80.8435 91.8099 80.6821 87.2849C80.3592 80.4975 80.5207 74.2757 82.8616 68.0539C89.4 65.145 97.3106 65.7106 104.172 64.5794C108.854 63.8521 113.455 62.5593 117.895 60.8624C120.074 60.7816 122.254 60.7816 124.514 61.024C129.518 61.4281 133.877 61.6705 138.721 60.2968C143.483 58.9232 148.084 57.3071 152.847 56.1759C156.56 55.2871 160.273 54.8022 163.986 54.3174C165.924 54.3982 167.78 54.479 169.556 54.479C173.592 57.3071 178.839 57.6303 183.44 55.6103C184.086 55.2871 184.005 54.3174 183.44 53.9942C183.117 53.8326 182.875 53.671 182.552 53.5094C183.117 53.4286 183.682 53.3478 184.167 53.1862C187.476 52.5398 190.867 51.8933 194.176 51.1661C196.517 50.6813 198.212 50.3581 199.665 48.4188C200.311 47.7724 199.907 47.0452 199.423 46.6412ZM68.251 160.815C71.9642 154.917 74.7894 148.533 78.3412 142.635C80.117 141.988 81.9736 141.342 83.7495 140.696C81.57 145.867 80.6821 151.281 80.117 157.341C79.6327 162.836 78.4219 168.088 76.5653 173.259C74.8701 177.946 72.2871 181.986 69.8654 186.268C68.1703 186.834 66.7173 188.127 66.3944 189.904C65.8294 192.733 66.1523 195.399 64.6186 198.066C63.4077 200.086 62.4391 201.459 62.3584 203.722C60.1789 202.752 58.1609 201.378 56.385 199.682C54.8513 198.227 53.6405 195.965 52.1875 194.268C53.0755 189.662 54.367 185.299 56.5464 180.693C59.7753 173.663 64.1342 167.28 68.251 160.815Z" fill="#FCFCFC"/>
</svg>
