<svg viewBox="0 0 80 80" xmlns="http://www.w3.org/2000/svg">
<rect width="80" height="80" rx="40" fill="#f2a"/>
<path d="m66.532 25.261c-0.6027-0.4516-1.5821-0.2258-2.279-0.207-0.8853 0.0188-1.7517 0.0565-2.6369 0.1317 0.113-0.0752 0.226-0.1505 0.339-0.2257 0.226-0.1694 0.1695-0.5269-0.1506-0.5457-3.7105-0.0564-7.4399-0.0376-11.15-0.0376-1.8082 0-3.654-0.0753-5.4622 0.094-0.9982 0.0941-1.9211 0.4516-2.8064 0.9032-1.4126 0.2258-2.8064 0.3387-4.2378 0.2634 0.0941-0.3575 0.226-0.715 0.4143-1.0537 0.2637 0.0941 0.5086 0.1882 0.7723 0.2823 0.3578 0.1317 0.6969 0.1693 1.0359-0.0377 0.339-0.1881 0.3578-0.7902 0.4332-1.1101 0.0753-0.3575 0.1507-0.7338 0.2072-1.0913 0.1883-0.0188 0.3578-0.0564 0.5462-0.0752 0.1507-0.0189 0.2637-0.1318 0.226-0.2823-0.1695-0.6021-0.2637-1.223-0.3579-1.8439 0.2637-0.3011 0.4332-0.6397 0.4144-1.0725-0.0188-0.4139-0.113-0.8467-0.226-1.2795 0.4144-0.8843-0.0754-1.9944-0.8853-2.6718-1.4502-1.2042-3.7104-1.2042-5.3867-0.6209-1.2431 0.4328-1.714 1.3736-2.0154 2.4649-0.2448-0.1129-0.5085-0.1882-0.8099-0.1882-0.8476-0.0188-2.0907 0.715-2.7122 1.2042-0.8664 0.6962-1.262 1.5052-1.2431 2.6342 0.0376 1.4112 1.0359 3.0481-0.3014 4.177-0.0377 0.0377 0.0189 0.0941 0.0565 0.0753 0.0377-0.0188 0.0754-0.0564 0.1319-0.0941h0.0376c1.1113-0.4327 2.0154-1.223 2.7499-2.1638 0.5086-0.6585 0.9418-1.2982 1.4503-1.8439 0.0754 0.9032 0.4521 1.7499 1.4126 1.9004-0.0941 0.6021-0.3578 1.1666-0.6027 1.7498-0.904 0.0941-1.7893 0.3575-2.5239 0.8656-1.13 0.7902-1.5256 2.239-1.9776 3.462-0.6027 1.5617-1.6952 2.86-2.3544 4.4029-0.4332 0.9784-0.5085 2.0509-0.7345 3.0857-0.3014 0.7526-0.6969 1.4488-1.2432 2.0886-0.791 0.9219-1.8458 1.5805-2.7499 2.3895-1.8835 1.6746-2.2978 4.3841-1.5821 6.736 0.6781 2.2391 3.0324 3.2363 5.1985 3.161 1.5444-0.0376 3.0512-0.6021 4.4827-1.3735 0.5085-0.0188 1.0171-0.0753 1.5068-0.1505-0.3202 0.9784-0.5274 2.0132-0.7723 2.9728-0.6215 2.352-1.5256 4.5722-2.4485 6.8113-0.5086-0.0941-0.9041 0.3951-1.0548 0.9408-0.226 0.7526-0.3202 1.5805-0.4708 2.3519-0.0754 0.3575-0.3014 0.9596-0.0942 1.3171 0.452 0.7714 2.1095 0.6585 2.8441 0.6585 0.6592 0.0189 1.2619 0.6774 1.9211 0.8279 0.6781 0.1694 1.4503 0.0565 2.1472 0 1.1866-0.0564 2.6369 0.1129 3.5786-0.715 0.6781-0.5833 0.3202-1.4111-0.226-1.8815 0.6969-0.0941 1.3373-0.3575 2.053-0.207 0.6027 0.1317 1.0548 0.5268 1.6952 0.5833 0.9229 0.0564 5.5374-0.8279 4.4262-2.4649-0.1507-0.2257-0.4897-0.2822-0.7346-0.3198-0.7534-0.1129-1.4126-0.1694-2.1283-0.4704-0.7157-0.3011-1.2808-0.8091-1.8459-1.2983-0.1695-0.1505-0.339-0.2634-0.5273-0.3575 0.8099-2.2579 1.7705-4.4405 2.9006-6.5478 1.1112-2.0697 2.6557-3.9889 3.2584-6.2844 0.1883-0.7526 0.3014-1.8063-0.0753-2.5025-0.4898-0.8843-1.3185-1.1854-2.2602-1.3923-2.0154-0.4328-4.2191-0.207-6.2721 0.1317-0.0941-0.0377-0.1883-0.0753-0.2825-0.0941-0.8852-0.3011-1.714-0.0376-2.5615 0.0941 0.2071-0.2823 0.3955-0.5833 0.5838-0.8656 0.4332-0.6773 0.7158-1.6557 1.4692-2.0132 0.5273-0.2446 0.9605-0.4892 1.3561-0.9032 0.791-0.7902 0.8664-1.9568 0.8287-3.0105-0.0753-1.5805-0.0376-3.0293 0.5086-4.4781 1.5256-0.6773 3.3714-0.5456 4.9724-0.809 1.0924-0.1694 2.166-0.4704 3.2019-0.8656 0.5086-0.0188 1.0171-0.0188 1.5445 0.0377 1.1678 0.0941 2.1848 0.1505 3.3149-0.1694 1.1113-0.3198 2.1849-0.6961 3.2962-0.9596 0.8664-0.2069 1.7328-0.3198 2.5992-0.4327 0.452 0.0188 0.8852 0.0376 1.2996 0.0376 0.9417 0.6586 2.166 0.7338 3.2396 0.2634 0.1507-0.0752 0.1318-0.301 0-0.3763-0.0753-0.0376-0.1318-0.0752-0.2072-0.1129 0.1319-0.0188 0.2637-0.0376 0.3767-0.0752 0.7723-0.1506 1.5633-0.3011 2.3355-0.4704 0.5463-0.1129 0.9418-0.1882 1.2808-0.6398 0.1507-0.1505 0.0565-0.3198-0.0565-0.4139zm-30.607 26.586c0.8664-1.3735 1.5257-2.8599 2.3544-4.2335 0.4144-0.1505 0.8476-0.301 1.2619-0.4516-0.5085 1.2042-0.7157 2.4649-0.8475 3.8761-0.113 1.2794-0.3956 2.5024-0.8288 3.7066-0.3955 1.0913-0.9982 2.0321-1.5633 3.0293-0.3955 0.1317-0.7345 0.4328-0.8099 0.8467-0.1318 0.6586-0.0565 1.2795-0.4143 1.9004-0.2826 0.4704-0.5086 0.7903-0.5274 1.3171-0.5086-0.2258-0.9794-0.5457-1.3938-0.9408-0.3579-0.3387-0.6404-0.8655-0.9794-1.2606 0.2072-1.0725 0.5085-2.0886 1.0171-3.161 0.7534-1.637 1.7705-3.1234 2.731-4.6287z" fill="#FCFCFC"/>
</svg>
