<svg width="220" height="220" viewBox="0 0 220 220" fill="none" xmlns="http://www.w3.org/2000/svg">
<rect width="220" height="220" fill="#193549"/>
<path d="M77.5293 109.467C77.5293 111.743 77.2819 114.019 76.7871 116.295C76.2923 118.546 75.5625 120.699 74.5977 122.752C73.6576 124.781 72.4948 126.673 71.1094 128.43C69.7487 130.186 68.1777 131.72 66.3965 133.031C64.6152 134.318 62.6484 135.32 60.4961 136.037C58.3685 136.779 56.0677 137.15 53.5938 137.15C51.1198 137.15 48.8066 136.779 46.6543 136.037C44.5267 135.32 42.5723 134.318 40.791 133.031C39.0098 131.72 37.4264 130.186 36.041 128.43C34.6556 126.673 33.4805 124.781 32.5156 122.752C31.5508 120.699 30.821 118.546 30.3262 116.295C29.8314 114.019 29.584 111.743 29.584 109.467C29.584 107.191 29.8314 104.927 30.3262 102.676C30.821 100.424 31.5508 98.2845 32.5156 96.2559C33.4805 94.2025 34.6556 92.2975 36.041 90.541C37.4264 88.7598 39.0098 87.2259 40.791 85.9395C42.5723 84.653 44.5267 83.651 46.6543 82.9336C48.8066 82.1914 51.1198 81.8203 53.5938 81.8203C56.0677 81.8203 58.3685 82.1914 60.4961 82.9336C62.6484 83.651 64.6152 84.653 66.3965 85.9395C68.1777 87.2259 69.7487 88.7598 71.1094 90.541C72.4948 92.2975 73.6576 94.2025 74.5977 96.2559C75.5625 98.2845 76.2923 100.424 76.7871 102.676C77.2819 104.927 77.5293 107.191 77.5293 109.467ZM50.2539 85.6055C48.6458 85.6055 47.2109 85.89 45.9492 86.459C44.7122 87.0033 43.6113 87.7578 42.6465 88.7227C41.6816 89.6628 40.8652 90.7637 40.1973 92.0254C39.5293 93.2624 38.985 94.5736 38.5645 95.959C38.1439 97.3444 37.8346 98.7546 37.6367 100.189C37.4388 101.624 37.3398 102.997 37.3398 104.309C37.3398 106.263 37.4883 108.341 37.7852 110.543C38.082 112.72 38.5521 114.872 39.1953 117C39.8633 119.128 40.7044 121.169 41.7188 123.123C42.7578 125.053 44.0072 126.76 45.4668 128.244C46.9264 129.729 48.5964 130.916 50.4766 131.807C52.3815 132.673 54.5339 133.105 56.9336 133.105C58.5169 133.105 59.9271 132.833 61.1641 132.289C62.4258 131.72 63.5391 130.965 64.5039 130.025C65.4688 129.061 66.2852 127.947 66.9531 126.686C67.6211 125.424 68.1654 124.1 68.5859 122.715C69.0312 121.329 69.3529 119.919 69.5508 118.484C69.7487 117.025 69.8477 115.639 69.8477 114.328C69.8477 112.374 69.6992 110.308 69.4023 108.131C69.1055 105.954 68.623 103.801 67.9551 101.674C67.3118 99.5462 66.4707 97.5176 65.4316 95.5879C64.4173 93.6335 63.1803 91.9264 61.7207 90.4668C60.2611 88.9824 58.5788 87.8073 56.6738 86.9414C54.7936 86.0508 52.6536 85.6055 50.2539 85.6055ZM125.771 97.4805C125.771 99.6081 125.363 101.649 124.547 103.604C123.755 105.558 122.667 107.389 121.281 109.096C119.921 110.803 118.337 112.349 116.531 113.734C114.725 115.12 112.808 116.307 110.779 117.297C108.751 118.286 106.685 119.053 104.582 119.598C102.479 120.142 100.451 120.414 98.4961 120.414C98.2982 120.414 98.0879 120.414 97.8652 120.414C97.6673 120.414 97.4694 120.389 97.2715 120.34L97.6797 118.299C99.2878 118.027 100.908 117.618 102.541 117.074C104.199 116.505 105.782 115.812 107.291 114.996C108.8 114.155 110.21 113.19 111.521 112.102C112.833 110.988 113.971 109.764 114.936 108.428C115.9 107.067 116.655 105.595 117.199 104.012C117.768 102.404 118.053 100.684 118.053 98.8535C118.053 97.097 117.768 95.4766 117.199 93.9922C116.63 92.5078 115.826 91.2214 114.787 90.1328C113.773 89.0443 112.548 88.2031 111.113 87.6094C109.678 86.9909 108.083 86.6816 106.326 86.6816C104.495 86.6816 102.615 86.8919 100.686 87.3125C98.7806 87.7331 96.888 88.3268 95.0078 89.0938C93.1276 89.8607 91.3092 90.8008 89.5527 91.9141C87.821 93.0026 86.2253 94.2148 84.7656 95.5508L83.6152 94.2891C85.2975 92.6068 87.2148 91.0358 89.3672 89.5762C91.5443 88.0918 93.8203 86.8053 96.1953 85.7168C98.5703 84.6035 100.97 83.7253 103.395 83.082C105.844 82.4388 108.194 82.1172 110.445 82.1172C112.598 82.1172 114.602 82.5007 116.457 83.2676C118.337 84.0098 119.958 85.0612 121.318 86.4219C122.704 87.7826 123.792 89.403 124.584 91.2832C125.376 93.1634 125.771 95.2292 125.771 97.4805ZM95.6016 134.33L87.957 137.15V95.5508L95.6016 92.8418V134.33ZM193.607 130.916C193.236 131.633 192.766 132.326 192.197 132.994C191.653 133.662 191.022 134.256 190.305 134.775C189.612 135.27 188.87 135.678 188.078 136C187.286 136.297 186.47 136.445 185.629 136.445C184.268 136.445 183.068 136.186 182.029 135.666C180.99 135.146 180.124 134.454 179.432 133.588C178.739 132.697 178.219 131.683 177.873 130.545C177.527 129.407 177.354 128.207 177.354 126.945V90.0215C177.354 89.6504 177.304 89.2793 177.205 88.9082C177.131 88.5124 176.995 88.166 176.797 87.8691C176.599 87.5475 176.339 87.3001 176.018 87.127C175.721 86.929 175.35 86.8301 174.904 86.8301C174.162 86.8301 173.358 87.1393 172.492 87.7578C171.651 88.3516 170.798 89.2174 169.932 90.3555C169.09 91.4688 168.274 92.8171 167.482 94.4004C166.691 95.9837 165.986 97.7402 165.367 99.6699C164.773 101.6 164.291 103.69 163.92 105.941C163.549 108.168 163.363 110.506 163.363 112.955V134.404L155.682 137.15V90.0215C155.682 89.6504 155.632 89.2793 155.533 88.9082C155.459 88.5124 155.323 88.166 155.125 87.8691C154.927 87.5475 154.68 87.3001 154.383 87.127C154.086 86.929 153.715 86.8301 153.27 86.8301C152.527 86.8301 151.723 87.2878 150.857 88.2031C150.016 89.0938 149.163 90.2936 148.297 91.8027C147.456 93.2871 146.627 95.0065 145.811 96.9609C145.019 98.9154 144.314 100.944 143.695 103.047C143.102 105.125 142.619 107.203 142.248 109.281C141.877 111.359 141.691 113.277 141.691 115.033V134.404L134.01 137.15V84.0098L141.691 81.2637V102.193C142.656 98.0371 143.745 94.623 144.957 91.9512C146.194 89.2793 147.468 87.1641 148.779 85.6055C150.115 84.0469 151.476 82.9707 152.861 82.377C154.247 81.7585 155.595 81.4492 156.906 81.4492C158.391 81.4492 159.566 81.6348 160.432 82.0059C161.298 82.3522 161.953 82.847 162.398 83.4902C162.844 84.1087 163.116 84.8509 163.215 85.7168C163.339 86.5579 163.388 87.4857 163.363 88.5V99.5215C164.105 96.4538 165.07 93.7943 166.258 91.543C167.445 89.2669 168.732 87.3867 170.117 85.9023C171.503 84.3932 172.925 83.2799 174.385 82.5625C175.869 81.8203 177.267 81.4492 178.578 81.4492C180.656 81.4492 182.252 81.8945 183.365 82.7852C184.479 83.651 185.035 85.123 185.035 87.2012V128.17C185.035 128.665 185.085 129.16 185.184 129.654C185.283 130.149 185.443 130.594 185.666 130.99C185.913 131.361 186.235 131.671 186.631 131.918C187.027 132.165 187.509 132.289 188.078 132.289C188.919 132.289 189.723 132.042 190.49 131.547C191.257 131.052 191.888 130.483 192.383 129.84L193.607 130.916Z" fill="#FCFCFC"/>
</svg>
